<svg width="17" height="16" viewBox="0 0 17 16" fill="none" xmlns="http://www.w3.org/2000/svg">
<g clip-path="url(#clip0)">
<path fill-rule="evenodd" clip-rule="evenodd" d="M15.6689 12.4149C16.5421 11.0955 17.0045 9.5467 16.9975 7.96447C16.9928 6.91389 16.7813 5.87452 16.375 4.90568C15.9687 3.93685 15.3755 3.05754 14.6294 2.31795C13.8832 1.57837 12.9987 0.992988 12.0263 0.595245C11.0539 0.197501 10.0127 -0.00481976 8.96212 -0.000165633C7.37989 0.00684373 5.83527 0.482879 4.52359 1.36774C3.21191 2.25261 2.19207 3.50656 1.59305 4.97102C0.994027 6.43549 0.842718 8.0447 1.15826 9.59517C1.4738 11.1456 2.24202 12.5677 3.36577 13.6816C4.48952 14.7954 5.91833 15.551 7.47152 15.8529C9.02471 16.1547 10.6325 15.9892 12.0916 15.3772C13.5507 14.7653 14.7956 13.7344 15.6689 12.4149ZM15.1702 12.0845C15.9773 10.8638 16.4043 9.43104 16.397 7.96759C16.3871 6.00589 15.5986 4.12842 14.2049 2.74786C12.8111 1.3673 10.9263 0.596638 8.96458 0.605269C7.50112 0.611938 6.07252 1.05246 4.85944 1.87111C3.64637 2.68976 2.70332 3.84977 2.14956 5.20443C1.59581 6.55909 1.45623 8.04754 1.74847 9.48153C2.04072 10.9155 2.75166 12.2306 3.79138 13.2605C4.83111 14.2905 6.15291 14.9889 7.5896 15.2675C9.0263 15.5462 10.5134 15.3925 11.8627 14.8259C13.2121 14.2593 14.3631 13.3053 15.1702 12.0845Z" fill="#8990A5"/>
<path d="M9.0249 4.05284C9.39766 4.07951 10.7455 4.51661 11.0933 4.75545C10.8035 3.91487 9.8278 3.80298 9.0249 4.05284Z" fill="#8990A5"/>
<path fill-rule="evenodd" clip-rule="evenodd" d="M11.106 4.7628C11.6651 4.98372 12.2174 5.20188 12.7502 5.35609C15.592 6.13003 15.3051 7.68402 13.9091 8.98278C13.7095 9.18862 13.5021 9.38728 13.3164 9.56519L13.3163 9.56522C13.1822 9.69372 13.0593 9.8114 12.9589 9.91317C11.8957 10.9966 10.0006 13.1172 10.3084 15.2824L10.3084 15.2825L10.3107 15.2883C10.2363 15.3041 10.1623 15.3186 10.0888 15.3318C7.26287 15.9083 4.20974 14.291 2.91016 12.21C3.54472 10.7881 3.64823 9.53787 3.78377 7.90062L3.80355 7.66234C3.91449 6.06872 4.36876 4.74634 7.08813 3.99724C7.71364 3.84478 8.36523 3.89985 9.02494 4.05522C9.62262 3.91377 10.3142 3.90565 10.6823 4.22507C10.9357 4.44014 11.0609 4.61638 11.0934 4.75782L11.106 4.7628ZM13.3308 7.77855C13.3646 7.72736 13.3825 7.66729 13.3821 7.60595C13.3815 7.52374 13.3484 7.44513 13.2899 7.38733C13.2315 7.32952 13.1525 7.29724 13.0703 7.29755C13.0089 7.29789 12.9491 7.31642 12.8983 7.35078C12.8474 7.38515 12.808 7.43381 12.7848 7.49061C12.7617 7.54741 12.7559 7.60981 12.7682 7.6699C12.7805 7.72999 12.8103 7.78509 12.8539 7.82822C12.8976 7.87135 12.953 7.90058 13.0132 7.91221C13.0734 7.92384 13.1358 7.91735 13.1923 7.89356C13.2488 7.86977 13.297 7.82974 13.3308 7.77855ZM9.13895 6.97365C9.29606 6.7383 9.37986 6.46165 9.37975 6.17868L9.37917 6.1781C9.37886 5.79885 9.22799 5.43524 8.95971 5.16717C8.69143 4.89911 8.3277 4.74854 7.94845 4.74854C7.66548 4.74865 7.38889 4.83267 7.15368 4.98998C6.91846 5.14728 6.73517 5.37081 6.62699 5.63228C6.51881 5.89376 6.49059 6.18144 6.54591 6.45895C6.60123 6.73646 6.73759 6.99134 6.93776 7.19134C7.13793 7.39135 7.39292 7.52751 7.67048 7.58261C7.94803 7.6377 8.23569 7.60925 8.49708 7.50085C8.75846 7.39246 8.98184 7.20899 9.13895 6.97365ZM8.78583 6.75051C8.89641 6.58501 8.95544 6.39044 8.95544 6.1914C8.95544 5.92449 8.84941 5.66852 8.66068 5.47978C8.47194 5.29105 8.21597 5.18502 7.94906 5.18502C7.75002 5.18502 7.55545 5.24405 7.38995 5.35463C7.22445 5.46521 7.09546 5.62238 7.01929 5.80628C6.94312 5.99017 6.92319 6.19252 6.96202 6.38773C7.00085 6.58295 7.0967 6.76227 7.23745 6.90301C7.37819 7.04376 7.55751 7.13961 7.75273 7.17844C7.94795 7.21727 8.15029 7.19734 8.33419 7.12117C8.51808 7.045 8.67525 6.91601 8.78583 6.75051ZM13.2714 9.07545C13.7074 8.86096 14.1358 8.61806 14.4958 8.28994L14.4801 8.27197C14.1033 8.57342 13.6656 8.78502 13.2233 8.96762C12.7812 9.15095 12.323 9.29263 11.8546 9.39081C11.3909 9.48238 10.9184 9.52127 10.4459 9.50675C9.97984 9.49342 9.51144 9.40067 9.10564 9.13748L9.08999 9.15545C9.421 9.52994 9.93173 9.6998 10.4314 9.74501C10.9311 9.79023 11.4245 9.69806 11.8975 9.57574C12.3701 9.45225 12.8301 9.28475 13.2714 9.07545Z" fill="#8990A5"/>
</g>
<defs>
<clipPath id="clip0">
<rect width="16" height="16" fill="white" transform="translate(0.99707)"/>
</clipPath>
</defs>
</svg>
