<svg width="17" height="16" viewBox="0 0 17 16" fill="none" xmlns="http://www.w3.org/2000/svg">
<g clip-path="url(#clip0)">
<g clip-path="url(#clip1)">
<path d="M14.9103 9.56045C14.7837 9.64641 14.6358 9.69714 14.4824 9.70729C14.3289 9.71745 14.1755 9.68664 14.0384 9.61813C13.7164 9.43891 13.5428 9.01867 13.5428 8.44599V6.69087C13.5428 5.84833 13.2041 5.24887 12.6374 5.08613C11.6798 4.81009 10.9647 5.96575 10.6887 6.40041L8.99498 9.10107V5.80507C8.97616 5.04493 8.72525 4.58967 8.2506 4.45371C7.93696 4.36307 7.46649 4.40015 7.00857 5.08819L3.22185 11.0766C2.71801 10.1269 2.45676 9.07055 2.46074 7.99897C2.46074 4.38985 5.38808 1.45436 8.99498 1.45436C12.6019 1.45436 15.5397 4.38985 15.5397 7.99897V8.01751C15.5397 8.01751 15.5397 8.02987 15.5397 8.03605C15.5752 8.73439 15.3452 9.29059 14.9124 9.56045H14.9103ZM17.0013 8.00103V7.96601C16.972 3.56792 13.3923 0 8.99498 0C4.5977 0 0.99707 3.58852 0.99707 7.99897C0.99707 12.4094 4.58515 16 8.99498 16C11.0175 15.9999 12.9631 15.2361 14.4315 13.8658C14.574 13.7335 14.6579 13.5513 14.6649 13.3585C14.672 13.1657 14.6016 12.9779 14.4691 12.8358C14.4057 12.7667 14.329 12.7107 14.2436 12.6709C14.1581 12.6311 14.0654 12.6083 13.971 12.6039C13.8766 12.5995 13.7822 12.6136 13.6932 12.6452C13.6043 12.6769 13.5226 12.7256 13.4529 12.7885C12.8207 13.3793 12.0739 13.8381 11.2572 14.1374C10.4406 14.4368 9.57094 14.5705 8.70054 14.5305C7.83013 14.4904 6.97692 14.2775 6.19211 13.9046C5.4073 13.5316 4.70708 13.0062 4.13351 12.36L7.54176 6.96279V9.45333C7.54176 10.6502 8.01223 11.0375 8.40742 11.1508C8.80261 11.2641 9.4069 11.1858 10.0405 10.1723L11.9223 7.17085C11.9809 7.07403 12.0373 6.99163 12.0875 6.91953V8.44599C12.0875 9.56457 12.5433 10.4586 13.3421 10.8994C13.7053 11.0926 14.1145 11.1859 14.527 11.1696C14.9394 11.1533 15.3397 11.028 15.686 10.8067C16.5642 10.2444 17.0431 9.22673 16.9929 8.00103H17.0013Z" fill="#8990A5"/>
</g>
</g>
<defs>
<clipPath id="clip0">
<rect width="16" height="16" fill="white" transform="translate(0.99707)"/>
</clipPath>
<clipPath id="clip1">
<rect width="16" height="16" fill="white" transform="translate(0.99707)"/>
</clipPath>
</defs>
</svg>
