<svg width="17" height="16" viewBox="0 0 17 16" fill="none" xmlns="http://www.w3.org/2000/svg">
<g clip-path="url(#clip0)">
<path d="M14.0237 4.51245L1.99707 10.0281L3.70214 11.7569L15.997 6.2201V5.37338L14.0237 4.51245Z" fill="#8990A5"/>
<path d="M13.8303 13.588L15.9969 12.5068L11.4332 10.0294L9.13428 11.1252L13.8303 13.588Z" fill="#8990A5"/>
<path d="M13.8301 11.125V8.96757L15.9967 7.97974V12.5065L13.8301 13.5878V11.125Z" fill="#8990A5"/>
<path d="M8.99731 16.0002L12.6186 14.193L10.26 12.9072L8.99731 13.5374L7.99937 13.0394L5.37598 14.193L8.99731 16.0002Z" fill="#8990A5"/>
<path d="M1.99707 12.5068L3.80963 13.4113L6.38235 12.2324L1.99707 10.0281V12.5068Z" fill="#8990A5"/>
<path d="M1.99707 3.49316V8.17011L4.16373 7.1446V4.87472V4.43949L1.99707 3.49316Z" fill="#8990A5"/>
<path d="M15.9971 3.49342V5.95277L11.6703 3.79612L11.6694 3.79656L10.2129 3.06971L11.6703 3.79612L14.0981 2.54575L15.9971 3.49342Z" fill="#8990A5"/>
<path d="M8.99681 0L5.41064 1.78963L7.78098 3.06955L8.99681 2.4628L10.2126 3.06955L12.583 1.78963L8.99681 0Z" fill="#8990A5"/>
<path d="M4.14053 2.42358L1.99707 3.49325L6.59457 6.07766L8.99706 5.01912L4.14053 2.42358Z" fill="#8990A5"/>
</g>
<defs>
<clipPath id="clip0">
<rect width="16" height="16" fill="white" transform="translate(0.99707)"/>
</clipPath>
</defs>
</svg>
