<svg width="17" height="16" viewBox="0 0 17 16" fill="none" xmlns="http://www.w3.org/2000/svg">
<g clip-path="url(#clip0)">
<path d="M8.99607 0.166504C4.57907 0.166504 0.99707 3.7625 0.99707 8.1985C0.99707 11.7465 3.28907 14.7565 6.46907 15.8195C6.86907 15.8935 7.01507 15.6455 7.01507 15.4325C7.01507 15.2415 7.00807 14.7365 7.00407 14.0665C4.77907 14.5515 4.30907 12.9895 4.30907 12.9895C3.94607 12.0615 3.42107 11.8145 3.42107 11.8145C2.69407 11.3165 3.47507 11.3265 3.47507 11.3265C4.27807 11.3835 4.70007 12.1545 4.70007 12.1545C5.41407 13.3815 6.57307 13.0275 7.02907 12.8215C7.10107 12.3025 7.30807 11.9485 7.53707 11.7475C5.76107 11.5445 3.89307 10.8555 3.89307 7.7785C3.89307 6.9015 4.20507 6.1845 4.71707 5.6225C4.63407 5.4195 4.36007 4.6025 4.79507 3.4975C4.79507 3.4975 5.46707 3.2815 6.99507 4.3205C7.63307 4.1425 8.31707 4.0535 8.99807 4.0505C9.67707 4.0545 10.3621 4.1425 11.0011 4.3215C12.5281 3.2825 13.1991 3.4985 13.1991 3.4985C13.6351 4.6045 13.3611 5.4205 13.2791 5.6235C13.7921 6.1855 14.1011 6.9025 14.1011 7.7795C14.1011 10.8645 12.2311 11.5435 10.4491 11.7425C10.7361 11.9905 10.9921 12.4805 10.9921 13.2295C10.9921 14.3035 10.9821 15.1695 10.9821 15.4325C10.9821 15.6475 11.1261 15.8975 11.5321 15.8185C14.7071 14.7545 16.9971 11.7455 16.9971 8.1985C16.9971 3.7625 13.4151 0.166504 8.99607 0.166504Z" fill="#8990A5"/>
</g>
<defs>
<clipPath id="clip0">
<rect width="16" height="16" fill="white" transform="translate(0.99707)"/>
</clipPath>
</defs>
</svg>
