<svg width="17" height="16" viewBox="0 0 17 16" fill="none" xmlns="http://www.w3.org/2000/svg">
<g clip-path="url(#clip0)">
<path d="M15.7204 3.15541L16.9971 1.93408V1.66675H12.5744L9.4224 9.51208L5.8364 1.66675H1.19907V1.93408L2.6904 3.72941C2.83574 3.86208 2.91174 4.05608 2.8924 4.25141V11.3067C2.9384 11.5607 2.85574 11.8221 2.67707 12.0067L0.99707 14.0427V14.3067H5.7604V14.0394L4.0804 12.0067C3.8984 11.8214 3.8124 11.5647 3.84907 11.3067V5.20408L8.0304 14.3101H8.5164L12.1117 5.20408V12.4581C12.1117 12.6494 12.1117 12.6887 11.9864 12.8141L10.6931 14.0654V14.3334H16.9677V14.0661L15.7211 12.8454C15.6117 12.7627 15.5551 12.6241 15.5784 12.4894V3.51141C15.5551 3.37608 15.6111 3.23741 15.7204 3.15541Z" fill="#8990A5"/>
</g>
<defs>
<clipPath id="clip0">
<rect width="16" height="16" fill="white" transform="translate(0.99707)"/>
</clipPath>
</defs>
</svg>
