<svg width="17" height="16" viewBox="0 0 17 16" fill="none" xmlns="http://www.w3.org/2000/svg">
<g clip-path="url(#clip0)">
<path d="M1.27968 7.71437L4.9664 9.09037L6.39338 13.6795C6.48469 13.9735 6.8441 14.0821 7.08266 13.8871L9.1377 12.2118C9.35312 12.0362 9.65994 12.0275 9.88506 12.1909L13.5916 14.8819C13.8468 15.0674 14.2084 14.9276 14.2724 14.6192L16.9876 1.55837C17.0575 1.22152 16.7265 0.940506 16.4058 1.06456L1.27536 6.90141C0.901971 7.04541 0.905224 7.57405 1.27968 7.71437ZM6.16341 8.35789L13.3686 3.92019C13.4981 3.84067 13.6314 4.01576 13.5202 4.11891L7.57376 9.64637C7.36474 9.84093 7.22992 10.1013 7.19173 10.3839L6.98917 11.885C6.96234 12.0855 6.6808 12.1054 6.62549 11.9114L5.84645 9.17406C5.75722 8.86184 5.88725 8.52835 6.16341 8.35789Z" fill="#8990A5"/>
</g>
<defs>
<clipPath id="clip0">
<rect width="16" height="16" fill="white" transform="translate(0.99707)"/>
</clipPath>
</defs>
</svg>
