<svg width="17" height="16" viewBox="0 0 17 16" fill="none" xmlns="http://www.w3.org/2000/svg">
<path d="M16.5254 3.13991C16.4465 3.16295 16.3676 3.18441 16.2888 3.20439C15.8066 3.32614 15.7623 3.16548 16.1114 2.81104C16.2677 2.65221 16.4058 2.47947 16.5258 2.29289C16.7947 1.87449 16.5614 1.69204 16.104 1.88747C15.9408 1.95719 15.7749 2.0204 15.6067 2.07676C15.1353 2.23506 14.4665 1.99627 14.0464 1.72988C13.5162 1.39363 12.9136 1.22559 12.2384 1.22559C11.2926 1.22559 10.4865 1.55913 9.81956 2.2257C9.15282 2.89262 8.81927 3.69897 8.81927 4.6445C8.81927 4.77381 8.82666 4.90509 8.84125 5.0382C8.86521 5.25485 8.50032 5.41191 8.00791 5.34237C6.94276 5.19199 5.93075 4.86924 4.97169 4.37448C4.02055 3.88387 3.18109 3.26648 2.45345 2.52228C2.10563 2.16661 1.63521 2.19724 1.50534 2.67738C1.42753 2.96519 1.38883 3.26451 1.38883 3.5754C1.38883 4.16127 1.52641 4.70465 1.80163 5.20553C1.93851 5.45479 2.09881 5.68045 2.28288 5.88237C2.59251 6.22224 2.54513 6.41944 2.11414 6.29861C1.68333 6.17777 1.36761 5.99837 1.36761 6.01009C1.36761 6.0218 1.36761 6.03134 1.36761 6.03134C1.36761 6.85676 1.62679 7.58204 2.14548 8.20646C2.46499 8.59116 2.83618 8.88833 3.2589 9.09763C3.70466 9.31843 3.91231 9.44159 3.66304 9.47385C3.51266 9.4933 3.36137 9.50301 3.20919 9.50301C3.10619 9.50301 2.99813 9.49833 2.88538 9.4888C2.70707 9.47367 2.67502 9.84521 2.94536 10.2627C3.16022 10.5945 3.43523 10.8864 3.77025 11.1386C4.11101 11.3952 4.47826 11.5795 4.8714 11.6917C5.34977 11.828 5.44576 12.0764 5.01925 12.3321C3.96384 12.9654 2.79586 13.282 1.51549 13.282C1.37123 13.282 1.23362 13.2788 1.10216 13.2725C0.873971 13.2615 1.02706 13.4625 1.46758 13.6932C2.84412 14.4142 4.33485 14.7744 5.93997 14.7744C7.15353 14.7744 8.29323 14.5822 9.35891 14.1977C10.4242 13.8131 11.3347 13.2978 12.0897 12.6522C12.8447 12.0065 13.4957 11.2639 14.0427 10.4241C14.5895 9.58426 14.9969 8.70749 15.2653 7.79384C15.5333 6.87998 15.6675 5.96433 15.6675 5.04688C15.6675 4.96421 15.6667 4.88999 15.6655 4.82463C15.663 4.70179 15.9879 4.36931 16.3506 4.02911C16.5143 3.87549 16.6705 3.71428 16.8196 3.54518C17.1486 3.17178 17.0029 3.00068 16.5254 3.13991Z" fill="#8990A5"/>
</svg>
