<svg width="80" height="80" viewBox="0 0 80 80" fill="none" xmlns="http://www.w3.org/2000/svg">
<rect width="80" height="80" rx="40" fill="#FF4D00" fill-opacity="0.1"/>
<path d="M16.7871 31.7593C16.7871 26.6506 20.9285 22.5093 26.0371 22.5093H52.0371C57.1457 22.5093 61.2871 26.6506 61.2871 31.7593V49.7593C61.2871 54.8679 57.1457 59.0093 52.0371 59.0093H26.0371C20.9285 59.0093 16.7871 54.8679 16.7871 49.7593V31.7593Z" stroke="#FF4D00" stroke-width="1.5"/>
<path d="M16.7871 35.7593C16.7871 30.6506 20.9285 26.5093 26.0371 26.5093H54.0371C59.1457 26.5093 63.2871 30.6506 63.2871 35.7593V53.7593C63.2871 58.8679 59.1457 63.0093 54.0371 63.0093H26.0371C20.9285 63.0093 16.7871 58.8679 16.7871 53.7593V35.7593Z" fill="#FFEDE5" stroke="#FF4D00" stroke-width="1.5"/>
<path d="M20.6963 38.0472C20.6963 33.2978 24.6029 29.4478 29.4219 29.4478H53.8535C58.6725 29.4478 62.5791 33.2978 62.5791 38.0472V53.5261C62.5791 58.2754 58.6725 62.1255 53.8535 62.1255H29.4219C24.6029 62.1255 20.6963 58.2754 20.6963 53.5261V38.0472Z" fill="#FCDCCE"/>
<path d="M62.5791 39.7593H47.5791C44.8177 39.7593 42.5791 41.9979 42.5791 44.7593V44.7593C42.5791 47.5207 44.8177 49.7593 47.5791 49.7593H62.5791" stroke="#FF4D00" stroke-width="1.5"/>
<circle cx="47.5791" cy="44.7593" r="2.25" stroke="#FF4D00" stroke-width="1.5"/>
</svg>
