<svg width="18" height="18" viewBox="0 0 18 18" fill="none" xmlns="http://www.w3.org/2000/svg">
    <path d="M2.25 3.75V6.5C2.25 7.05228 2.69772 7.5 3.25 7.5H6" stroke="currentColor" stroke-width="1.5" stroke-linecap="round" />
    <path d="M4.65077 10.7418C4.51159 10.3516 4.0825 10.1482 3.69237 10.2874C3.30224 10.4266 3.0988 10.8556 3.23797 11.2458L4.65077 10.7418ZM5.38222 4.75378L5.89239 5.30353L5.9007 5.29582L5.90878 5.28786L5.38222 4.75378ZM3.23797 11.2458C3.7309 12.6275 4.66449 13.8117 5.89617 14.6214L6.72014 13.368C5.75883 12.736 5.03324 11.8139 4.65077 10.7418L3.23797 11.2458ZM5.89617 14.6214C7.12771 15.431 8.59117 15.8227 10.0662 15.7389L9.9811 14.2413C8.82611 14.3069 7.68159 14 6.72014 13.368L5.89617 14.6214ZM10.0662 15.7389C11.5413 15.655 12.95 15.1 14.0799 14.1558L13.1181 13.0048C12.2369 13.7411 11.1361 14.1756 9.9811 14.2413L10.0662 15.7389ZM14.0799 14.1558C15.21 13.2114 16.0001 11.9286 16.3294 10.4998L14.8677 10.1629C14.6124 11.2709 13.999 12.2686 13.1181 13.0048L14.0799 14.1558ZM16.3294 10.4998C16.6587 9.07078 16.5087 7.57494 15.9025 6.23812L14.5364 6.85756C15.0069 7.89522 15.123 9.0551 14.8677 10.1629L16.3294 10.4998ZM15.9025 6.23812C15.2964 4.90146 14.2678 3.79738 12.9733 3.09067L12.2545 4.40724C13.2656 4.95924 14.0658 5.81976 14.5364 6.85756L15.9025 6.23812ZM12.9733 3.09067C11.679 2.38404 10.1881 2.11236 8.7249 2.31566L8.93134 3.80139C10.0769 3.64222 11.2433 3.85517 12.2545 4.40724L12.9733 3.09067ZM8.7249 2.31566C7.26169 2.51897 5.90355 3.18658 4.85567 4.2197L5.90878 5.28786C6.72526 4.48288 7.78587 3.96055 8.93134 3.80139L8.7249 2.31566ZM4.87206 4.20402L1.73983 7.11069L2.76017 8.2102L5.89239 5.30353L4.87206 4.20402Z" fill="currentColor" />
</svg>
    