<svg width="346" height="116" viewBox="0 0 346 116" fill="none" xmlns="http://www.w3.org/2000/svg">
<path d="M336.4 116H9.6C6.23969 116 4.55953 116 3.27606 115.346C2.14708 114.771 1.2292 113.853 0.653961 112.724C0 111.44 0 109.76 0 106.4V9.6C0 6.23968 0 4.55953 0.653961 3.27606C1.2292 2.14708 2.14708 1.2292 3.27606 0.653961C4.55953 0 6.23969 0 9.6 0H336.4C339.76 0 341.44 0 342.724 0.653961C343.853 1.2292 344.771 2.14708 345.346 3.27606C346 4.55953 346 6.23968 346 9.6V106.4C346 109.76 346 111.44 345.346 112.724C344.771 113.853 343.853 114.771 342.724 115.346C341.44 116 339.76 116 336.4 116Z" fill="url(#paint0_linear)"/>
<defs>
<linearGradient id="paint0_linear" x1="173" y1="-4.2963" x2="173" y2="120.296" gradientUnits="userSpaceOnUse">
<stop stop-color="#4334A6"/>
<stop offset="1" stop-color="#8677F0"/>
</linearGradient>
</defs>
</svg>
