<svg width="546" height="288" viewBox="0 0 546 288" fill="none" xmlns="http://www.w3.org/2000/svg">
<mask id="mask0" mask-type="alpha" maskUnits="userSpaceOnUse" x="0" y="0" width="546" height="288">
<rect opacity="0.6" width="546" height="288" rx="6" fill="url(#paint0_linear)"/>
</mask>
<g mask="url(#mask0)">
<path opacity="0.5" d="M0.434085 94.3242L-1.24123 95.278C-7.44114 98.8121 -6.70742 105.061 0.421856 109.219L324.345 298.481C331.462 302.638 342.272 303.14 348.472 299.606L350.148 298.652C356.348 295.118 355.614 288.869 348.485 284.711L24.5611 95.4492C17.4441 91.2915 6.63399 90.7901 0.434085 94.3242Z" fill="url(#paint1_linear)"/>
<path opacity="0.5" d="M129.434 117.423L127.758 118.377C121.558 121.911 122.292 128.16 129.421 132.318L285.874 223.739C292.991 227.896 303.801 228.398 310.001 224.864L311.676 223.91C317.876 220.376 317.143 214.127 310.013 209.969L153.561 118.548C146.444 114.39 135.646 113.889 129.434 117.423Z" fill="url(#paint2_linear)"/>
<path opacity="0.5" d="M212.173 113.498L210.498 114.452C204.298 117.986 205.032 124.235 212.161 128.392L506.846 300.4C513.963 304.558 524.773 305.059 530.973 301.525L532.648 300.571C538.848 297.037 538.114 290.788 530.985 286.631L236.3 114.623C229.183 110.453 218.373 109.952 212.173 113.498Z" fill="url(#paint3_linear)"/>
<path opacity="0.5" d="M41.8278 -38.3077L40.1525 -37.3539C33.9526 -33.8198 34.6863 -27.571 41.8156 -23.4133L591.54 298.492C598.657 302.65 609.467 303.152 615.667 299.617L617.343 298.664C623.542 295.13 622.809 288.881 615.679 284.723L65.9548 -37.1827C58.8256 -41.3527 48.0277 -41.854 41.8278 -38.3077Z" fill="url(#paint4_linear)"/>
<path opacity="0.5" d="M9.16458 -209.129L7.48927 -208.175C1.28936 -204.641 2.02308 -198.392 9.15236 -194.235L626.99 167.169C634.107 171.327 644.917 171.829 651.117 168.295L652.793 167.341C658.993 163.807 658.259 157.558 651.129 153.4L33.2916 -208.004C26.1623 -212.162 15.3645 -212.675 9.16458 -209.129Z" fill="url(#paint5_linear)"/>
<path opacity="0.5" d="M147.593 -177.897L145.918 -176.944C139.718 -173.41 140.451 -167.161 147.581 -163.003L565.921 81.4345C573.038 85.5922 583.848 86.0936 590.048 82.5595L591.724 81.6057C597.923 78.0716 597.19 71.8228 590.06 67.6651L171.72 -176.772C164.603 -180.93 153.793 -181.432 147.593 -177.897Z" fill="url(#paint6_linear)"/>
<path opacity="0.5" d="M153.744 -25.1865L152.069 -24.2327C145.869 -20.6987 146.602 -14.4498 153.732 -10.2921L505.414 195.197C512.531 199.355 523.341 199.856 529.541 196.322L531.216 195.369C537.416 191.834 536.683 185.586 529.553 181.428L177.871 -24.0615C170.754 -28.2192 159.956 -28.7328 153.744 -25.1865Z" fill="url(#paint7_linear)"/>
<path opacity="0.5" d="M226.773 -34.7982L225.098 -33.8444C218.898 -30.3103 219.631 -24.0615 226.761 -19.9038L358.548 57.0997C365.665 61.2575 376.475 61.7588 382.675 58.2248L384.351 57.2709C390.551 53.7369 389.817 47.4881 382.688 43.3303L250.9 -33.6732C243.783 -37.8309 232.985 -38.3323 226.773 -34.7982Z" fill="url(#paint8_linear)"/>
<path opacity="0.5" d="M425.427 234.182C420.658 234.182 415.889 232.959 411.634 230.501L286.694 158.365C280.824 154.978 273.536 154.978 267.666 158.365L164.555 217.894C156.044 222.81 145.466 222.81 136.967 217.894L3.78516 141.025C1.74299 139.838 1.03373 137.222 2.2199 135.179C3.40608 133.137 6.023 132.428 8.06518 133.614L141.222 210.495C147.092 213.883 154.38 213.883 160.25 210.495L263.362 150.967C271.873 146.051 282.451 146.051 290.949 150.967L415.889 223.103C421.759 226.49 429.047 226.49 434.917 223.103L628.434 111.383C630.477 110.196 633.094 110.906 634.28 112.948C635.466 114.99 634.757 117.607 632.714 118.793L439.197 230.514C434.966 232.959 430.197 234.182 425.427 234.182Z" fill="url(#paint9_linear)"/>
<path d="M418.788 201.605L279.724 121.312C277.743 120.163 277.743 117.301 279.724 116.152L418.788 35.8588C422.86 33.5109 427.874 33.5109 431.946 35.8588L571.01 116.152C572.991 117.301 572.991 120.163 571.01 121.312L431.946 201.605C427.874 203.965 422.86 203.965 418.788 201.605Z" fill="#493AB7"/>
<path opacity="0.5" d="M425.367 192.458C423.557 192.458 421.735 191.994 420.121 191.064L300.904 122.242C299.645 121.508 298.886 120.212 298.886 118.757C298.886 117.301 299.645 116.005 300.904 115.271L420.109 46.4245C423.349 44.5535 427.372 44.5535 430.601 46.4245L549.817 115.247C551.077 115.969 551.835 117.277 551.835 118.732C551.835 120.187 551.077 121.496 549.817 122.217L430.613 191.04C428.987 191.994 427.177 192.458 425.367 192.458ZM421.943 187.873C424.058 189.083 426.675 189.083 428.766 187.873L547.971 119.05C548.093 118.977 548.154 118.879 548.154 118.744C548.154 118.61 548.093 118.5 547.971 118.439L428.754 49.6161C426.651 48.4055 424.034 48.3933 421.931 49.6161L302.726 118.439C302.604 118.512 302.543 118.61 302.543 118.744C302.543 118.879 302.604 118.989 302.726 119.05L421.943 187.873Z" fill="url(#paint10_linear)"/>
<path d="M426.867 175.487C425.939 176.023 424.795 176.023 423.867 175.487L330.081 121.342C328.081 120.187 328.081 117.301 330.081 116.146L423.855 62.0011C424.783 61.4652 425.926 61.4651 426.855 62.001L520.64 116.146C522.64 117.301 522.64 120.187 520.64 121.342L426.867 175.487Z" fill="#6C5DD3"/>
<path opacity="0.66" d="M419.962 164.039L346.175 121.435C343.191 119.711 343.558 116.702 347.006 114.709L419.118 73.0708C422.567 71.0775 427.788 70.8574 430.772 72.5817L504.56 115.186C507.543 116.91 507.177 119.919 503.728 121.912L431.616 163.55C428.155 165.543 422.946 165.764 419.962 164.039Z" fill="url(#paint11_linear)"/>
<path d="M346.162 121.435L352.644 125.177L419.118 86.8032C422.567 84.81 427.788 84.6021 430.772 86.3263L498.078 125.189L503.728 121.924C507.176 119.931 507.556 116.922 504.56 115.198L430.772 72.5936C427.788 70.8694 422.567 71.0895 419.118 73.0828L347.006 114.721C343.558 116.702 343.179 119.71 346.162 121.435Z" fill="#8171F3"/>
<path opacity="0.66" d="M436.177 -39.7381L435.419 -40.1784C432.606 -41.8048 430.32 -40.0805 430.32 -36.3263V146.537C430.32 150.291 432.606 154.656 435.419 156.283L436.177 156.723C438.99 158.349 441.277 156.625 441.277 152.871V-29.9919C441.277 -33.7461 438.99 -38.1117 436.177 -39.7381Z" fill="url(#paint12_linear)"/>
<path opacity="0.66" d="M456.733 7.30563L455.975 6.8654C453.162 5.239 450.876 6.96324 450.876 10.7174V134.882C450.876 138.636 453.162 143.002 455.975 144.628L456.733 145.068C459.546 146.695 461.832 144.97 461.832 141.216V17.0518C461.832 13.2854 459.546 8.93204 456.733 7.30563Z" fill="url(#paint13_linear)"/>
<path opacity="0.66" d="M477.29 62.8601L476.532 62.4198C473.719 60.7934 471.433 62.5177 471.433 66.2719V123.528C471.433 127.282 473.719 131.647 476.532 133.274L477.29 133.714C480.103 135.34 482.389 133.616 482.389 129.862V72.6063C482.402 68.8521 480.115 64.4865 477.29 62.8601Z" fill="url(#paint14_linear)"/>
<path opacity="0.66" d="M497.675 93.3459L496.917 92.9057C494.105 91.2793 491.818 93.0035 491.818 96.7577V112.175C491.818 115.929 494.105 120.295 496.917 121.921L497.675 122.362C500.488 123.988 502.775 122.264 502.775 118.51V103.092C502.775 99.3379 500.488 94.9723 497.675 93.3459Z" fill="url(#paint15_linear)"/>
<path opacity="0.66" d="M414.545 -39.7381L415.304 -40.1784C418.116 -41.8048 420.403 -40.0805 420.403 -36.3263V147.56C420.403 151.314 418.116 155.679 415.304 157.306L414.545 157.746C411.733 159.372 409.446 157.648 409.446 153.894V-29.9919C409.434 -33.7461 411.721 -38.1117 414.545 -39.7381Z" fill="url(#paint16_linear)"/>
<path opacity="0.66" d="M393.976 7.30563L394.735 6.8654C397.547 5.239 399.834 6.96324 399.834 10.7174V134.882C399.834 138.636 397.547 143.002 394.735 144.628L393.976 145.068C391.164 146.695 388.877 144.97 388.877 141.216V17.0518C388.877 13.2854 391.164 8.93204 393.976 7.30563Z" fill="url(#paint17_linear)"/>
<path opacity="0.66" d="M373.42 62.8595L374.178 62.4193C376.991 60.7929 379.278 62.5171 379.278 66.2713V123.527C379.278 127.281 376.991 131.647 374.178 133.273L373.42 133.713C370.608 135.34 368.321 133.616 368.321 129.861V72.6057C368.321 68.8515 370.608 64.4859 373.42 62.8595Z" fill="url(#paint18_linear)"/>
<path opacity="0.66" d="M353.047 93.3459L353.805 92.9057C356.618 91.2793 358.905 93.0035 358.905 96.7577V112.175C358.905 115.929 356.618 120.295 353.805 121.921L353.047 122.362C350.235 123.988 347.948 122.264 347.948 118.51V103.092C347.936 99.3379 350.222 94.9723 353.047 93.3459Z" fill="url(#paint19_linear)"/>
<path opacity="0.5" d="M506.564 -89.9734H344.143V118.316H344.168C344.082 119.478 344.718 120.615 346.161 121.435L419.949 164.039C422.932 165.763 428.154 165.543 431.602 163.562L503.714 121.924C505.512 120.884 506.454 119.576 506.539 118.316H506.551V-89.9734H506.564Z" fill="url(#paint20_linear)"/>
<path opacity="0.3" d="M171.414 209.089C172.392 210.813 171.793 213.014 170.069 213.993C168.345 214.971 166.143 214.372 165.165 212.648C164.187 210.923 164.786 208.722 166.51 207.744C168.234 206.753 170.423 207.353 171.414 209.089Z" fill="#D1CBFF"/>
<path opacity="0.6" d="M180.108 204.124C181.087 205.849 180.488 208.05 178.763 209.028C177.039 210.006 174.838 209.407 173.86 207.683C172.881 205.959 173.481 203.757 175.205 202.779C176.929 201.801 179.13 202.4 180.108 204.124Z" fill="#D1CBFF"/>
<path opacity="0.8" d="M188.816 199.172C189.794 200.896 189.195 203.097 187.471 204.075C185.747 205.054 183.545 204.454 182.567 202.73C181.589 201.006 182.188 198.805 183.912 197.826C185.637 196.836 187.838 197.447 188.816 199.172Z" fill="#D1CBFF"/>
<path d="M197.522 194.207C198.5 195.931 197.901 198.132 196.176 199.111C194.452 200.089 192.251 199.49 191.273 197.766C190.294 196.041 190.894 193.84 192.618 192.862C194.342 191.884 196.531 192.483 197.522 194.207Z" fill="#D1CBFF"/>
<path opacity="0.8" d="M206.216 189.254C207.194 190.979 206.595 193.18 204.871 194.158C203.147 195.136 200.946 194.537 199.967 192.813C198.989 191.089 199.588 188.887 201.312 187.909C203.037 186.931 205.238 187.53 206.216 189.254Z" fill="#D1CBFF"/>
<path opacity="0.6" d="M214.924 184.302C215.902 186.026 215.303 188.227 213.578 189.206C211.854 190.184 209.653 189.585 208.675 187.861C207.696 186.136 208.296 183.935 210.02 182.957C211.744 181.966 213.933 182.578 214.924 184.302Z" fill="#D1CBFF"/>
<path opacity="0.3" d="M223.618 179.337C224.596 181.061 223.997 183.262 222.273 184.241C220.549 185.219 218.348 184.62 217.369 182.896C216.391 181.171 216.99 178.97 218.714 177.992C220.439 177.014 222.64 177.613 223.618 179.337Z" fill="#D1CBFF"/>
<path d="M221.79 195.71C221.892 186.807 209.708 179.451 194.576 179.278C179.445 179.106 167.096 186.183 166.994 195.085C166.893 203.987 179.077 211.343 194.209 211.516C209.34 211.688 221.689 204.612 221.79 195.71Z" fill="url(#paint21_radial)"/>
<path opacity="0.3" d="M360.146 194.818C359.168 196.542 359.767 198.743 361.491 199.722C363.215 200.7 365.416 200.101 366.395 198.376C367.373 196.652 366.774 194.451 365.05 193.473C363.325 192.482 361.136 193.081 360.146 194.818Z" fill="#D1CBFF"/>
<path opacity="0.6" d="M351.451 189.853C350.473 191.577 351.072 193.778 352.797 194.757C354.521 195.735 356.722 195.136 357.7 193.412C358.679 191.687 358.079 189.486 356.355 188.508C354.631 187.53 352.43 188.129 351.451 189.853Z" fill="#D1CBFF"/>
<path opacity="0.8" d="M342.744 184.9C341.766 186.625 342.365 188.826 344.089 189.804C345.813 190.782 348.014 190.183 348.993 188.459C349.971 186.735 349.372 184.534 347.648 183.555C345.923 182.565 343.722 183.176 342.744 184.9Z" fill="#D1CBFF"/>
<path d="M334.038 179.936C333.06 181.66 333.659 183.861 335.383 184.839C337.108 185.818 339.309 185.219 340.287 183.494C341.265 181.77 340.666 179.569 338.942 178.591C337.218 177.612 335.029 178.212 334.038 179.936Z" fill="#D1CBFF"/>
<path opacity="0.8" d="M325.344 174.983C324.366 176.707 324.965 178.908 326.689 179.887C328.413 180.865 330.614 180.266 331.593 178.542C332.571 176.817 331.972 174.616 330.247 173.638C328.523 172.66 326.322 173.259 325.344 174.983Z" fill="#D1CBFF"/>
<path opacity="0.6" d="M316.636 170.031C315.658 171.755 316.257 173.956 317.981 174.935C319.706 175.913 321.907 175.314 322.885 173.589C323.863 171.865 323.264 169.664 321.54 168.686C319.816 167.695 317.627 168.307 316.636 170.031Z" fill="#D1CBFF"/>
<path opacity="0.3" d="M307.942 165.066C306.963 166.79 307.563 168.991 309.287 169.969C311.011 170.948 313.212 170.349 314.191 168.624C315.169 166.9 314.57 164.699 312.845 163.721C311.121 162.742 308.92 163.342 307.942 165.066Z" fill="#D1CBFF"/>
<path d="M309.769 181.438C309.668 172.536 321.852 165.18 336.984 165.007C352.115 164.835 364.464 171.911 364.566 180.814C364.667 189.716 352.483 197.072 337.351 197.245C322.22 197.417 309.871 190.34 309.769 181.438Z" fill="url(#paint22_radial)"/>
<path opacity="0.3" d="M464.736 209.928C465.714 211.652 465.115 213.853 463.391 214.832C461.667 215.81 459.465 215.211 458.487 213.487C457.509 211.762 458.108 209.561 459.832 208.583C461.556 207.592 463.745 208.192 464.736 209.928Z" fill="#D1CBFF"/>
<path opacity="0.6" d="M473.43 204.963C474.409 206.688 473.809 208.889 472.085 209.867C470.361 210.845 468.16 210.246 467.182 208.522C466.203 206.798 466.802 204.596 468.527 203.618C470.251 202.64 472.452 203.239 473.43 204.963Z" fill="#D1CBFF"/>
<path opacity="0.8" d="M482.138 200.011C483.116 201.735 482.517 203.936 480.793 204.914C479.069 205.893 476.867 205.293 475.889 203.569C474.911 201.845 475.51 199.644 477.234 198.665C478.958 197.675 481.16 198.286 482.138 200.011Z" fill="#D1CBFF"/>
<path d="M490.843 195.046C491.822 196.77 491.223 198.971 489.498 199.95C487.774 200.928 485.573 200.329 484.595 198.604C483.616 196.88 484.216 194.679 485.94 193.701C487.664 192.723 489.853 193.322 490.843 195.046Z" fill="#D1CBFF"/>
<path opacity="0.8" d="M499.538 190.093C500.516 191.818 499.917 194.019 498.193 194.997C496.469 195.975 494.267 195.376 493.289 193.652C492.311 191.928 492.91 189.726 494.634 188.748C496.359 187.77 498.56 188.369 499.538 190.093Z" fill="#D1CBFF"/>
<path opacity="0.6" d="M508.246 185.141C509.224 186.865 508.625 189.066 506.9 190.045C505.176 191.023 502.975 190.424 501.997 188.7C501.018 186.975 501.618 184.774 503.342 183.796C505.066 182.805 507.255 183.417 508.246 185.141Z" fill="#D1CBFF"/>
<path opacity="0.3" d="M516.94 180.176C517.918 181.9 517.319 184.101 515.595 185.08C513.871 186.058 511.67 185.459 510.691 183.735C509.713 182.01 510.312 179.809 512.036 178.831C513.761 177.853 515.962 178.452 516.94 180.176Z" fill="#D1CBFF"/>
<path d="M515.112 196.549C515.214 187.646 503.03 180.29 487.898 180.117C472.767 179.945 460.418 187.022 460.316 195.924C460.215 204.826 472.399 212.182 487.531 212.355C502.662 212.527 515.011 205.451 515.112 196.549Z" fill="url(#paint23_radial)"/>
</g>
<defs>
<linearGradient id="paint0_linear" x1="546" y1="45.0851" x2="8.47186e-07" y2="45.0851" gradientUnits="userSpaceOnUse">
<stop stop-color="#C4C4C4"/>
<stop offset="1" stop-color="#C4C4C4" stop-opacity="0"/>
</linearGradient>
<linearGradient id="paint1_linear" x1="349.314" y1="299.131" x2="175.507" y2="-5.54696" gradientUnits="userSpaceOnUse">
<stop stop-color="#9586FF" stop-opacity="0"/>
<stop offset="0.505208" stop-color="#9586FF"/>
<stop offset="0.984375" stop-color="#9586FF" stop-opacity="0"/>
</linearGradient>
<linearGradient id="paint2_linear" x1="313.189" y1="225.707" x2="220.407" y2="62.9164" gradientUnits="userSpaceOnUse">
<stop stop-color="#9586FF" stop-opacity="0"/>
<stop offset="0.505208" stop-color="#9586FF"/>
<stop offset="0.984375" stop-color="#9586FF" stop-opacity="0"/>
</linearGradient>
<linearGradient id="paint3_linear" x1="532.224" y1="301.283" x2="372.768" y2="21.4975" gradientUnits="userSpaceOnUse">
<stop stop-color="#9586FF" stop-opacity="0"/>
<stop offset="0.505208" stop-color="#9586FF"/>
<stop offset="0.984375" stop-color="#9586FF" stop-opacity="0"/>
</linearGradient>
<linearGradient id="paint4_linear" x1="613.345" y1="297.356" x2="329.377" y2="-199.169" gradientUnits="userSpaceOnUse">
<stop stop-color="#9586FF" stop-opacity="0"/>
<stop offset="0.505208" stop-color="#9586FF"/>
<stop offset="0.984375" stop-color="#9586FF" stop-opacity="0"/>
</linearGradient>
<linearGradient id="paint5_linear" x1="647.841" y1="165.502" x2="331.292" y2="-388.512" gradientUnits="userSpaceOnUse">
<stop stop-color="#9586FF" stop-opacity="0"/>
<stop offset="0.505208" stop-color="#9586FF"/>
<stop offset="0.984375" stop-color="#9586FF" stop-opacity="0"/>
</linearGradient>
<linearGradient id="paint6_linear" x1="589.567" y1="81.3421" x2="370.062" y2="-303.341" gradientUnits="userSpaceOnUse">
<stop stop-color="#9586FF" stop-opacity="0"/>
<stop offset="0.505208" stop-color="#9586FF"/>
<stop offset="0.984375" stop-color="#9586FF" stop-opacity="0"/>
</linearGradient>
<linearGradient id="paint7_linear" x1="529.994" y1="195.629" x2="342.739" y2="-132.578" gradientUnits="userSpaceOnUse">
<stop stop-color="#9586FF" stop-opacity="0"/>
<stop offset="0.505208" stop-color="#9586FF"/>
<stop offset="0.984375" stop-color="#9586FF" stop-opacity="0"/>
</linearGradient>
<linearGradient id="paint8_linear" x1="386.209" y1="59.2625" x2="305.37" y2="-82.6256" gradientUnits="userSpaceOnUse">
<stop stop-color="#9586FF" stop-opacity="0"/>
<stop offset="0.505208" stop-color="#9586FF"/>
<stop offset="0.984375" stop-color="#9586FF" stop-opacity="0"/>
</linearGradient>
<linearGradient id="paint9_linear" x1="625.983" y1="232.52" x2="582.38" y2="3.56431" gradientUnits="userSpaceOnUse">
<stop stop-color="#D1CBFF" stop-opacity="0"/>
<stop offset="0.505208" stop-color="#D1CBFF"/>
<stop offset="1" stop-color="#D1CBFF" stop-opacity="0"/>
</linearGradient>
<linearGradient id="paint10_linear" x1="548.291" y1="190.473" x2="426.339" y2="-23.582" gradientUnits="userSpaceOnUse">
<stop stop-color="#D1CBFF" stop-opacity="0"/>
<stop offset="0.505208" stop-color="#D1CBFF"/>
<stop offset="1" stop-color="#D1CBFF" stop-opacity="0"/>
</linearGradient>
<linearGradient id="paint11_linear" x1="425.367" y1="71.4195" x2="425.367" y2="165.202" gradientUnits="userSpaceOnUse">
<stop stop-color="#594AC4"/>
<stop offset="1" stop-color="#7364DB"/>
</linearGradient>
<linearGradient id="paint12_linear" x1="435.798" y1="-40.7908" x2="435.798" y2="195.187" gradientUnits="userSpaceOnUse">
<stop stop-color="#D1CBFF"/>
<stop offset="0.817708" stop-color="#D1CBFF" stop-opacity="0"/>
</linearGradient>
<linearGradient id="paint13_linear" x1="456.354" y1="6.25293" x2="456.354" y2="172.318" gradientUnits="userSpaceOnUse">
<stop stop-color="#D1CBFF"/>
<stop offset="0.817708" stop-color="#D1CBFF" stop-opacity="0"/>
</linearGradient>
<linearGradient id="paint14_linear" x1="476.911" y1="61.8074" x2="476.911" y2="148.181" gradientUnits="userSpaceOnUse">
<stop stop-color="#D1CBFF"/>
<stop offset="0.817708" stop-color="#D1CBFF" stop-opacity="0"/>
</linearGradient>
<linearGradient id="paint15_linear" x1="497.296" y1="92.2932" x2="497.296" y2="128.836" gradientUnits="userSpaceOnUse">
<stop stop-color="#D1CBFF"/>
<stop offset="0.817708" stop-color="#D1CBFF" stop-opacity="0"/>
</linearGradient>
<linearGradient id="paint16_linear" x1="414.924" y1="-40.7908" x2="414.924" y2="196.405" gradientUnits="userSpaceOnUse">
<stop stop-color="#D1CBFF"/>
<stop offset="0.817708" stop-color="#D1CBFF" stop-opacity="0"/>
</linearGradient>
<linearGradient id="paint17_linear" x1="394.355" y1="6.25293" x2="394.355" y2="172.318" gradientUnits="userSpaceOnUse">
<stop stop-color="#D1CBFF"/>
<stop offset="0.817708" stop-color="#D1CBFF" stop-opacity="0"/>
</linearGradient>
<linearGradient id="paint18_linear" x1="373.799" y1="61.8068" x2="373.799" y2="148.18" gradientUnits="userSpaceOnUse">
<stop stop-color="#D1CBFF"/>
<stop offset="0.817708" stop-color="#D1CBFF" stop-opacity="0"/>
</linearGradient>
<linearGradient id="paint19_linear" x1="353.426" y1="92.2932" x2="353.426" y2="128.836" gradientUnits="userSpaceOnUse">
<stop stop-color="#D1CBFF"/>
<stop offset="0.817708" stop-color="#D1CBFF" stop-opacity="0"/>
</linearGradient>
<linearGradient id="paint20_linear" x1="425.354" y1="-89.9734" x2="425.354" y2="165.202" gradientUnits="userSpaceOnUse">
<stop offset="0.338542" stop-color="#D1CBFF" stop-opacity="0"/>
<stop offset="1" stop-color="#D1CBFF"/>
</linearGradient>
<radialGradient id="paint21_radial" cx="0" cy="0" r="1" gradientUnits="userSpaceOnUse" gradientTransform="translate(194.392 195.397) rotate(0.65321) scale(27.3999 16.1198)">
<stop stop-color="#B7ADFF"/>
<stop offset="1" stop-color="#B7ADFF" stop-opacity="0"/>
</radialGradient>
<radialGradient id="paint22_radial" cx="0" cy="0" r="1" gradientUnits="userSpaceOnUse" gradientTransform="translate(337.167 181.126) rotate(179.347) scale(27.3999 16.1198)">
<stop stop-color="#B7ADFF"/>
<stop offset="1" stop-color="#B7ADFF" stop-opacity="0"/>
</radialGradient>
<radialGradient id="paint23_radial" cx="0" cy="0" r="1" gradientUnits="userSpaceOnUse" gradientTransform="translate(487.714 196.236) rotate(0.65321) scale(27.3999 16.1198)">
<stop stop-color="#B7ADFF"/>
<stop offset="1" stop-color="#B7ADFF" stop-opacity="0"/>
</radialGradient>
</defs>
</svg>
