<svg width="48" height="48" viewBox="0 0 48 48" fill="none" xmlns="http://www.w3.org/2000/svg">
<rect width="48" height="48" rx="6" fill="white" fill-opacity="0.1"/>
<path d="M32.2213 25.3V28.3044C32.2213 30.8977 28.5406 32.9999 24.0003 32.9999C19.46 32.9999 15.7793 30.8977 15.7793 28.3044V25.3" stroke="white" strokeWidth="1.5" strokeLinecap="round"/>
<path d="M32.2213 22.7001V25.7045C32.2213 28.2978 28.5406 30.4 24.0003 30.4C19.46 30.4 15.7793 28.2978 15.7793 25.7045V22.7001" stroke="white" strokeWidth="1.5" strokeLinecap="round"/>
<path d="M32.2213 20.1002V23.1046C32.2213 25.6978 28.5406 27.8001 24.0003 27.8001C19.46 27.8001 15.7793 25.6978 15.7793 23.1046V20.1002" stroke="white" strokeWidth="1.5" strokeLinecap="round"/>
<path d="M32.25 20.1002C32.25 21.1201 31.5131 22.1933 29.9942 23.054C28.4977 23.9021 26.38 24.4504 24 24.4504C21.62 24.4504 19.5023 23.9021 18.0058 23.054C16.4869 22.1933 15.75 21.1201 15.75 20.1002C15.75 19.0802 16.4869 18.007 18.0058 17.1463C19.5023 16.2982 21.62 15.7499 24 15.7499C26.38 15.7499 28.4977 16.2982 29.9942 17.1463C31.5131 18.007 32.25 19.0802 32.25 20.1002Z" stroke="white" strokeWidth="1.5" strokeLinecap="round"/>
<path opacity="0.5" d="M27.4835 18.5052C28.8491 18.8572 29.7254 19.4018 29.7254 20.0132C29.7254 20.8543 28.0669 21.5692 25.7573 21.8296" stroke="white" strokeWidth="1.5" strokeLinecap="round"/>
</svg>
