<svg width="48" height="48" viewBox="0 0 48 48" fill="none" xmlns="http://www.w3.org/2000/svg">
<rect width="48" height="48" rx="6" fill="white" fill-opacity="0.1"/>
<path d="M18.3981 16.1467C18.3981 15.9275 18.5758 15.7498 18.795 15.7498H29.2052C29.4244 15.7498 29.6021 15.9275 29.6021 16.1466V22.4105C29.6021 25.5044 27.094 28.0125 24.0001 28.0125C20.9062 28.0125 18.3981 25.5044 18.3981 22.4105V16.1467Z" stroke="white" strokeWidth="1.5" strokeLinecap="round"/>
<path opacity="0.5" d="M22.412 28.0652V32.2242M25.588 28.0652V32.2242" stroke="white" strokeWidth="1.5"/>
<path d="M19.7654 32.9398H28.2348" stroke="white" strokeWidth="1.5" strokeLinecap="round"/>
<path d="M29.8228 17.0044V17.0044C31.5768 17.0044 32.9988 18.4264 32.9988 20.1804V20.4074C32.9988 22.1615 31.5768 23.5834 29.8228 23.5834V23.5834" stroke="white" strokeWidth="1.5" strokeLinecap="round"/>
<path d="M18.1774 17.0044V17.0044C16.4233 17.0044 15.0014 18.4264 15.0014 20.1804V20.4074C15.0014 22.1615 16.4233 23.5834 18.1774 23.5834V23.5834" stroke="white" strokeWidth="1.5" strokeLinecap="round"/>
</svg>
