<svg width="546" height="288" viewBox="0 0 546 288" fill="none" xmlns="http://www.w3.org/2000/svg">
<mask id="mask0" mask-type="alpha" maskUnits="userSpaceOnUse" x="0" y="0" width="546" height="288">
<rect opacity="0.6" width="546" height="288" rx="6" fill="url(#paint0_linear)"/>
</mask>
<g mask="url(#mask0)">
<path opacity="0.4" d="M0.434237 94.3239L-1.24108 95.2778C-7.44098 98.8118 -6.70727 105.061 0.422009 109.218L324.345 298.48C331.463 302.638 342.273 303.14 348.473 299.606L350.148 298.652C356.348 295.118 355.614 288.869 348.485 284.711L24.5613 95.449C17.4442 91.2912 6.63414 90.7899 0.434237 94.3239Z" fill="url(#paint1_linear)"/>
<path opacity="0.4" d="M129.434 117.423L127.758 118.377C121.558 121.911 122.292 128.16 129.421 132.317L285.874 223.738C292.991 227.896 303.801 228.397 310.001 224.863L311.677 223.91C317.876 220.376 317.143 214.127 310.013 209.969L153.561 118.548C146.444 114.39 135.646 113.889 129.434 117.423Z" fill="url(#paint2_linear)"/>
<path opacity="0.4" d="M212.173 113.498L210.498 114.452C204.298 117.986 205.032 124.235 212.161 128.392L506.846 300.4C513.963 304.558 524.773 305.059 530.973 301.525L532.648 300.571C538.848 297.037 538.114 290.788 530.985 286.63L236.3 114.623C229.183 110.453 218.373 109.952 212.173 113.498Z" fill="url(#paint3_linear)"/>
<path opacity="0.4" d="M41.828 -38.308L40.1527 -37.3542C33.9528 -33.8201 34.6865 -27.5713 41.8157 -23.4135L591.54 298.492C598.657 302.65 609.467 303.151 615.667 299.617L617.343 298.663C623.543 295.129 622.809 288.881 615.68 284.723L65.955 -37.183C58.8257 -41.3529 48.0279 -41.8543 41.828 -38.308Z" fill="url(#paint4_linear)"/>
<path opacity="0.4" d="M9.16474 -209.129L7.48942 -208.175C1.28952 -204.641 2.02323 -198.393 9.15251 -194.235L626.99 167.169C634.107 171.327 644.917 171.828 651.117 168.294L652.793 167.34C658.993 163.806 658.259 157.558 651.13 153.4L33.2918 -208.004C26.1625 -212.162 15.3646 -212.676 9.16474 -209.129Z" fill="url(#paint5_linear)"/>
<path opacity="0.4" d="M147.593 -177.898L145.918 -176.944C139.718 -173.41 140.452 -167.161 147.581 -163.003L565.921 81.4342C573.038 85.592 583.848 86.0933 590.048 82.5593L591.724 81.6054C597.924 78.0714 597.19 71.8226 590.061 67.6648L171.72 -176.773C164.603 -180.93 153.793 -181.432 147.593 -177.898Z" fill="url(#paint6_linear)"/>
<path opacity="0.4" d="M153.744 -25.1868L152.069 -24.233C145.869 -20.6989 146.603 -14.4501 153.732 -10.2924L505.414 195.197C512.531 199.355 523.341 199.856 529.541 196.322L531.217 195.368C537.416 191.834 536.683 185.585 529.554 181.428L177.871 -24.0618C170.754 -28.2195 159.956 -28.7331 153.744 -25.1868Z" fill="url(#paint7_linear)"/>
<path opacity="0.4" d="M226.773 -34.7984L225.098 -33.8446C218.898 -30.3105 219.632 -24.0617 226.761 -19.904L358.548 57.0995C365.665 61.2572 376.476 61.7586 382.675 58.2245L384.351 57.2707C390.551 53.7366 389.817 47.4878 382.688 43.3301L250.9 -33.6734C243.783 -37.8311 232.985 -38.3325 226.773 -34.7984Z" fill="url(#paint8_linear)"/>
<path d="M535.826 162.904L524.803 169.919C523.645 169.879 522.469 169.868 521.26 169.913C496.56 170.842 467.16 189.318 455.61 211.171C454.881 212.536 454.251 213.891 453.691 215.22L443.33 221.818L453.92 238.668C458.232 245.53 467.082 249.541 479.429 249.071C504.129 248.143 533.528 229.666 545.078 207.813C550.849 196.88 551.082 187.179 546.769 180.316L535.826 162.904Z" fill="#1AA66B"/>
<path d="M481.968 183.692C470.739 191.045 461.143 200.72 455.611 211.171C454.882 212.536 454.251 213.891 453.691 215.22L443.33 221.818L453.92 238.668C458.233 245.531 467.083 249.541 479.429 249.071C491.246 248.619 504.125 244.17 515.621 237.241L481.968 183.692Z" fill="#25CD86"/>
<path d="M449.704 217.779L443.352 221.823L453.942 238.673C456.895 243.373 461.974 246.737 468.848 248.241L449.704 217.779Z" fill="#42E4A0"/>
<path d="M506.244 218.88C531.884 202.766 545.128 177.705 535.826 162.904C526.525 148.103 498.199 149.167 472.559 165.28C446.92 181.393 433.675 206.454 442.977 221.256C452.279 236.057 480.605 234.993 506.244 218.88Z" fill="#25CB85"/>
<path d="M534.15 190.393C522.6 212.246 493.2 230.722 468.5 231.651C456.761 232.088 448.203 228.486 443.693 222.254C447.743 229.752 456.835 234.204 469.804 233.726C494.504 232.797 523.904 214.321 535.454 192.468C541.522 180.982 541.455 170.859 536.442 163.965C540.098 170.753 539.631 180.026 534.15 190.393Z" fill="#3DDD9A"/>
<path d="M517.592 162.58L509.646 167.644C508.81 167.611 507.97 167.598 507.088 167.629C489.24 168.245 468.04 181.568 459.731 197.391C459.21 198.381 458.753 199.366 458.367 200.323L450.893 205.09L455.227 211.987C458.354 216.962 464.749 219.883 473.673 219.575C491.522 218.96 512.734 205.629 521.03 189.814C525.178 181.906 525.32 174.877 522.193 169.902L517.592 162.58Z" fill="#1AA76C"/>
<path d="M386.656 165.281C375.53 172.214 361.297 172.716 349.38 166.55L313.162 147.778C308.838 145.547 306.094 141.308 305.806 136.475C305.518 131.641 307.764 127.241 311.803 124.724L346.369 103.184L352.181 112.396L317.615 133.935C316.574 134.584 316.465 135.587 316.503 136.111C316.527 136.643 316.754 137.631 317.863 138.212L354.072 156.971C362.749 161.45 373.126 161.073 381.162 155.836L410.948 136.622L416.896 145.749L387.111 164.962C386.978 165.08 386.817 165.18 386.656 165.281Z" fill="#1DAA6F"/>
<path d="M509.909 87.7376C509.748 87.838 509.587 87.9383 509.438 88.031L479.061 106.307L473.385 97.0109L503.762 78.7349C511.985 73.8758 516.88 64.7004 516.595 54.9753L515.373 14.4134C515.33 13.1692 514.533 12.5359 514.063 12.282C513.592 12.0282 512.648 11.681 511.607 12.3295L477.041 33.8691L471.228 24.6578L505.795 3.11826C509.834 0.601449 514.798 0.508786 519.051 2.87187C523.304 5.23495 525.936 9.54339 526.085 14.3754L527.307 54.9373C527.677 68.2987 521.022 80.8125 509.909 87.7376Z" fill="#80EABD"/>
<path d="M515.848 35.4354L516.407 54.836C516.678 64.5772 511.76 73.7759 503.516 78.6561L473.057 97.0109L478.729 106.314L509.188 87.959C509.349 87.8582 509.511 87.7574 509.66 87.6644C519.71 81.3923 526.105 70.5827 527.012 58.7284C524.42 45.8253 519.061 38.6943 515.848 35.4354Z" fill="#1CA96E"/>
<path d="M457.009 180.191C470.585 179.857 486.628 169.851 492.845 157.84C499.061 145.83 493.094 136.361 479.518 136.695C465.942 137.029 449.899 147.035 443.683 159.046C437.466 171.056 443.433 180.525 457.009 180.191Z" fill="white"/>
<path d="M447.731 191.887C450.6 184.521 447.112 181.273 447.112 181.273L454.262 183.633C462.877 169.901 480.939 158.55 497.036 156.751L498.012 149.285C498.012 149.285 499.425 153.837 507.306 154.447C514.142 155.405 518.362 163.994 518.362 163.994L518.342 163.989C521.445 168.926 521.285 175.914 517.133 183.79C508.82 199.528 487.67 212.82 469.883 213.484C461.019 213.806 454.653 210.919 451.55 205.982C451.55 205.982 445.799 198.775 447.731 191.887Z" fill="#3DDD9A"/>
<path d="M496.932 162.605C496.932 162.605 483.692 162.957 482.938 161.757C482.828 161.582 482.823 161.132 482.897 160.528C487.59 158.589 492.402 157.257 497.061 156.735L498.036 149.27C498.036 149.27 499.45 153.822 507.331 154.431C514.033 155.719 518.387 163.978 518.387 163.978L518.367 163.973C520.063 166.673 520.752 169.989 520.374 173.715C520.076 173.047 516.026 164.328 508.306 165.5C500.266 166.718 496.932 162.605 496.932 162.605Z" fill="#1AA66B"/>
<path d="M460.81 186.053C474.386 185.779 490.376 175.821 496.527 163.81C502.678 151.799 496.657 142.282 483.081 142.557C469.505 142.831 453.516 152.788 447.365 164.799C441.214 176.81 447.234 186.327 460.81 186.053Z" fill="#1AA66B"/>
<path d="M475.093 22.9526C498.184 61.0421 482.052 77.4643 480.777 97.893C479.58 116.968 492.67 135.341 494.421 137.707C494.477 137.795 494.566 137.881 494.622 137.97C497.297 142.212 497.233 148.161 493.787 154.825C486.886 168.141 469.086 179.235 454.022 179.609C446.961 179.776 441.791 177.547 438.961 173.772L438.899 173.81L438.396 173.012C438.34 172.924 438.309 172.82 438.253 172.731C436.882 170.146 425.961 150.421 408.148 143.177C389.074 135.413 367.184 142.705 342.767 105.443L475.101 22.9653L475.093 22.9526Z" fill="#3BDA97"/>
<path d="M452.912 94.0877C452.912 94.0877 454.146 99.5196 457.298 115.272C460.45 131.025 482.937 161.757 482.937 161.757L491.528 157.143C492.223 156.113 492.883 155.053 493.448 153.983C496.975 147.303 497.106 141.38 494.474 137.192C494.419 137.105 494.331 137.02 494.276 136.933C492.549 134.601 479.654 116.497 481.059 97.4795C482.571 77.1051 498.918 60.5547 476.21 22.9511L468.897 27.5467L452.912 94.0877Z" fill="#1BA76C"/>
<path d="M483.77 17.4504L471.495 25.1646L477.206 34.252L495.169 22.9635C487.739 17.6064 483.77 17.4504 483.77 17.4504Z" fill="#1CA96E"/>
<path d="M434.124 104.011C470.738 81.1752 489.381 45.1494 475.765 23.5452C462.149 1.94093 421.43 2.93927 384.817 25.775C348.204 48.6108 329.561 84.6365 343.176 106.241C356.792 127.845 397.511 126.847 434.124 104.011Z" fill="#49E2A2"/>
<path d="M379.412 121.798C414.932 120.469 457.182 93.9172 473.786 62.4884C481.619 47.6789 482.341 34.4269 477.204 24.6995C484.535 34.617 484.693 49.269 475.915 65.8758C459.311 97.3046 417.061 123.857 381.54 125.186C362.769 125.893 349.644 119.407 343.88 108.487C350.429 117.327 362.675 122.412 379.412 121.798Z" fill="#8AEFC5"/>
<path d="M430.188 97.7479C460.905 78.5931 476.532 48.3552 465.09 30.2097C453.649 12.0643 419.473 12.8826 388.756 32.0374C358.039 51.1923 342.412 81.4302 353.853 99.5756C365.294 117.721 399.471 116.903 430.188 97.7479Z" fill="#1CA96E"/>
<path opacity="0.5" d="M384.597 113.405C397.077 113.036 410.52 108.899 422.934 102.299C423.29 98.7535 422.415 95.7339 419.788 93.5684C402.911 79.5447 382.152 41.5455 382.152 41.5455L370.875 46.8654C364.523 53.0663 359.191 59.8978 355.479 67.0718C341.762 93.5377 354.801 114.285 384.597 113.405Z" fill="#38D593"/>
<path d="M436.243 19.5664C406.27 20.427 370.807 42.7133 357.044 69.3395C350.561 81.8858 350.042 93.1577 354.446 101.496C348.158 92.9893 347.914 80.5053 355.208 66.4176C368.984 39.7836 404.446 17.4973 434.407 16.6445C450.251 16.1915 461.394 21.8254 466.345 31.1731C460.741 23.5885 450.352 19.1539 436.243 19.5664Z" fill="#8AEFC5"/>
<path opacity="0.5" d="M457.09 75.0863C442.535 92.5168 420.034 106.658 398.016 112.211C398.386 111.396 398.77 110.573 399.212 109.751C408.915 91.3863 433.611 75.866 454.367 75.088C455.286 75.0553 456.195 75.0666 457.09 75.0863Z" fill="#38D593"/>
<path d="M437.648 172.156C437.487 171.846 437.177 171.272 436.725 170.501C439.62 174.154 444.736 176.332 451.673 176.177C466.812 175.843 484.659 164.701 491.542 151.286C494.626 145.274 494.968 139.832 493.074 135.678C493.487 136.277 493.794 136.71 493.989 136.963C494.045 137.053 494.135 137.14 494.191 137.229C496.898 141.518 496.858 147.521 493.421 154.235C486.538 167.651 468.691 178.793 453.551 179.126C446.455 179.274 441.249 177.01 438.389 173.192L438.327 173.231L437.818 172.424C437.736 172.35 437.704 172.245 437.648 172.156Z" fill="#8AEFC5"/>
<path d="M353.857 156.967L317.817 138.797C317.175 138.468 316.831 138.004 316.663 137.569C316.802 138.179 316.696 138.926 316.272 139.75C315.107 141.947 312.145 143.809 309.652 143.893C308.799 143.924 308.116 143.725 307.626 143.388C308.884 145.474 310.693 147.215 312.988 148.37L349.036 166.553C355.05 169.574 361.679 170.883 368.205 170.53L368.23 170.515C366.988 170.563 366.026 169.616 365.782 167.868C365.427 165.249 366.822 161.809 368.906 160.186C369.22 159.936 369.54 159.753 369.839 159.617C364.457 160.349 358.873 159.482 353.857 156.967Z" fill="#7CE8BA"/>
<path d="M449.265 96.137C451.826 94.5275 452.598 91.1464 450.988 88.5852C449.379 86.024 445.998 85.2525 443.436 86.8621C440.875 88.4717 440.104 91.8528 441.713 94.414C443.323 96.9752 446.704 97.7466 449.265 96.137Z" fill="white"/>
<path d="M449.359 78.1695C450.106 79.357 449.748 80.9244 448.561 81.6707C447.373 82.417 445.806 82.0593 445.059 80.8718C444.313 79.6844 444.671 78.117 445.858 77.3707C447.054 76.6369 448.621 76.9945 449.359 78.1695Z" fill="white"/>
<path d="M450.485 104.959C451.766 106.997 451.153 109.684 449.115 110.964C447.078 112.244 444.391 111.631 443.11 109.594C441.83 107.556 442.443 104.87 444.48 103.589C446.518 102.309 449.205 102.922 450.485 104.959Z" fill="white"/>
<path d="M449.229 119.332C449.975 120.519 449.617 122.087 448.43 122.833C447.242 123.579 445.675 123.222 444.929 122.034C444.182 120.847 444.54 119.279 445.728 118.533C446.903 117.795 448.482 118.144 449.229 119.332Z" fill="white"/>
<path d="M448.934 69.4738C449.35 70.1363 449.15 71.0116 448.488 71.428C447.825 71.8443 446.95 71.6446 446.534 70.9821C446.117 70.3196 446.317 69.4443 446.979 69.028C447.642 68.6116 448.517 68.8113 448.934 69.4738Z" fill="white"/>
<path d="M420.892 85.4235L445.523 94.2339L471.415 96.9506L446.685 88.8133L420.892 85.4235Z" fill="white"/>
<path d="M421.01 38.8143L420.193 38.5185C419.976 36.3474 418.944 34.0152 417.038 31.6754C410.969 24.2338 398.319 19.6551 388.781 21.4472C385.783 22.0122 383.451 23.1396 381.854 24.6407L381.036 24.3449L379.776 27.6983C378.636 30.7329 379.456 34.464 382.489 38.1906C388.557 45.6322 401.207 50.2109 410.746 48.4188C415.517 47.5169 418.598 45.1982 419.739 42.1636L420.999 38.8102L421.01 38.8143Z" fill="#078952"/>
<path d="M411.032 48.4812C415.702 47.5895 418.73 45.2954 419.846 42.3219L421.089 39.0103L420.283 38.7182C420.093 36.8876 419.327 34.9411 417.935 32.9797L416.969 32.63L411.021 48.477L411.032 48.4812Z" fill="#078952"/>
<g opacity="0.4">
<path d="M420.143 38.3744C420.073 37.8647 419.955 37.3508 419.795 36.8209L416.161 46.6355C416.629 46.336 417.053 46.0206 417.439 45.6777L420.143 38.3744Z" fill="#15A468"/>
<path d="M388.969 21.5108C387.657 21.7652 386.477 22.1477 385.425 22.603L380.65 35.2115C380.825 35.5698 381.016 35.9204 381.218 36.2751L386.391 22.614L388.008 23.1946L382.4 38.0031C382.469 38.0949 382.549 38.1908 382.618 38.2827C382.76 38.4546 382.913 38.6305 383.066 38.8065L388.862 23.5013L390.479 24.0819L384.374 40.2033C384.61 40.4356 384.849 40.6561 385.089 40.8766L391.329 24.4004L392.946 24.981L386.487 42.0368C386.736 42.2336 386.989 42.4186 387.242 42.6037L393.8 25.2877L395.417 25.8683L388.703 43.5982C388.965 43.7596 389.227 43.921 389.489 44.0823L396.267 26.1868L397.884 26.7674L391.003 44.935C391.275 45.0727 391.546 45.2104 391.817 45.3481L398.733 27.0859L400.35 27.6665L393.38 46.0707C393.661 46.1847 393.941 46.2988 394.221 46.4128L401.204 27.9732L402.821 28.5538L395.834 47.0053C396.118 47.1075 396.407 47.1979 396.697 47.2883L403.675 28.8605L405.292 29.4411L398.358 47.7506C398.652 47.8292 398.95 47.8959 399.248 47.9627L406.151 29.736L407.768 30.3166L400.955 48.3068C401.257 48.3617 401.564 48.4048 401.872 48.4478L408.622 30.6233L410.239 31.2039L403.632 48.65C403.943 48.6812 404.259 48.7006 404.58 48.7082L411.093 31.5106L412.71 32.0912L406.403 48.7448C406.728 48.7406 407.069 48.7286 407.387 48.7084L413.564 32.3979L415.181 32.9785L409.291 48.5321C409.645 48.4846 409.988 48.4331 410.324 48.3656L416.035 33.2851L417.652 33.8658L412.344 47.8818C412.737 47.7674 413.111 47.6331 413.462 47.4906L418.511 34.1606L418.659 34.2138C418.19 33.3334 417.61 32.4398 416.898 31.5527C415.507 29.8304 413.759 28.2623 411.769 26.8895L395.941 21.2059C393.551 20.9927 391.181 21.0687 388.969 21.5108Z" fill="#15A468"/>
<path d="M382.661 23.6778C382.32 23.9325 382 24.1952 381.709 24.4813L381.47 24.3939L379.249 30.3863C379.259 30.9919 379.334 31.6213 379.482 32.2515L382.661 23.6778Z" fill="#15A468"/>
</g>
<path d="M411.964 45.1256C402.425 46.9177 389.775 42.339 383.707 34.8975C377.638 27.4559 380.455 19.958 389.999 18.1541C399.537 16.362 412.187 20.9407 418.256 28.3822C424.32 35.8356 421.507 43.3217 411.964 45.1256Z" fill="#7AE6B9"/>
<path opacity="0.2" d="M404.62 35.2857C411.643 33.9635 415.015 29.5483 413.899 24.34C407.248 19.3823 397.583 16.7019 389.922 18.1555C382.899 19.4777 379.527 23.8929 380.643 29.1012C387.306 34.063 396.964 36.7275 404.62 35.2857Z" fill="white"/>
<path opacity="0.7" d="M412.089 45.0656C402.52 46.8726 389.829 42.2588 383.739 34.7591C380.793 31.1328 379.948 27.4999 380.924 24.5022C379.607 27.6056 380.37 31.4927 383.508 35.378C389.597 42.8777 402.288 47.4914 411.858 45.6845C416.799 44.7498 419.943 42.2698 420.984 39.0656C419.765 41.9751 416.718 44.1933 412.089 45.0656Z" fill="white"/>
<path d="M408.782 41.2096C402.012 42.4882 393.022 39.2344 388.72 33.9479C384.417 28.6614 386.414 23.3479 393.184 22.0693C399.954 20.7907 408.943 24.0446 413.246 29.3311C417.548 34.6176 415.551 39.931 408.782 41.2096Z" fill="#1EAD71"/>
<path d="M392.813 22.8726C399.604 21.5838 408.622 24.8618 412.939 30.1884C414.966 32.6957 415.6 35.2102 415 37.3036C416.032 35.0702 415.514 32.2463 413.229 29.415C408.912 24.0884 399.894 20.8104 393.102 22.0992C389.504 22.778 387.246 24.6064 386.56 26.9658C387.487 24.978 389.625 23.4709 392.813 22.8726Z" fill="#078952"/>
<path d="M409.456 30.1941L408.232 30.113L408.494 30.3553L407.184 30.6052C406.474 29.8522 405.649 29.2991 404.713 28.9737C403.781 28.6364 402.813 28.5678 401.815 28.756C401.421 28.8282 401.081 28.9331 400.799 29.0587C400.516 29.1844 400.303 29.335 400.138 29.53C399.978 29.7133 399.856 29.8972 399.778 30.07C399.7 30.2429 399.627 30.4712 399.557 30.7273L399.298 31.7997C399.222 32.1072 399.144 32.3474 399.05 32.5278C398.956 32.7083 398.805 32.8679 398.591 33.0186C398.378 33.1692 398.1 33.283 397.75 33.3442C397.133 33.4559 396.671 33.329 396.364 32.9632C396.132 32.678 396.135 32.4246 396.382 32.2192C396.63 32.0137 397.145 31.8249 397.952 31.661L398.24 30.894L397.159 30.9184L396.035 29.8413C395.011 30.0607 394.295 30.3648 393.881 30.7376L393.798 30.5064L393.514 31.2616C393.319 31.7808 393.519 32.4297 394.099 33.2161L393.45 33.3431L392.854 32.7387L392.566 33.5056L393.075 34.1323L394.636 33.8393C395.288 34.5042 396.085 34.9934 397.014 35.3029C397.948 35.6006 398.837 35.6678 399.694 35.5088C400.119 35.4213 400.487 35.313 400.806 35.1603C401.109 35.0152 401.363 34.8257 401.544 34.623C401.729 34.4085 401.875 34.1933 401.982 33.9775C402.09 33.7616 402.183 33.5138 402.262 33.2341L402.531 32.2055C402.595 32.0007 402.636 31.855 402.672 31.7606C402.707 31.6662 402.763 31.5523 402.86 31.3996C402.956 31.2469 403.079 31.1303 403.238 31.0539C403.402 30.9658 403.596 30.9019 403.847 30.8588C404.099 30.8158 404.371 30.8206 404.661 30.8852C404.95 30.9497 405.174 31.0843 405.341 31.2655C405.423 31.3619 405.481 31.4501 405.505 31.5257C405.526 31.5736 405.508 31.6208 405.491 31.668L404.286 31.5001L403.998 32.2671L405.874 34.1257C406.102 34.0743 406.308 34.0146 406.493 33.9743C406.682 33.9222 406.876 33.8584 407.095 33.7633C407.309 33.68 407.489 33.5842 407.634 33.4759C407.775 33.3794 407.902 33.251 408.021 33.1066C408.076 33.0323 408.114 32.9657 408.145 32.8831L408.149 32.8713L408.154 32.8595L408.451 32.0689L408.141 32.0238L408.134 32.0079C408.051 31.7768 407.922 31.529 407.724 31.2562L409.175 30.9771L409.468 30.1983L409.456 30.1941Z" fill="#65DBAA"/>
<path d="M392.853 32.7868L394.387 32.4855C393.739 31.618 393.581 30.8993 393.894 30.3493C394.207 29.7992 395.019 29.3743 396.354 29.0827L398.257 30.9004C397.466 31.0627 396.939 31.2519 396.686 31.472C396.437 31.6803 396.432 31.9351 396.663 32.2205C396.962 32.5983 397.423 32.7229 398.045 32.5946C398.394 32.5308 398.673 32.4145 398.887 32.2616C399.102 32.1087 399.258 31.9352 399.349 31.765C399.444 31.5829 399.523 31.3408 399.601 31.0311L399.867 29.9508C399.928 29.6886 400.009 29.4745 400.093 29.2883C400.172 29.1139 400.294 28.9281 400.46 28.7309C400.622 28.5455 400.84 28.3807 401.123 28.2525C401.407 28.1242 401.735 28.0125 402.14 27.9414C403.128 27.7414 404.089 27.816 405.034 28.1413C405.963 28.4744 406.787 29.0134 407.492 29.7661L408.955 29.48L409.471 30.1111L408.02 30.4013C408.204 30.6703 408.343 30.9227 408.424 31.1547C408.506 31.3866 408.53 31.5979 408.506 31.7649C408.481 31.9319 408.418 32.0985 408.309 32.2486C408.2 32.3987 408.073 32.5287 407.92 32.6225C407.779 32.7205 407.598 32.818 407.379 32.9151C407.165 33.0003 406.966 33.0777 406.776 33.1313C406.587 33.1849 406.386 33.2344 406.157 33.2876L404.295 31.4306C404.508 31.3852 404.681 31.3394 404.823 31.3091C404.965 31.2788 405.1 31.2326 405.246 31.1904C405.392 31.1483 405.504 31.0938 405.572 31.0507C405.645 30.9958 405.714 30.9528 405.752 30.8855C405.802 30.8223 405.813 30.7587 405.794 30.6709C405.771 30.595 405.725 30.5108 405.633 30.4102C405.471 30.2172 405.244 30.0952 404.955 30.0322C404.667 29.9692 404.394 29.9661 404.143 30.0111C403.903 30.0601 403.697 30.1215 403.533 30.2113C403.369 30.301 403.246 30.4191 403.153 30.5614C403.055 30.7156 402.999 30.8305 402.963 30.9257C402.926 31.0208 402.884 31.1677 402.819 31.3741L402.543 32.4104C402.462 32.6923 402.367 32.9421 402.259 33.1599C402.15 33.3777 402.003 33.5951 401.816 33.8121C401.63 34.029 401.379 34.2094 401.076 34.3573C400.772 34.5052 400.4 34.6284 399.963 34.7151C399.106 34.8806 398.217 34.8188 397.287 34.5255C396.356 34.2322 395.575 33.7495 394.921 33.0691L393.36 33.374L392.853 32.7868Z" fill="#D7F3E7"/>
<path d="M443.498 147.344L442.634 148.181C439.794 147.102 436.259 146.941 432.184 147.865C419.222 150.814 405.842 163.759 402.295 176.782C401.183 180.875 401.175 184.489 402.08 187.416L401.215 188.252L404.635 191.911C407.729 195.221 412.881 196.517 419.368 195.049C432.33 192.1 445.71 179.155 449.257 166.132C451.024 159.614 450 154.325 446.905 151.015L443.486 147.356L443.498 147.344Z" fill="#078952"/>
<path d="M449.608 165.717C451.316 159.371 450.29 154.193 447.265 150.966L443.897 147.373L443.048 148.193C440.657 147.295 437.775 147.04 434.496 147.553L433.479 148.534L449.596 165.728L449.608 165.717Z" fill="#078952"/>
<g opacity="0.4">
<path d="M442.5 148.02C441.82 147.79 441.105 147.616 440.344 147.488L450.413 158.174C450.323 157.4 450.187 156.67 449.993 155.972L442.5 148.02Z" fill="#15A468"/>
<path d="M402.403 176.631C401.922 178.437 401.682 180.157 401.611 181.762L414.48 195.624C415.035 195.629 415.59 195.608 416.157 195.576L402.213 180.556L403.925 178.888L419.04 195.17C419.197 195.141 419.365 195.1 419.522 195.071C419.824 195 420.137 194.918 420.451 194.835L404.829 178.007L406.541 176.34L422.996 194.065C423.43 193.914 423.852 193.751 424.274 193.587L407.457 175.472L409.169 173.804L426.578 192.557C426.976 192.367 427.361 192.165 427.747 191.962L410.073 172.924L411.785 171.256L429.882 190.75C430.243 190.521 430.605 190.292 430.967 190.064L412.701 170.388L414.413 168.72L432.956 188.695C433.294 188.441 433.632 188.186 433.969 187.932L415.329 167.853L417.041 166.185L435.826 186.42C436.139 186.139 436.453 185.859 436.766 185.578L417.945 165.304L419.657 163.637L438.49 183.924C438.792 183.63 439.081 183.323 439.37 183.017L420.561 162.756L422.273 161.088L440.961 181.219C441.238 180.9 441.504 180.567 441.769 180.234L423.165 160.194L424.877 158.527L443.239 178.307C443.492 177.961 443.733 177.602 443.974 177.244L425.781 157.646L427.493 155.978L445.3 175.16C445.529 174.788 445.746 174.404 445.95 174.006L428.397 155.098L430.109 153.43L447.107 171.74C447.3 171.33 447.492 170.894 447.661 170.482L431.013 152.549L432.725 150.882L448.6 167.982C448.757 167.508 448.901 167.045 449.021 166.581L433.629 150.001L435.341 148.333L449.647 163.743C449.743 163.179 449.803 162.626 449.838 162.095L436.233 147.439L436.389 147.287C435.002 147.326 433.531 147.496 431.987 147.836C428.983 148.508 425.956 149.724 423.026 151.365L406.269 167.689C404.546 170.556 403.197 173.579 402.403 176.631Z" fill="#15A468"/>
<path d="M401.271 185.903C401.382 186.49 401.516 187.055 401.697 187.599L401.442 187.844L407.588 194.373C408.352 194.738 409.185 195.037 410.064 195.244L401.271 185.903Z" fill="#15A468"/>
</g>
<path d="M445.897 162.596C442.351 175.619 428.97 188.564 416.008 191.514C403.046 194.463 395.401 186.283 398.936 173.247C402.483 160.224 415.863 147.279 428.825 144.33C441.799 141.393 449.432 149.561 445.897 162.596Z" fill="#7AE6B9"/>
<path opacity="0.2" d="M429.154 165.684C431.762 156.093 428.298 149.137 421.123 147.292C410.905 152.513 401.702 162.913 398.871 173.382C396.262 182.973 399.727 189.929 406.901 191.774C417.131 186.541 426.311 176.14 429.154 165.684Z" fill="white"/>
<path opacity="0.7" d="M445.911 162.328C442.362 175.417 428.889 188.406 415.815 191.343C409.492 192.766 404.436 191.558 401.281 188.469C404.361 192.051 409.685 193.519 416.448 192.018C429.522 189.081 442.995 176.092 446.545 163.003C448.375 156.245 447.183 150.768 443.808 147.47C446.706 150.807 447.631 155.998 445.911 162.328Z" fill="white"/>
<path d="M439.084 164.134C436.575 173.38 427.067 182.58 417.864 184.664C408.661 186.748 403.243 180.952 405.752 171.705C408.261 162.458 417.769 153.259 426.972 151.174C436.175 149.09 441.593 154.887 439.084 164.134Z" fill="#1EAD71"/>
<path d="M406.519 172.715C409.03 163.422 418.603 154.192 427.883 152.116C432.248 151.145 435.777 151.921 438.031 153.975C435.865 151.292 432.019 150.18 427.092 151.272C417.811 153.349 408.239 162.578 405.728 171.871C404.392 176.793 405.308 180.755 407.841 183.082C405.919 180.684 405.332 177.073 406.519 172.715Z" fill="#078952"/>
<path d="M425.751 156.44L424.907 157.917L425.368 157.741L424.886 159.531C423.517 159.95 422.327 160.635 421.353 161.602C420.368 162.555 419.696 163.72 419.325 165.084C419.177 165.62 419.102 166.109 419.087 166.54C419.073 166.971 419.131 167.331 419.275 167.658C419.406 167.972 419.562 168.238 419.73 168.443C419.898 168.648 420.139 168.88 420.416 169.127L421.596 170.118C421.933 170.404 422.186 170.65 422.354 170.879C422.522 171.109 422.629 171.397 422.688 171.757C422.746 172.117 422.72 172.535 422.584 173.01C422.349 173.85 421.911 174.347 421.269 174.503C420.772 174.616 420.458 174.454 420.352 174.018C420.246 173.582 420.322 172.821 420.607 171.712L419.825 170.875L419.2 172.24L417.176 172.974C416.829 174.388 416.774 175.47 416.988 176.219L416.649 176.179L417.419 177.003C417.948 177.569 418.879 177.723 420.212 177.487L419.977 178.376L418.861 178.745L419.643 179.582L420.734 179.335L421.314 177.205C422.539 176.804 423.632 176.114 424.581 175.147C425.518 174.166 426.141 173.098 426.462 171.929C426.611 171.344 426.698 170.818 426.701 170.325C426.704 169.857 426.622 169.422 426.478 169.07C426.323 168.705 426.143 168.389 425.939 168.121C425.735 167.853 425.482 167.583 425.181 167.31L424.062 166.335C423.845 166.128 423.688 165.985 423.592 165.882C423.496 165.779 423.388 165.638 423.256 165.423C423.124 165.207 423.053 164.982 423.054 164.736C423.043 164.476 423.081 164.195 423.18 163.854C423.279 163.513 423.45 163.176 423.706 162.855C423.962 162.534 424.265 162.338 424.593 162.242C424.762 162.2 424.908 162.182 425.016 162.2C425.089 162.203 425.137 162.254 425.185 162.306L424.246 163.705L425.028 164.542L428.483 163.355C428.557 163.038 428.607 162.745 428.669 162.489C428.719 162.22 428.757 161.938 428.771 161.606C428.797 161.287 428.786 161.003 428.739 160.754C428.704 160.518 428.621 160.28 428.513 160.041C428.454 159.927 428.394 159.838 428.309 159.748L428.297 159.735L428.285 159.723L427.479 158.86L427.235 159.219L427.211 159.218C426.873 159.178 426.485 159.185 426.025 159.262L426.557 157.277L425.763 156.428L425.751 156.44Z" fill="#65DBAA"/>
<path d="M418.922 178.784L419.476 176.682C418.002 176.951 417.01 176.701 416.513 175.968C416.017 175.236 415.979 173.958 416.424 172.11L419.845 170.865C419.568 171.953 419.484 172.729 419.606 173.182C419.715 173.621 420.03 173.786 420.525 173.676C421.178 173.537 421.613 173.039 421.83 172.183C421.962 171.707 421.986 171.287 421.925 170.924C421.864 170.562 421.743 170.258 421.586 170.039C421.416 169.807 421.162 169.558 420.823 169.268L419.637 168.264C419.346 168.026 419.129 167.791 418.947 167.571C418.777 167.364 418.62 167.095 418.475 166.765C418.341 166.449 418.268 166.073 418.28 165.64C418.291 165.207 418.351 164.727 418.508 164.177C418.857 162.82 419.533 161.666 420.512 160.689C421.49 159.737 422.662 159.043 424.028 158.631L424.558 156.627L425.658 156.375L425.141 158.367C425.588 158.304 425.987 158.288 426.326 158.33C426.664 158.373 426.942 158.474 427.136 158.608C427.33 158.742 427.499 158.925 427.62 159.154C427.741 159.384 427.826 159.624 427.851 159.873C427.887 160.11 427.9 160.396 427.888 160.73C427.864 161.051 427.84 161.347 427.792 161.617C427.744 161.887 427.684 162.169 427.612 162.487L424.167 163.657C424.239 163.363 424.287 163.118 424.335 162.922C424.383 162.726 424.407 162.529 424.443 162.321C424.479 162.112 424.479 161.938 424.467 161.826C424.443 161.701 424.43 161.589 424.37 161.499C424.321 161.397 424.249 161.344 424.128 161.313C424.019 161.295 423.886 161.3 423.705 161.353C423.366 161.434 423.076 161.642 422.823 161.963C422.569 162.284 422.4 162.622 422.304 162.964C422.219 163.294 422.171 163.589 422.184 163.85C422.196 164.111 422.269 164.338 422.39 164.542C422.523 164.76 422.632 164.902 422.729 165.006C422.826 165.11 422.983 165.255 423.201 165.465L424.327 166.453C424.629 166.729 424.884 167.003 425.089 167.274C425.295 167.545 425.477 167.864 425.635 168.232C425.792 168.6 425.865 169.025 425.866 169.496C425.866 169.966 425.794 170.508 425.638 171.107C425.324 172.28 424.709 173.351 423.779 174.33C422.849 175.31 421.773 175.984 420.528 176.377L419.962 178.516L418.922 178.784Z" fill="#D7F3E7"/>
<path d="M427.815 243.818L426.723 243.799C425.589 241.282 423.42 238.908 420.208 236.885C409.985 230.453 393.084 230.174 382.453 236.26C379.113 238.175 376.791 240.491 375.495 242.952L374.403 242.934L374.255 247.481C374.121 251.595 376.602 255.736 381.713 258.96C391.936 265.391 408.838 265.671 419.469 259.584C424.785 256.533 427.517 252.478 427.651 248.364L427.799 243.817L427.815 243.818Z" fill="#078952"/>
<path d="M419.935 259.538C425.113 256.558 427.78 252.573 427.908 248.559L428.049 244.09L426.976 244.071C426.014 241.96 424.323 239.947 421.883 238.172L420.598 238.15L419.92 259.538L419.935 259.538Z" fill="#078952"/>
<g opacity="0.4">
<path d="M426.713 243.616C426.424 243.031 426.076 242.461 425.67 241.889L425.292 255.22C425.73 254.665 426.11 254.109 426.433 253.536L426.713 243.616Z" fill="#15A468"/>
<path d="M382.636 236.229C381.17 237.08 379.915 238.03 378.841 239.015L378.228 256.185C378.582 256.545 378.951 256.888 379.336 257.231L380 238.627L382.168 238.656L381.448 258.823C381.567 258.905 381.702 258.987 381.821 259.069C382.06 259.218 382.314 259.366 382.569 259.514L383.313 238.672L385.48 238.7L384.696 260.655C385.072 260.837 385.448 261.003 385.823 261.169L386.624 238.732L388.792 238.761L387.963 261.987C388.34 262.121 388.717 262.239 389.095 262.357L389.937 238.776L392.104 238.805L391.242 262.95C391.621 263.035 392 263.121 392.378 263.206L393.248 238.836L395.416 238.865L394.533 263.606C394.913 263.659 395.292 263.713 395.672 263.766L396.56 238.896L398.728 238.925L397.833 263.988C398.214 264.009 398.595 264.03 398.976 264.052L399.872 238.94L402.04 238.969L401.143 264.097C401.525 264.102 401.907 264.091 402.289 264.08L403.185 238.984L405.352 239.013L404.462 263.947C404.845 263.92 405.228 263.877 405.612 263.834L406.498 239.012L408.665 239.041L407.791 263.541C408.174 263.481 408.559 263.406 408.943 263.33L409.81 239.056L411.978 239.085L411.129 262.844C411.514 262.752 411.9 262.644 412.286 262.521L413.122 239.101L415.29 239.129L414.48 261.809C414.867 261.669 415.27 261.513 415.642 261.357L416.435 239.145L418.602 239.173L417.846 260.355C418.25 260.151 418.639 259.946 419.014 259.726L419.747 239.189L421.914 239.218L421.233 258.305C421.656 258.004 422.049 257.687 422.412 257.37L423.06 239.217L423.258 239.219C422.342 238.353 421.288 237.517 420.079 236.744C417.719 235.246 414.997 234.082 412.064 233.253L390.846 232.97C387.903 233.705 385.101 234.779 382.636 236.229Z" fill="#15A468"/>
<path d="M375.971 241.456C375.666 241.905 375.39 242.354 375.158 242.819L374.837 242.813L374.603 250.953C374.859 251.679 375.203 252.406 375.636 253.104L375.971 241.456Z" fill="#15A468"/>
</g>
<path d="M419.582 255.159C408.951 261.246 392.05 260.967 381.827 254.535C371.604 248.104 371.935 237.939 382.566 231.836C393.197 225.749 410.099 226.029 420.322 232.46C430.544 238.908 430.214 249.057 419.582 255.159Z" fill="#7AE6B9"/>
<path opacity="0.2" d="M406.847 246.391C414.673 241.906 416.907 235.213 413.478 229.419C403.562 226.21 390.978 226.978 382.445 231.884C374.618 236.369 372.385 243.063 375.813 248.856C385.745 252.066 398.314 251.281 406.847 246.391Z" fill="white"/>
<path opacity="0.7" d="M419.748 254.99C409.075 261.119 392.09 260.808 381.805 254.295C376.829 251.148 374.354 247.124 374.307 243.112C373.991 247.392 376.47 251.756 381.779 255.136C392.064 261.648 409.049 261.959 419.722 255.831C425.231 252.664 427.976 248.38 427.922 244.093C427.644 248.099 424.911 252.028 419.748 254.99Z" fill="white"/>
<path d="M414.217 251.77C406.674 256.098 394.664 255.9 387.411 251.327C380.159 246.755 380.394 239.551 387.936 235.223C395.478 230.895 407.489 231.094 414.742 235.666C421.994 240.239 421.759 247.442 414.217 251.77Z" fill="#1EAD71"/>
<path d="M387.79 236.369C395.361 232.012 407.431 232.232 414.726 236.86C418.153 239.041 419.924 241.806 420.055 244.573C420.383 241.459 418.625 238.273 414.758 235.81C407.463 231.182 395.394 230.961 387.823 235.318C383.809 237.622 381.857 240.756 381.993 243.879C382.295 241.103 384.233 238.406 387.79 236.369Z" fill="#078952"/>
<path d="M410.578 238.263L409.088 238.671L409.498 238.854L408.04 239.694C406.891 239.083 405.687 238.759 404.442 238.755C403.197 238.734 402.018 239.051 400.905 239.689C400.466 239.938 400.104 240.204 399.818 240.471C399.533 240.738 399.34 241.007 399.222 241.309C399.105 241.596 399.035 241.866 399.011 242.106C398.988 242.346 398.994 242.65 399.013 242.986L399.137 244.381C399.17 244.781 399.175 245.101 399.136 245.357C399.097 245.612 398.981 245.866 398.787 246.135C398.594 246.404 398.309 246.655 397.918 246.873C397.228 247.262 396.627 247.3 396.115 246.987C395.723 246.741 395.625 246.435 395.837 246.087C396.048 245.738 396.585 245.299 397.479 244.769L397.513 243.73L396.236 244.205L394.464 243.376C393.335 244.061 392.606 244.721 392.263 245.34L392.071 245.097L392.037 246.12C392.014 246.824 392.514 247.52 393.522 248.225L392.8 248.645L391.847 248.165L391.813 249.205L392.672 249.747L394.412 248.752C395.455 249.281 396.6 249.54 397.831 249.528C399.062 249.5 400.148 249.214 401.103 248.67C401.574 248.389 401.968 248.108 402.285 247.793C402.587 247.494 402.813 247.161 402.947 246.843C403.081 246.51 403.168 246.191 403.209 245.888C403.25 245.584 403.26 245.248 403.242 244.88L403.147 243.534C403.141 243.262 403.132 243.07 403.136 242.942C403.14 242.814 403.161 242.654 403.214 242.431C403.268 242.208 403.366 242.018 403.525 241.86C403.685 241.687 403.89 241.53 404.171 241.375C404.453 241.219 404.78 241.113 405.15 241.071C405.521 241.029 405.841 241.098 406.113 241.247C406.249 241.329 406.354 241.41 406.413 241.491C406.457 241.54 406.455 241.604 406.453 241.668L404.952 241.964L404.918 243.003L407.899 244.46C408.151 244.304 408.371 244.148 408.575 244.023C408.779 243.883 408.984 243.726 409.206 243.522C409.428 243.333 409.603 243.144 409.732 242.954C409.861 242.78 409.96 242.574 410.044 242.351C410.079 242.24 410.097 242.144 410.101 242.032L410.101 242.016L410.102 242L410.137 240.929L409.75 241.002L409.735 240.986C409.543 240.743 409.29 240.499 408.944 240.253L410.559 239.319L410.593 238.264L410.578 238.263Z" fill="#65DBAA"/>
<path d="M391.863 248.23L393.567 247.235C392.446 246.461 391.969 245.663 392.12 244.874C392.27 244.084 393.066 243.239 394.537 242.339L397.534 243.736C396.658 244.257 396.106 244.702 395.894 245.07C395.683 245.423 395.779 245.731 396.168 245.979C396.677 246.308 397.276 246.268 397.964 245.858C398.354 245.637 398.639 245.382 398.832 245.11C399.026 244.838 399.143 244.565 399.182 244.323C399.222 244.066 399.218 243.743 399.186 243.338L399.068 241.932C399.034 241.592 399.044 241.301 399.068 241.043C399.092 240.801 399.163 240.528 399.281 240.222C399.399 239.933 399.593 239.645 399.878 239.374C400.163 239.104 400.509 238.834 400.962 238.582C402.057 237.934 403.231 237.627 404.487 237.628C405.726 237.645 406.925 237.952 408.067 238.565L409.693 237.618L410.561 238.162L408.951 239.11C409.279 239.356 409.546 239.602 409.736 239.847C409.926 240.092 410.04 240.336 410.079 240.546C410.117 240.757 410.109 240.983 410.04 241.208C409.971 241.433 409.871 241.642 409.727 241.818C409.599 241.993 409.424 242.185 409.202 242.392C408.981 242.583 408.776 242.758 408.571 242.9C408.367 243.043 408.148 243.185 407.897 243.343L404.933 241.882C405.168 241.74 405.356 241.613 405.512 241.518C405.669 241.423 405.811 241.312 405.968 241.201C406.125 241.09 406.236 240.979 406.3 240.899C406.365 240.803 406.429 240.723 406.447 240.626C406.481 240.53 406.469 240.449 406.411 240.351C406.353 240.27 406.264 240.188 406.114 240.105C405.844 239.94 405.524 239.887 405.155 239.93C404.786 239.974 404.461 240.083 404.18 240.24C403.914 240.398 403.694 240.557 403.535 240.732C403.375 240.908 403.277 241.1 403.223 241.309C403.169 241.535 403.148 241.696 403.144 241.825C403.139 241.954 403.148 242.148 403.153 242.423L403.243 243.781C403.26 244.153 403.248 244.492 403.207 244.798C403.165 245.104 403.077 245.426 402.943 245.763C402.809 246.101 402.583 246.421 402.281 246.724C401.98 247.026 401.586 247.328 401.101 247.612C400.148 248.164 399.066 248.457 397.84 248.489C396.614 248.52 395.49 248.263 394.438 247.716L392.703 248.726L391.863 248.23Z" fill="#D7F3E7"/>
<path d="M423.558 239.995L420.345 238.138L417.143 239.995L419 236.793L417.143 233.58L420.345 235.449L423.558 233.58L421.689 236.793L423.558 239.995Z" fill="white"/>
<path d="M524.518 175.717L522.547 174.566L520.575 175.717L521.715 173.746L520.575 171.774L522.547 172.914L524.518 171.774L523.378 173.746L524.518 175.717Z" fill="white"/>
<path d="M390.028 70.9999L386.028 68.6646L382.028 70.9999L384.34 66.9999L382.028 62.9999L386.028 65.312L390.028 62.9999L387.716 66.9999L390.028 70.9999Z" fill="white"/>
<path d="M347.816 77.9999L344.816 76.2484L341.816 77.9999L343.55 74.9999L341.816 71.9999L344.816 73.734L347.816 71.9999L346.082 74.9999L347.816 77.9999Z" fill="white"/>
<path d="M370.417 191.432L368.417 190.264L366.417 191.432L367.573 189.432L366.417 187.432L368.417 188.588L370.417 187.432L369.261 189.432L370.417 191.432Z" fill="white"/>
<path d="M487.269 10.241L485.269 9.0734L483.269 10.241L484.425 8.24103L483.269 6.24103L485.269 7.3971L487.269 6.24103L486.112 8.24103L487.269 10.241Z" fill="white"/>
</g>
<defs>
<linearGradient id="paint0_linear" x1="546" y1="45.0851" x2="8.47186e-07" y2="45.0851" gradientUnits="userSpaceOnUse">
<stop stop-color="#C4C4C4"/>
<stop offset="1" stop-color="#C4C4C4" stop-opacity="0"/>
</linearGradient>
<linearGradient id="paint1_linear" x1="349.314" y1="299.131" x2="175.508" y2="-5.54721" gradientUnits="userSpaceOnUse">
<stop stop-color="#5DEBAF" stop-opacity="0"/>
<stop offset="0.505208" stop-color="#5DEBAF"/>
<stop offset="1" stop-color="#5DEBAF" stop-opacity="0"/>
</linearGradient>
<linearGradient id="paint2_linear" x1="313.189" y1="225.707" x2="220.407" y2="62.9161" gradientUnits="userSpaceOnUse">
<stop stop-color="#5DEBAF" stop-opacity="0"/>
<stop offset="0.505208" stop-color="#5DEBAF"/>
<stop offset="1" stop-color="#5DEBAF" stop-opacity="0"/>
</linearGradient>
<linearGradient id="paint3_linear" x1="532.224" y1="301.283" x2="372.768" y2="21.4973" gradientUnits="userSpaceOnUse">
<stop stop-color="#5DEBAF" stop-opacity="0"/>
<stop offset="0.505208" stop-color="#5DEBAF"/>
<stop offset="1" stop-color="#5DEBAF" stop-opacity="0"/>
</linearGradient>
<linearGradient id="paint4_linear" x1="613.345" y1="297.356" x2="329.377" y2="-199.169" gradientUnits="userSpaceOnUse">
<stop stop-color="#5DEBAF" stop-opacity="0"/>
<stop offset="0.505208" stop-color="#5DEBAF"/>
<stop offset="1" stop-color="#5DEBAF" stop-opacity="0"/>
</linearGradient>
<linearGradient id="paint5_linear" x1="647.841" y1="165.501" x2="331.293" y2="-388.512" gradientUnits="userSpaceOnUse">
<stop stop-color="#5DEBAF" stop-opacity="0"/>
<stop offset="0.505208" stop-color="#5DEBAF"/>
<stop offset="1" stop-color="#5DEBAF" stop-opacity="0"/>
</linearGradient>
<linearGradient id="paint6_linear" x1="589.567" y1="81.3418" x2="370.062" y2="-303.341" gradientUnits="userSpaceOnUse">
<stop stop-color="#5DEBAF" stop-opacity="0"/>
<stop offset="0.505208" stop-color="#5DEBAF"/>
<stop offset="1" stop-color="#5DEBAF" stop-opacity="0"/>
</linearGradient>
<linearGradient id="paint7_linear" x1="529.994" y1="195.629" x2="342.739" y2="-132.579" gradientUnits="userSpaceOnUse">
<stop stop-color="#5DEBAF" stop-opacity="0"/>
<stop offset="0.505208" stop-color="#5DEBAF"/>
<stop offset="1" stop-color="#5DEBAF" stop-opacity="0"/>
</linearGradient>
<linearGradient id="paint8_linear" x1="386.209" y1="59.2623" x2="305.37" y2="-82.6258" gradientUnits="userSpaceOnUse">
<stop stop-color="#5DEBAF" stop-opacity="0"/>
<stop offset="0.505208" stop-color="#5DEBAF"/>
<stop offset="1" stop-color="#5DEBAF" stop-opacity="0"/>
</linearGradient>
</defs>
</svg>
