<svg width="500" height="200" viewBox="0 0 375 142" fill="none" xmlns="http://www.w3.org/2000/svg">
<path d="M208.402 64.1275L210.507 64.1216L233.702 104.362L231.596 104.368L208.402 64.1275Z" fill="#ABB2DC"/>
<path d="M231.597 104.368L233.703 104.362L205.758 112.423L203.651 112.429L231.597 104.368Z" fill="#B1B7DF"/>
<path d="M208.403 64.127L231.597 104.368L203.651 112.429L208.403 64.127Z" fill="#B9BFE6"/>
<path d="M291.964 116.211L281.508 97.9512C282.307 99.3469 283.36 100.496 284.671 101.409C287.111 103.107 290.5 103.956 294.808 103.956C299.142 103.956 304.406 103.098 310.569 101.378C313.384 100.593 316.712 99.229 320.01 97.4631C326.801 93.8263 334.772 89.1387 347.274 89.1406C358.08 89.1416 363.944 93.718 368.657 97.3948C371.985 99.9925 374.861 102.235 378.54 102.236L388.997 120.496C385.319 120.496 382.443 118.252 379.113 115.655C374.4 111.978 368.536 107.402 357.73 107.401C345.229 107.401 337.257 112.088 330.466 115.723C327.168 117.489 323.84 118.853 321.025 119.638C314.862 121.358 309.598 122.216 305.264 122.216C300.957 122.216 297.567 121.367 295.127 119.669C293.817 118.756 292.763 117.607 291.964 116.211Z" fill="url(#paint0_linear)"/>
<path d="M290.309 117.166L279.853 98.9055C277.726 95.1917 277.321 89.8541 278.606 82.7574C280.126 74.3545 283.801 64.8329 286.754 57.1825C287.611 54.9591 288.422 52.8571 289.116 50.9557C292.317 42.176 292.383 34.8443 289.588 29.9619L300.044 48.222C302.839 53.1044 302.774 60.4368 299.572 69.2158C298.879 71.1171 298.068 73.2192 297.21 75.4426C294.257 83.093 290.583 92.6134 289.062 101.018C287.777 108.114 288.183 113.452 290.309 117.166Z" fill="#B9BFE5"/>
<path d="M291.255 29.0348C289.487 25.9471 286.652 23.814 282.918 22.7934C281.247 22.3361 279.439 22.1086 277.504 22.1084C275.045 22.1082 272.379 22.4772 269.531 23.2137C264.214 24.5903 258.534 27.1886 252.647 30.9398C246.023 35.1591 239.631 40.5286 233.65 46.8962C228.885 51.9687 224.366 57.6836 220.218 63.8859C217.699 67.652 215.622 71.1479 213.99 74.0909L224.544 92.1365C225.97 89.6626 228.71 85.0811 230.673 82.1453C234.821 75.9442 239.339 70.2293 244.105 65.1556C250.086 58.788 256.478 53.4197 263.102 49.1992C268.989 45.448 274.67 42.8485 279.986 41.4731C282.834 40.7366 285.5 40.3676 287.959 40.3678C289.895 40.368 291.701 40.5966 293.373 41.0528C297.108 42.0734 299.941 44.2058 301.71 47.2942L291.255 29.0348Z" fill="url(#paint1_linear)"/>
<path d="M287.961 40.3677C289.897 40.3679 291.704 40.5965 293.375 41.0526C298.219 42.3763 301.549 45.5731 303.001 50.2953C304.517 55.2201 303.912 61.6792 301.252 68.9747C300.554 70.888 299.74 72.9959 298.88 75.227C295.947 82.8272 292.296 92.286 290.796 100.582C289.059 110.185 290.477 116.428 295.132 119.667C297.572 121.365 300.962 122.214 305.269 122.214C309.604 122.214 314.867 121.356 321.03 119.636C323.846 118.851 326.771 117.388 330.068 115.622C336.86 111.986 345.233 107.397 357.734 107.398C368.54 107.399 374.404 111.975 379.117 115.652C382.445 118.25 385.321 120.493 389.001 120.493L388.225 121.847C384.098 121.847 381.101 119.508 377.629 116.801C372.795 113.029 367.316 108.753 356.959 108.752C345.054 108.751 337.377 112.968 330.533 116.633C327.213 118.411 324.002 120.027 320.866 120.901C314.477 122.682 308.962 123.584 304.461 123.584C304.279 123.585 304.097 123.584 303.917 123.58C299.63 123.509 296.185 122.588 293.675 120.841C288.773 117.428 287.263 110.944 289.059 101.015C290.58 92.611 294.254 83.0905 297.208 75.4402C298.065 73.2167 298.876 71.1147 299.57 69.2133C304.651 55.2784 301.831 44.9868 292.211 42.3576C290.638 41.9267 288.938 41.7148 287.131 41.7139C280.494 41.7136 272.409 44.5839 263.782 50.0812C249.245 59.3428 238.567 72.6896 232.17 82.2539C229.872 85.6893 227.947 88.8951 226.399 91.65L224.543 92.1343C226.163 89.2203 228.192 85.8511 230.672 82.1432C234.819 75.942 239.338 70.2271 244.104 65.1535C250.085 58.7858 256.476 53.4175 263.101 49.1971C268.987 45.4458 274.668 42.8464 279.985 41.471C282.836 40.7365 285.502 40.3675 287.961 40.3677Z" fill="#ABB2DC"/>
<path d="M248.512 11.3769C249.142 10.846 250.037 10.4697 251.167 10.3174L261.376 14.483C262.078 15.3824 262.456 16.2781 262.536 17.0988L262.837 17.216L261.961 19.487C261.539 20.6318 260.396 21.4915 258.636 21.8052C256.778 22.1338 254.875 21.8956 252.906 21.0715C250.922 20.2825 249.121 19.0095 248.021 17.4741C246.98 16.0172 246.762 14.6025 247.258 13.4877L248.215 11.2498L248.512 11.3769Z" fill="#FFA100"/>
<path d="M262.481 17.2614C262.467 17.0683 262.435 16.8727 262.388 16.6703L260.438 21.1692C260.62 21.0658 260.79 20.935 260.942 20.8137L262.481 17.2614Z" fill="#FFB433"/>
<path d="M251.218 10.3283C250.722 10.398 250.271 10.5185 249.867 10.6688L247.373 16.3214C247.43 16.4596 247.493 16.5952 247.56 16.7326L250.228 10.6921L250.819 10.9424L247.966 17.3958C247.99 17.4317 248.017 17.4694 248.041 17.5052C248.09 17.5727 248.143 17.6419 248.196 17.7111L251.131 11.0746L251.722 11.325L248.659 18.2451C248.741 18.3372 248.826 18.4248 248.91 18.5125L252.032 11.4616L252.623 11.7119L249.41 18.9784C249.498 19.0574 249.588 19.132 249.679 19.2066L252.935 11.8441L253.526 12.0945L250.201 19.5993C250.295 19.6651 250.39 19.731 250.484 19.7969L253.836 12.2311L254.427 12.4814L251.038 20.1497C251.136 20.2068 251.234 20.264 251.332 20.3211L254.737 12.618L255.328 12.8683L251.896 20.6184C251.998 20.6669 252.1 20.7153 252.202 20.7637L255.64 13.0006L256.231 13.2509L252.797 21.0325C252.901 21.0766 253.007 21.1163 253.113 21.156L256.543 13.3831L257.134 13.6335L253.711 21.3602C253.819 21.3956 253.929 21.4266 254.039 21.4576L257.448 13.7613L258.039 14.0117L254.66 21.6304C254.772 21.6571 254.885 21.6794 254.999 21.7016L258.351 14.1439L258.942 14.3943L255.648 21.8176C255.764 21.8356 255.882 21.8611 256.002 21.8703L259.254 14.5265L259.845 14.7768L256.682 21.9202C256.804 21.925 256.932 21.9272 257.051 21.926L260.157 14.9091L260.748 15.1594L257.761 21.9182C257.894 21.9074 258.025 21.9039 258.152 21.8852L261.06 15.2916L261.651 15.542L258.916 21.7548C259.065 21.7196 259.201 21.6915 259.335 21.6449L261.965 15.6698L262.02 15.6928C261.865 15.3524 261.669 15.0049 261.424 14.6573C260.945 13.9821 260.329 13.3578 259.617 12.8022L253.833 10.3517C252.944 10.2242 252.056 10.2058 251.218 10.3283Z" fill="#FFB433"/>
<path d="M248.84 10.9664C248.706 11.0555 248.581 11.1479 248.465 11.2497L248.378 11.2121L247.019 14.4107C247.009 14.6386 246.998 14.8935 247.039 15.1334L248.84 10.9664Z" fill="#FFB433"/>
<path d="M259.236 19.6601C255.642 20.1425 251.04 18.1755 248.956 15.2659C246.872 12.3564 248.098 9.60207 251.693 9.11526C255.287 8.63279 259.888 10.5999 261.973 13.5094C264.055 16.4232 262.831 19.1732 259.236 19.6601Z" fill="#FFBD4D"/>
<path opacity="0.2" d="M256.722 15.8283C259.368 15.472 260.728 13.8838 260.435 11.9093C258.075 9.919 254.54 8.72252 251.653 9.11544C249.007 9.47177 247.647 11.0599 247.94 13.0344C250.304 15.0265 253.838 16.2169 256.722 15.8283Z" fill="white"/>
<path opacity="0.7" d="M259.27 19.6195C255.666 20.1116 251.056 18.1311 248.97 15.1952C247.961 13.7757 247.733 12.3945 248.168 11.2876C247.604 12.4276 247.795 13.9026 248.869 15.4232C250.955 18.359 255.566 20.3396 259.169 19.8474C261.029 19.5927 262.258 18.7225 262.722 17.5392C262.199 18.6083 261.012 19.3821 259.27 19.6195Z" fill="white"/>
<path d="M258.356 18.4258C255.602 18.7981 252.072 17.2892 250.478 15.0582C248.883 12.8272 249.82 10.7203 252.573 10.3479C255.327 9.97562 258.857 11.4846 260.452 13.7155C262.046 15.9465 261.109 18.0535 258.356 18.4258Z" fill="#FFB433"/>
<path d="M252.391 10.6701C255.156 10.2926 258.701 11.815 260.302 14.0677C261.053 15.1279 261.244 16.1612 260.949 16.9974C261.421 16.1137 261.285 14.9574 260.438 13.7602C258.837 11.5076 255.292 9.98517 252.527 10.3626C251.062 10.5609 250.107 11.2542 249.771 12.1964C250.194 11.41 251.093 10.8445 252.391 10.6701Z" fill="#FFA100"/>
<path d="M241.978 37.2861C241.958 37.3419 240.036 42.9737 235.93 50.0684C233.513 54.2452 230.821 58.1112 227.929 61.5604C224.289 65.9024 220.315 69.5955 216.121 72.5363C200.479 83.5038 192.634 84.3157 183.548 85.2566C177.431 85.8897 170.499 86.607 159.95 90.7464C146.54 96.0098 139.675 103.402 131.724 111.962C126.564 117.517 121.226 123.264 113.529 129.061C103.66 136.494 93.5408 140.642 83.4518 141.396C82.333 141.48 81.2179 141.522 80.1102 141.521C74.5402 141.521 69.1354 140.467 64.0002 138.374C62.6232 137.813 61.0668 137.066 59.4198 136.276C53.926 133.64 46.5613 130.105 38.5708 130.105C37.8882 130.106 37.2015 130.131 36.5114 130.185C25.3885 131.059 -4.1811 141.891 -4.47904 142L-4.5401 140.808C-3.31157 140.356 25.6848 129.736 37.1346 128.836C37.8757 128.778 38.6102 128.75 39.3394 128.75C47.6631 128.75 55.1612 132.349 60.758 135.033C62.3907 135.818 63.9342 136.558 65.2847 137.108C68.9773 138.613 74.3119 140.122 80.8524 140.122C89.6289 140.124 100.577 137.406 112.642 128.32C120.128 122.682 125.379 117.029 130.457 111.562C138.317 103.1 145.743 95.1065 159.829 89.5792C170.735 85.2996 177.847 84.5628 184.121 83.9131C193.187 82.9747 200.346 82.2341 215.323 71.733C224.364 65.3944 230.662 56.4644 234.355 50.0893C238.386 43.1283 240.273 37.6111 240.292 37.5565L241.978 37.2861Z" fill="#ABB2DC"/>
<path d="M-4.54374 140.805L-15 122.545C-13.7715 122.092 15.2249 111.473 26.6747 110.573C27.4158 110.514 28.1503 110.486 28.8795 110.487C37.2032 110.487 44.7013 114.085 50.2981 116.77C51.9308 117.555 53.4743 118.295 54.8248 118.845C58.5174 120.35 63.852 121.859 70.3925 121.859C79.169 121.86 90.1168 119.143 102.182 110.057C109.668 104.418 114.919 98.7653 119.997 93.2991C127.857 84.8367 135.283 76.8431 149.369 71.3158C160.275 67.0362 167.387 66.2994 173.661 65.6497C182.727 64.7113 189.886 63.9707 204.863 53.4696C213.904 47.1311 220.202 38.201 223.895 31.8259C227.927 24.8649 229.813 19.3478 229.832 19.2932L240.288 37.5533C240.269 37.6079 238.383 43.125 234.351 50.086C230.659 56.4618 224.36 65.3911 215.319 71.7297C200.342 82.232 193.182 82.9737 184.117 83.911C177.842 84.5607 170.729 85.2968 159.825 89.5771C145.738 95.1056 138.312 103.098 130.452 111.56C125.374 117.027 120.124 122.68 112.638 128.318C100.572 137.404 89.6234 140.121 80.8481 140.12C74.3076 140.12 68.973 138.611 65.2804 137.106C63.9299 136.556 62.3871 135.815 60.7537 135.031C55.1569 132.346 47.6588 128.748 39.3351 128.748C38.6059 128.748 37.8714 128.776 37.1303 128.834C25.6812 129.733 -3.31588 140.354 -4.54374 140.805Z" fill="url(#paint2_linear)"/>
<path d="M251.055 0.0160646L253.032 0L248.5 48.6488L246.521 48.6641L251.055 0.0160646Z" fill="#ABB2DC"/>
<path d="M251.055 0.0161133L246.522 48.6642L222.966 8.27503L251.055 0.0161133Z" fill="#E4E8FF"/>
<path d="M169.171 33.1583C171.003 31.6136 173.608 30.5187 176.893 30.0757L206.597 42.1954C208.639 44.8121 209.738 47.4181 209.972 49.8062L210.849 50.1471L208.3 56.7545C207.071 60.0851 203.747 62.5866 198.624 63.499C193.219 64.4552 187.683 63.7622 181.952 61.3644C176.18 59.0688 170.94 55.3652 167.74 50.8979C164.711 46.659 164.078 42.543 165.521 39.2996L168.306 32.7886L169.171 33.1583Z" fill="#FFA100"/>
<path d="M209.818 50.2825C209.777 49.7209 209.685 49.1519 209.546 48.5629L203.874 61.6523C204.404 61.3515 204.899 60.9708 205.342 60.6179L209.818 50.2825Z" fill="#FFB433"/>
<path d="M177.05 30.111C175.605 30.3136 174.295 30.6642 173.118 31.1017L165.862 47.5478C166.028 47.9499 166.211 48.3444 166.406 48.7441L174.169 31.1694L175.888 31.8977L167.588 50.6736C167.657 50.7781 167.737 50.8876 167.805 50.9921C167.948 51.1883 168.103 51.3896 168.257 51.591L176.796 32.2824L178.515 33.0108L169.603 53.1448C169.843 53.4125 170.089 53.6676 170.335 53.9226L179.418 33.4082L181.137 34.1366L171.788 55.2783C172.045 55.508 172.308 55.725 172.57 55.942L182.045 34.5213L183.764 35.2496L174.091 57.0846C174.365 57.2762 174.639 57.4679 174.913 57.6595L184.667 35.647L186.386 36.3754L176.524 58.6859C176.81 58.8522 177.096 59.0185 177.381 59.1848L187.288 36.7728L189.008 37.5011L179.02 60.0499C179.317 60.1908 179.614 60.3317 179.911 60.4726L189.916 37.8858L191.635 38.6142L181.642 61.2545C181.945 61.3828 182.253 61.4983 182.562 61.6139L192.543 38.9989L194.262 39.7273L184.303 62.208C184.617 62.3109 184.937 62.4011 185.256 62.4913L195.176 40.0993L196.895 40.8277L187.062 62.9942C187.388 63.0717 187.719 63.1365 188.05 63.2013L197.803 41.2124L199.523 41.9408L189.939 63.5389C190.275 63.591 190.618 63.6654 190.967 63.6921L200.431 42.3255L202.15 43.0538L192.948 63.8372C193.302 63.8512 193.673 63.8578 194.021 63.8541L203.058 43.4385L204.777 44.1669L196.085 63.8316C196.474 63.8001 196.852 63.7898 197.223 63.7353L205.685 44.5516L207.405 45.28L199.445 63.3561C199.88 63.2536 200.274 63.1719 200.666 63.0362L208.318 45.652L208.476 45.7187C208.027 44.7285 207.457 43.7175 206.744 42.706C205.349 40.7415 203.556 38.9253 201.486 37.3088L184.656 30.179C182.071 29.808 179.486 29.7547 177.05 30.111Z" fill="#FFB433"/>
<path d="M170.13 31.9676C169.741 32.2266 169.376 32.4956 169.04 32.7919L168.786 32.6825L164.833 41.9885C164.802 42.6516 164.772 43.3933 164.89 44.0913L170.13 31.9676Z" fill="#FFB433"/>
<path d="M200.365 57.2582C189.91 58.662 176.521 52.9389 170.457 44.4737C164.393 36.0085 167.959 27.9948 178.42 26.5785C188.875 25.1747 202.264 30.8978 208.328 39.363C214.387 47.8408 210.826 55.8419 200.365 57.2582Z" fill="#FFBD4D"/>
<path opacity="0.2" d="M193.057 46.1083C200.756 45.0715 204.711 40.4508 203.859 34.7061C196.993 28.9153 186.707 25.4342 178.308 26.5774C170.609 27.6141 166.654 32.2348 167.506 37.9795C174.384 43.7755 184.664 47.2388 193.057 46.1083Z" fill="white"/>
<path opacity="0.7" d="M200.472 57.1403C189.988 58.5721 176.574 52.8098 170.506 44.2681C167.569 40.1378 166.907 36.1195 168.173 32.8989C166.531 36.2158 167.086 40.5071 170.212 44.9313C176.28 53.473 189.695 59.2353 200.178 57.8035C205.591 57.0624 209.167 54.5305 210.516 51.0878C208.994 54.1983 205.542 56.4497 200.472 57.1403Z" fill="white"/>
<path d="M197.806 53.6685C189.795 54.7517 179.525 50.3615 174.885 43.8706C170.244 37.3796 172.972 31.2494 180.983 30.1662C188.993 29.0829 199.264 33.4731 203.904 39.9641C208.544 46.455 205.816 52.5852 197.806 53.6685Z" fill="#FFB433"/>
<path d="M180.454 31.1027C188.499 30.0046 198.812 34.4339 203.47 40.9879C205.656 44.0726 206.211 47.0791 205.354 49.5119C206.728 46.9407 206.331 43.5764 203.866 40.0933C199.208 33.5393 188.895 29.11 180.85 30.2081C176.587 30.7851 173.808 32.8021 172.83 35.5434C174.063 33.2556 176.677 31.6102 180.454 31.1027Z" fill="#FFA100"/>
<path d="M336.526 102.258C338.422 102.204 340.577 102.81 342.833 104.156L355.305 126.334C355.285 128.965 354.686 131.124 353.657 132.722L354.033 133.366L349.203 136.208C346.803 137.668 343.511 137.58 339.883 135.618C336.059 133.544 332.965 130.382 330.588 126.067C328.135 121.794 326.705 116.911 326.916 112.56C327.121 108.435 328.751 105.568 331.241 104.268L336.171 101.602L336.526 102.258Z" fill="#FFA100"/>
<path d="M353.328 132.941C353.579 132.572 353.802 132.173 354.006 131.74L344.05 137.062C344.527 137.137 345.021 137.145 345.47 137.145L353.328 132.941Z" fill="#FFB433"/>
<path d="M342.914 104.255C341.918 103.668 340.933 103.239 339.988 102.93L327.399 109.554C327.304 109.885 327.224 110.22 327.149 110.564L340.606 103.49L341.315 104.79L326.933 112.345C326.924 112.444 326.921 112.551 326.912 112.65C326.904 112.842 326.901 113.043 326.897 113.244L341.689 105.477L342.398 106.778L326.969 114.873C326.986 115.157 327.013 115.437 327.04 115.716L342.762 107.469L343.471 108.77L327.275 117.274C327.322 117.544 327.378 117.808 327.434 118.072L343.845 109.456L344.554 110.757L327.816 119.531C327.892 119.786 327.968 120.04 328.044 120.294L344.919 111.449L345.627 112.749L328.539 121.726C328.634 121.97 328.73 122.214 328.825 122.458L345.992 113.441L346.7 114.741L329.417 123.804C329.532 124.038 329.647 124.272 329.762 124.506L347.075 115.428L347.783 116.728L330.451 125.845C330.576 126.074 330.711 126.298 330.845 126.522L348.158 117.415L348.866 118.715L331.633 127.75C331.778 127.969 331.932 128.182 332.086 128.396L349.25 119.397L349.959 120.697L332.959 129.599C333.123 129.808 333.297 130.012 333.47 130.215L350.333 121.384L351.042 122.684L334.476 131.356C334.659 131.555 334.836 131.77 335.038 131.959L351.416 123.371L352.125 124.672L336.196 133.026C336.409 133.21 336.636 133.397 336.854 133.566L352.499 125.358L353.208 126.659L338.146 134.571C338.403 134.743 338.642 134.924 338.899 135.073L353.582 127.345L354.291 128.646L340.464 135.934C340.785 136.085 341.069 136.229 341.379 136.338L354.675 129.327L354.74 129.447C354.948 128.611 355.092 127.702 355.146 126.723C355.247 124.815 355.027 122.804 354.537 120.779L347.601 108.051C346.179 106.545 344.601 105.236 342.914 104.255Z" fill="#FFB433"/>
<path d="M337.708 101.993C337.339 101.961 336.98 101.948 336.626 101.966L336.522 101.773L329.494 105.596C329.149 105.992 328.765 106.438 328.495 106.929L337.708 101.993Z" fill="#FFB433"/>
<path d="M344.033 132.604C336.856 128.316 331.362 118.158 331.762 109.913C332.161 101.668 338.314 98.4556 345.501 102.739C352.679 107.027 358.172 117.185 357.773 125.43C357.364 133.679 351.221 136.887 344.033 132.604Z" fill="#FFBD4D"/>
<path opacity="0.2" d="M344.983 122.08C350.27 125.236 354.996 124.321 357.292 120.335C355.879 113.354 351.208 106.119 345.435 102.684C340.148 99.5281 335.422 100.443 333.126 104.428C334.544 111.419 339.22 118.64 344.983 122.08Z" fill="white"/>
<path opacity="0.7" d="M344.157 132.583C336.949 128.298 331.458 118.103 331.893 109.809C332.102 105.797 333.667 102.977 336.036 101.604C333.386 102.851 331.62 105.788 331.385 110.076C330.95 118.37 336.441 128.565 343.649 132.849C347.372 135.06 350.836 135.254 353.366 133.784C350.892 134.963 347.643 134.656 344.157 132.583Z" fill="white"/>
<path d="M344.21 129.114C338.707 125.833 334.493 118.041 334.805 111.724C335.117 105.407 339.824 102.949 345.327 106.23C350.83 109.511 355.044 117.303 354.732 123.62C354.419 129.937 349.713 132.395 344.21 129.114Z" fill="#FFB433"/>
<path d="M344.541 106.55C350.073 109.839 354.295 117.676 353.962 124.041C353.802 127.034 352.668 129.173 350.94 130.26C353.057 129.342 354.465 127.059 354.648 123.681C354.98 117.316 350.759 109.479 345.227 106.19C342.298 104.445 339.582 104.325 337.628 105.543C339.517 104.732 341.949 105.001 344.541 106.55Z" fill="#FFA100"/>
<defs>
<linearGradient id="paint0_linear" x1="280.349" y1="104.114" x2="323.506" y2="56.907" gradientUnits="userSpaceOnUse">
<stop offset="0.328582" stop-color="#B9BFE6"/>
<stop offset="0.481701" stop-color="#C8CDE9"/>
<stop offset="0.656294" stop-color="#E4E8FF"/>
<stop offset="0.802887" stop-color="#F2F4FF"/>
<stop offset="1" stop-color="#E4E8FF"/>
</linearGradient>
<linearGradient id="paint1_linear" x1="214.696" y1="75.3155" x2="292.187" y2="30.6517" gradientUnits="userSpaceOnUse">
<stop offset="0.5644" stop-color="#B9BFE6"/>
<stop offset="0.6453" stop-color="#C8CDE9"/>
<stop offset="0.7729" stop-color="#E4E8FF"/>
<stop offset="0.9303" stop-color="#F2F4FF"/>
<stop offset="1" stop-color="#E4E8FF"/>
</linearGradient>
<linearGradient id="paint2_linear" x1="-5.26699" y1="112.808" x2="153.92" y2="22.4728" gradientUnits="userSpaceOnUse">
<stop offset="0.385417" stop-color="#B9BFE6"/>
<stop offset="0.557292" stop-color="#C8CDE9"/>
<stop offset="0.713542" stop-color="#E4E8FF"/>
<stop offset="0.864583" stop-color="#F2F4FF"/>
<stop offset="1" stop-color="#E4E8FF"/>
</linearGradient>
</defs>
</svg>
