<svg width="785" height="780" viewBox="0 0 785 780" fill="none" xmlns="http://www.w3.org/2000/svg">
    <path fill-rule="evenodd" clip-rule="evenodd" d="M579.154 37.9142C643.41 56.3571 679.653 119.589 738.285 151.692C810.741 191.362 930.985 169.646 960.571 246.748C989.689 322.629 896.114 389.64 856.914 460.841C826.56 515.976 799.119 568.719 757.375 615.828C703.333 676.816 658.755 756.793 579.154 774.304C494.211 792.99 401.464 762.905 333.094 709.164C265.982 656.41 231.197 572.591 215.757 488.655C201.703 412.263 231.251 339.184 251.224 264.12C272.587 183.828 267.716 83.4505 336.125 36.262C404.474 -10.8851 499.336 15.0044 579.154 37.9142Z" fill="url(#paint0_linear_4380_0)" />
    <path fill-rule="evenodd" clip-rule="evenodd" d="M522.926 133.887C574.539 134.807 614.212 174.728 664.361 186.958C726.333 202.072 811.674 161.855 849.156 213.45C886.044 264.229 829.649 332.901 814.648 393.838C803.031 441.023 793.109 485.843 771.393 529.319C743.28 585.602 726.021 654.157 670.152 683.119C610.534 714.025 535.344 710.115 473.606 683.69C413.004 657.751 370.302 602.183 342.005 542.665C316.25 488.496 323.677 428.087 323.566 368.112C323.447 303.959 299.746 230.066 341.334 181.204C382.886 132.386 458.814 132.745 522.926 133.887Z" fill="url(#paint1_linear_4380_0)" />
    <path d="M434.09 124.639L438.181 124.628L483.249 202.843L479.158 202.854L434.09 124.639Z" fill="#ABB2DC" />
    <path d="M479.156 202.853L483.248 202.842L428.949 218.511L424.855 218.521L479.156 202.853Z" fill="#B1B7DF" />
    <path d="M434.088 124.639L479.156 202.853L424.855 218.521L434.088 124.639Z" fill="#B9BFE6" />
    <path d="M596.458 225.873L576.141 190.382C577.694 193.095 579.74 195.329 582.286 197.102C587.028 200.404 593.614 202.054 601.984 202.054C610.405 202.053 620.632 200.385 632.608 197.043C638.078 195.517 644.545 192.865 650.952 189.433C664.149 182.365 679.636 173.253 703.929 173.257C724.925 173.259 736.319 182.154 745.477 189.3C751.943 194.349 757.532 198.709 764.681 198.709L784.998 234.201C777.851 234.201 772.264 229.84 765.794 224.792C756.636 217.645 745.242 208.75 724.246 208.749C699.954 208.748 684.465 217.858 671.27 224.925C664.862 228.357 658.395 231.009 652.925 232.535C640.95 235.877 630.722 237.545 622.301 237.545C613.931 237.545 607.345 235.895 602.603 232.593C600.058 230.82 598.011 228.586 596.458 225.873Z" fill="url(#paint2_linear_4380_0)" />
    <path d="M593.237 227.728L572.92 192.237C568.787 185.019 568 174.644 570.496 160.851C573.45 144.518 580.59 126.011 586.329 111.142C587.995 106.82 589.571 102.734 590.919 99.0387C597.138 81.9739 597.265 67.7235 591.835 58.2338L612.152 93.7252C617.583 103.215 617.457 117.467 611.236 134.53C609.888 138.226 608.312 142.311 606.646 146.633C600.907 161.503 593.768 180.007 590.813 196.342C588.317 210.135 589.105 220.51 593.237 227.728Z" fill="#B9BFE5" />
    <path d="M595.077 56.4317C591.643 50.4304 586.134 46.2844 578.877 44.3006C575.631 43.4117 572.118 42.9696 568.358 42.9692C563.58 42.9688 558.4 43.686 552.866 45.1176C542.534 47.7932 531.497 52.8434 520.059 60.1345C507.189 68.3353 494.768 78.7719 483.147 91.1484C473.888 101.008 465.108 112.115 457.048 124.171C452.153 131.491 448.117 138.286 444.945 144.006L465.454 179.08C468.225 174.272 473.549 165.367 477.363 159.661C485.422 147.608 494.201 136.5 503.462 126.639C515.083 114.262 527.502 103.828 540.374 95.6246C551.812 88.3335 562.85 83.2811 573.181 80.6078C578.715 79.1761 583.894 78.459 588.673 78.4593C592.433 78.4597 595.944 78.9041 599.191 79.7907C606.449 81.7745 611.955 85.9192 615.392 91.9218L595.077 56.4317Z" fill="url(#paint3_linear_4380_0)" />
    <path d="M588.674 78.4586C592.435 78.459 595.946 78.9034 599.193 79.79C608.606 82.3627 615.077 88.5762 617.898 97.7547C620.844 107.327 619.667 119.881 614.499 134.061C613.144 137.78 611.561 141.877 609.89 146.213C604.192 160.986 597.098 179.37 594.182 195.494C590.808 214.16 593.562 226.294 602.608 232.589C607.349 235.891 613.936 237.541 622.305 237.541C630.727 237.541 640.954 235.872 652.93 232.531C658.4 231.004 664.084 228.161 670.491 224.729C683.688 217.66 699.958 208.741 724.248 208.743C745.244 208.745 756.638 217.64 765.796 224.786C772.262 229.835 777.851 234.195 785 234.195L783.493 236.828C775.474 236.828 769.651 232.281 762.905 227.019C753.511 219.687 742.865 211.377 722.741 211.375C699.61 211.373 684.692 219.57 671.395 226.693C664.943 230.148 658.704 233.289 652.61 234.988C640.196 238.45 629.481 240.203 620.735 240.204C620.38 240.205 620.027 240.204 619.677 240.196C611.347 240.058 604.654 238.267 599.776 234.871C590.252 228.238 587.317 215.635 590.808 196.337C593.763 180.002 600.902 161.498 606.641 146.628C608.307 142.306 609.883 138.22 611.231 134.525C621.103 107.44 615.624 87.4366 596.933 82.3263C593.875 81.4889 590.573 81.077 587.061 81.0752C574.164 81.0747 558.456 86.6536 541.693 97.3384C513.446 115.34 492.698 141.282 480.268 159.871C475.804 166.549 472.062 172.78 469.056 178.134L465.449 179.076C468.597 173.412 472.54 166.863 477.358 159.656C485.417 147.603 494.196 136.495 503.457 126.634C515.078 114.257 527.497 103.823 540.369 95.62C551.807 88.3289 562.845 83.2765 573.176 80.6031C578.717 79.1754 583.896 78.4583 588.674 78.4586Z" fill="#ABB2DC" />
    <path d="M512.021 22.1106C513.245 21.0786 514.984 20.3472 517.179 20.0512L537.016 28.1478C538.379 29.8958 539.114 31.6368 539.27 33.2321L539.855 33.4598L538.153 37.8739C537.332 40.0989 535.113 41.77 531.691 42.3796C528.081 43.0184 524.384 42.5554 520.557 40.9535C516.702 39.42 513.203 36.9458 511.066 33.9615C509.043 31.1297 508.62 28.38 509.584 26.2133L511.443 21.8636L512.021 22.1106Z" fill="#FFA100" />
    <path d="M539.165 33.5491C539.138 33.174 539.076 32.7938 538.984 32.4003L535.195 41.1447C535.549 40.9437 535.88 40.6894 536.176 40.4537L539.165 33.5491Z" fill="#FFB433" />
    <path d="M517.281 20.0736C516.316 20.209 515.441 20.4432 514.656 20.7355L509.81 31.7222C509.92 31.9908 510.042 32.2544 510.173 32.5214L515.357 20.7806L516.505 21.2672L510.962 33.8104C511.008 33.8802 511.062 33.9534 511.107 34.0232C511.203 34.1542 511.306 34.2887 511.409 34.4233L517.112 21.5242L518.26 22.0108L512.308 35.4613C512.468 35.6401 512.632 35.8105 512.797 35.9809L518.863 22.2763L520.011 22.7629L513.767 36.8865C513.939 37.04 514.114 37.185 514.29 37.3299L520.617 23.0199L521.765 23.5065L515.305 38.0932C515.488 38.2213 515.671 38.3493 515.854 38.4773L522.368 23.7719L523.516 24.2585L516.93 39.163C517.121 39.2741 517.312 39.3852 517.502 39.4963L524.119 24.524L525.267 25.0106L518.597 40.0742C518.796 40.1683 518.994 40.2624 519.192 40.3566L525.873 25.2676L527.022 25.7542L520.348 40.879C520.55 40.9646 520.756 41.0418 520.962 41.119L527.628 26.0112L528.776 26.4977L522.125 41.5159C522.335 41.5847 522.548 41.6449 522.762 41.7052L529.387 26.7463L530.535 27.2329L523.968 42.0411C524.185 42.0929 524.406 42.1362 524.628 42.1795L531.141 27.4899L532.289 27.9764L525.889 42.405C526.114 42.4398 526.343 42.4895 526.575 42.5074L532.896 28.2334L534.044 28.72L527.898 42.6043C528.135 42.6137 528.383 42.618 528.615 42.6156L534.65 28.977L535.799 29.4636L529.994 42.6006C530.253 42.5795 530.506 42.5726 530.753 42.5362L536.405 29.7206L537.553 30.2072L532.237 42.2829C532.528 42.2144 532.791 42.1598 533.053 42.0692L538.164 30.4557L538.269 30.5003C537.969 29.8388 537.588 29.1634 537.112 28.4877C536.18 27.1753 534.983 25.962 533.6 24.8821L522.361 20.119C520.634 19.8712 518.908 19.8356 517.281 20.0736Z" fill="#FFB433" />
    <path d="M512.66 21.3139C512.4 21.4869 512.156 21.6666 511.932 21.8646L511.762 21.7915L509.122 28.0083C509.101 28.4513 509.081 28.9468 509.16 29.4131L512.66 21.3139Z" fill="#FFB433" />
    <path d="M532.854 38.2108C525.871 39.1485 516.93 35.3252 512.88 29.6701C508.83 24.015 511.212 18.6614 518.198 17.7152C525.181 16.7775 534.122 20.6008 538.172 26.2559C542.218 31.9195 539.84 37.2646 532.854 38.2108Z" fill="#FFBD4D" />
    <path opacity="0.2" d="M527.974 30.7626C533.115 30.07 535.757 26.9831 535.188 23.1454C530.603 19.2769 523.733 16.9513 518.124 17.715C512.983 18.4076 510.341 21.4945 510.91 25.3322C515.504 29.2042 522.369 31.5178 527.974 30.7626Z" fill="white" />
    <path opacity="0.7" d="M532.925 38.1319C525.923 39.0884 516.965 35.2389 512.912 29.5327C510.951 26.7735 510.509 24.0891 511.354 21.9375C510.257 24.1533 510.628 27.0202 512.716 29.9757C516.769 35.682 525.727 39.5315 532.729 38.575C536.343 38.0799 538.731 36.3884 539.633 34.0886C538.616 36.1665 536.311 37.6705 532.925 38.1319Z" fill="white" />
    <path d="M531.144 35.8117C525.794 36.5354 518.935 33.6025 515.837 29.2662C512.738 24.93 514.559 20.8347 519.909 20.1111C525.259 19.3874 532.118 22.3203 535.217 26.6565C538.316 30.9928 536.494 35.088 531.144 35.8117Z" fill="#FFB433" />
    <path d="M519.556 20.7365C524.929 20.0029 531.817 22.9619 534.927 27.3403C536.387 29.401 536.758 31.4095 536.185 33.0347C537.103 31.3171 536.838 29.0695 535.192 26.7427C532.081 22.3643 525.194 19.4053 519.821 20.1389C516.974 20.5244 515.118 21.8718 514.465 23.7031C515.288 22.1747 517.034 21.0755 519.556 20.7365Z" fill="#FFA100" />
    <path d="M499.32 72.4712C499.281 72.5795 495.546 83.5259 487.568 97.3155C482.872 105.434 477.641 112.948 472.022 119.652C464.949 128.091 457.228 135.27 449.078 140.986C418.685 162.303 403.441 163.881 385.787 165.71C373.901 166.94 360.431 168.334 339.934 176.38C313.879 186.61 300.538 200.978 285.091 217.615C275.063 228.414 264.691 239.583 249.736 250.85C230.56 265.297 210.897 273.361 191.294 274.826C189.12 274.989 186.953 275.07 184.801 275.069C173.978 275.07 163.476 273.02 153.498 268.952C150.823 267.862 147.798 266.41 144.598 264.874C133.923 259.751 119.613 252.879 104.087 252.881C102.761 252.881 101.427 252.931 100.086 253.035C78.4735 254.734 21.0179 275.789 20.439 276L20.3203 273.683C22.7074 272.804 79.0491 252.163 101.297 250.413C102.737 250.3 104.164 250.246 105.581 250.246C121.754 250.246 136.324 257.241 147.198 262.458C150.371 263.984 153.37 265.422 155.994 266.491C163.169 269.417 173.535 272.349 186.243 272.35C203.296 272.353 224.569 267.071 248.013 249.41C262.557 238.452 272.761 227.464 282.627 216.839C297.9 200.391 312.329 184.855 339.7 174.111C360.89 165.793 374.709 164.361 386.901 163.098C404.516 161.274 418.426 159.835 447.528 139.424C465.094 127.104 477.332 109.747 484.507 97.3561C492.341 83.8263 496.006 73.1028 496.043 72.9968L499.32 72.4712Z" fill="#ABB2DC" />
    <path d="M20.3171 273.677L0 238.186C2.3871 237.306 58.7288 216.666 80.9764 214.916C82.4165 214.803 83.8437 214.748 85.2606 214.749C101.434 214.749 116.003 221.743 126.878 226.961C130.051 228.487 133.05 229.925 135.674 230.994C142.849 233.919 153.214 236.852 165.923 236.853C182.976 236.855 204.248 231.574 227.693 213.913C242.237 202.954 252.44 191.966 262.307 181.342C277.579 164.894 292.008 149.357 319.38 138.614C340.57 130.296 354.388 128.864 366.58 127.601C384.195 125.777 398.106 124.338 427.207 103.927C444.774 91.6069 457.012 74.2499 464.187 61.8589C472.021 48.329 475.686 37.6056 475.723 37.4995L496.04 72.9909C496.003 73.097 492.338 83.8205 484.504 97.3503C477.331 109.743 465.091 127.098 447.525 139.418C418.422 159.831 404.51 161.273 386.896 163.095C374.704 164.357 360.883 165.788 339.696 174.108C312.323 184.853 297.895 200.388 282.623 216.836C272.756 227.46 262.555 238.449 248.008 249.407C224.564 267.067 203.29 272.348 186.239 272.347C173.53 272.346 163.165 269.413 155.99 266.488C153.366 265.419 150.368 263.978 147.194 262.455C136.319 257.237 121.75 250.243 105.576 250.243C104.16 250.242 102.732 250.296 101.292 250.41C79.046 252.157 22.7029 272.8 20.3171 273.677Z" fill="url(#paint4_linear_4380_0)" />
    <path d="M516.961 0.0312243L520.804 0L511.997 94.5568L508.152 94.5867L516.961 0.0312243Z" fill="#ABB2DC" />
    <path d="M516.964 0.03125L508.156 94.5868L462.385 16.0838L516.964 0.03125Z" fill="#E4E8FF" />
    <path d="M357.853 64.4482C361.414 61.4458 366.474 59.3177 372.858 58.4566L430.574 82.0133C434.541 87.0992 436.678 92.1645 437.132 96.806L438.836 97.4686L433.884 110.311C431.495 116.785 425.037 121.647 415.082 123.42C404.579 125.279 393.823 123.932 382.688 119.271C371.473 114.809 361.291 107.611 355.073 98.928C349.187 90.689 347.957 82.6889 350.761 76.3848L356.172 63.7295L357.853 64.4482Z" fill="#FFA100" />
    <path d="M436.832 97.731C436.753 96.6395 436.573 95.5334 436.305 94.3886L425.283 119.83C426.312 119.245 427.275 118.505 428.135 117.82L436.832 97.731Z" fill="#FFB433" />
    <path d="M373.162 58.5243C370.354 58.9182 367.808 59.5996 365.523 60.45L351.424 92.4155C351.745 93.1971 352.101 93.964 352.481 94.7409L367.564 60.5814L370.904 61.9972L354.777 98.4912C354.91 98.6942 355.067 98.9072 355.2 99.1102C355.476 99.4916 355.777 99.8829 356.077 100.274L372.669 62.7449L376.009 64.1606L358.692 103.294C359.159 103.815 359.636 104.31 360.114 104.806L377.763 64.933L381.103 66.3487L362.937 107.441C363.437 107.888 363.947 108.309 364.458 108.731L382.868 67.0964L386.208 68.5121L367.412 110.952C367.945 111.324 368.477 111.697 369.01 112.069L387.962 69.2845L391.302 70.7002L372.141 114.064C372.696 114.388 373.251 114.711 373.806 115.034L393.056 71.4726L396.397 72.8883L376.991 116.715C377.568 116.989 378.145 117.263 378.722 117.537L398.161 73.636L401.502 75.0517L382.085 119.057C382.673 119.306 383.272 119.531 383.872 119.755L403.266 75.7995L406.607 77.2152L387.255 120.91C387.865 121.11 388.486 121.285 389.108 121.461L408.382 77.9383L411.723 79.354L392.617 122.438C393.249 122.589 393.893 122.715 394.536 122.841L413.487 80.1017L416.828 81.5174L398.205 123.497C398.86 123.598 399.526 123.743 400.203 123.795L418.592 82.2652L421.933 83.6809L404.052 124.077C404.74 124.104 405.462 124.117 406.137 124.11L423.697 84.4286L427.038 85.8443L410.149 124.066C410.904 124.005 411.639 123.985 412.359 123.879L428.802 86.592L432.143 88.0077L416.677 123.142C417.522 122.942 418.288 122.784 419.05 122.52L433.918 88.7308L434.224 88.8604C433.352 86.9359 432.245 84.9709 430.859 83.0048C428.149 79.1864 424.664 75.6565 420.642 72.5145L387.942 58.6565C382.917 57.9355 377.896 57.8318 373.162 58.5243Z" fill="#FFB433" />
    <path d="M359.716 62.1329C358.961 62.6364 358.251 63.1592 357.597 63.7351L357.104 63.5225L349.424 81.6102C349.363 82.899 349.305 84.3407 349.534 85.6975L359.716 62.1329Z" fill="#FFB433" />
    <path d="M418.467 111.289C398.152 114.018 372.137 102.894 360.354 86.4404C348.571 69.9869 355.5 54.4109 375.827 51.658C396.143 48.9296 422.157 60.0534 433.94 76.5069C445.712 92.9848 438.794 108.536 418.467 111.289Z" fill="#FFBD4D" />
    <path opacity="0.2" d="M404.268 89.618C419.227 87.603 426.913 78.6219 425.256 67.456C411.916 56.2007 391.929 49.4346 375.61 51.6566C360.651 53.6716 352.965 62.6527 354.621 73.8185C367.985 85.084 387.96 91.8155 404.268 89.618Z" fill="white" />
    <path opacity="0.7" d="M418.669 111.061C398.299 113.844 372.234 102.644 360.443 86.0418C354.737 78.014 353.451 70.2037 355.911 63.9439C352.719 70.3907 353.799 78.7317 359.873 87.3308C371.664 103.933 397.729 115.133 418.098 112.35C428.615 110.91 435.564 105.988 438.186 99.297C435.228 105.343 428.521 109.719 418.669 111.061Z" fill="white" />
    <path d="M413.492 104.313C397.927 106.418 377.971 97.885 368.955 85.2688C359.939 72.6526 365.239 60.7375 380.804 58.632C396.369 56.5265 416.325 65.0596 425.341 77.6758C434.357 90.292 429.057 102.207 413.492 104.313Z" fill="#FFB433" />
    <path d="M379.778 60.4522C395.411 58.3178 415.45 66.9269 424.5 79.6657C428.748 85.6612 429.826 91.5048 428.16 96.2335C430.83 91.236 430.06 84.6969 425.27 77.9269C416.22 65.1881 396.181 56.579 380.548 58.7135C372.265 59.8349 366.865 63.7552 364.965 69.0834C367.361 64.6366 372.44 61.4385 379.778 60.4522Z" fill="#FFA100" />
    <path d="M683.036 198.754C686.722 198.649 690.907 199.827 695.292 202.443L719.525 245.549C719.487 250.663 718.323 254.86 716.323 257.965L717.055 259.217L707.67 264.741C703.006 267.579 696.609 267.408 689.56 263.594C682.13 259.563 676.118 253.418 671.5 245.03C666.734 236.726 663.954 227.233 664.364 218.777C664.762 210.759 667.93 205.188 672.769 202.66L682.347 197.479L683.036 198.754Z" fill="#FFA100" />
    <path d="M715.683 258.391C716.171 257.674 716.603 256.899 716.999 256.056L697.655 266.402C698.581 266.547 699.542 266.563 700.413 266.563L715.683 258.391Z" fill="#FFB433" />
    <path d="M695.448 202.636C693.512 201.494 691.597 200.66 689.762 200.06L665.301 212.935C665.117 213.578 664.961 214.23 664.814 214.899L690.963 201.149L692.34 203.676L664.396 218.36C664.379 218.551 664.371 218.761 664.354 218.952C664.338 219.326 664.332 219.717 664.326 220.108L693.067 205.011L694.444 207.539L664.464 223.273C664.498 223.826 664.551 224.369 664.603 224.912L695.153 208.883L696.53 211.411L665.06 227.941C665.15 228.464 665.26 228.978 665.37 229.492L697.257 212.746L698.634 215.273L666.111 232.328C666.258 232.822 666.406 233.316 666.553 233.81L699.342 216.618L700.719 219.145L667.515 236.594C667.701 237.068 667.886 237.542 668.072 238.017L701.427 220.49L702.804 223.017L669.221 240.632C669.445 241.087 669.668 241.542 669.892 241.997L703.532 224.352L704.909 226.879L671.231 244.6C671.474 245.045 671.735 245.48 671.997 245.915L705.636 228.214L707.013 230.742L673.528 248.302C673.809 248.727 674.108 249.142 674.407 249.558L707.759 232.067L709.136 234.594L676.104 251.896C676.423 252.302 676.76 252.698 677.097 253.094L709.863 235.929L711.24 238.456L679.051 255.312C679.408 255.698 679.75 256.116 680.145 256.483L711.968 239.791L713.345 242.319L682.394 258.558C682.808 258.914 683.25 259.278 683.672 259.607L714.072 243.653L715.449 246.181L686.183 261.56C686.681 261.895 687.147 262.245 687.646 262.535L716.176 247.516L717.553 250.043L690.687 264.209C691.31 264.502 691.863 264.782 692.465 264.994L718.299 251.368L718.425 251.599C718.83 249.975 719.109 248.209 719.216 246.305C719.41 242.598 718.984 238.688 718.032 234.753L704.554 210.013C701.791 207.086 698.726 204.543 695.448 202.636Z" fill="#FFB433" />
    <path d="M685.332 198.238C684.615 198.178 683.918 198.152 683.229 198.186L683.028 197.811L669.372 205.243C668.7 206.013 667.956 206.878 667.431 207.834L685.332 198.238Z" fill="#FFB433" />
    <path d="M697.625 257.737C683.678 249.402 673.004 229.659 673.78 213.634C674.556 197.609 686.511 191.364 700.477 199.69C714.424 208.025 725.098 227.768 724.322 243.793C723.526 259.828 711.59 266.062 697.625 257.737Z" fill="#FFBD4D" />
    <path opacity="0.2" d="M699.465 237.282C709.737 243.416 718.921 241.637 723.381 233.891C720.636 220.322 711.56 206.259 700.342 199.582C690.07 193.449 680.886 195.227 676.426 202.973C679.181 216.56 688.266 230.596 699.465 237.282Z" fill="white" />
    <path opacity="0.7" d="M697.861 257.696C683.854 249.368 673.186 229.553 674.03 213.431C674.436 205.634 677.477 200.153 682.08 197.483C676.931 199.908 673.501 205.616 673.043 213.949C672.199 230.071 682.867 249.886 696.874 258.214C704.107 262.511 710.837 262.888 715.753 260.03C710.947 262.321 704.634 261.726 697.861 257.696Z" fill="white" />
    <path d="M697.966 250.953C687.273 244.577 679.085 229.432 679.692 217.153C680.299 204.875 689.444 200.098 700.137 206.474C710.829 212.851 719.018 227.996 718.411 240.274C717.804 252.553 708.659 257.33 697.966 250.953Z" fill="#FFB433" />
    <path d="M698.606 207.098C709.355 213.49 717.557 228.723 716.911 241.094C716.6 246.911 714.396 251.069 711.039 253.181C715.152 251.398 717.888 246.961 718.243 240.395C718.889 228.024 710.687 212.791 699.938 206.399C694.247 203.006 688.97 202.773 685.172 205.141C688.844 203.565 693.568 204.088 698.606 207.098Z" fill="#FFA100" />
    <defs>
        <linearGradient id="paint0_linear_4380_0" x1="535.083" y1="546.802" x2="365.223" y2="79.0728" gradientUnits="userSpaceOnUse">
            <stop stop-color="#EDEFF9" stop-opacity="0" />
            <stop offset="1" stop-color="#EDEFF9" />
        </linearGradient>
        <linearGradient id="paint1_linear_4380_0" x1="591.797" y1="522.242" x2="371.633" y2="207.295" gradientUnits="userSpaceOnUse">
            <stop stop-color="#E3E6F8" stop-opacity="0" />
            <stop offset="1" stop-color="#E3E6F8" />
        </linearGradient>
        <linearGradient id="paint2_linear_4380_0" x1="573.888" y1="202.361" x2="657.774" y2="110.632" gradientUnits="userSpaceOnUse">
            <stop offset="0.328582" stop-color="#B9BFE6" />
            <stop offset="0.481701" stop-color="#C8CDE9" />
            <stop offset="0.656294" stop-color="#E4E8FF" />
            <stop offset="0.802887" stop-color="#F2F4FF" />
            <stop offset="1" stop-color="#E4E8FF" />
        </linearGradient>
        <linearGradient id="paint3_linear_4380_0" x1="446.318" y1="146.386" x2="596.91" y2="59.615" gradientUnits="userSpaceOnUse">
            <stop offset="0.5644" stop-color="#B9BFE6" />
            <stop offset="0.6453" stop-color="#C8CDE9" />
            <stop offset="0.7729" stop-color="#E4E8FF" />
            <stop offset="0.9303" stop-color="#F2F4FF" />
            <stop offset="1" stop-color="#E4E8FF" />
        </linearGradient>
        <linearGradient id="paint4_linear_4380_0" x1="18.9118" y1="219.26" x2="328.269" y2="43.7619" gradientUnits="userSpaceOnUse">
            <stop offset="0.385417" stop-color="#B9BFE6" />
            <stop offset="0.557292" stop-color="#C8CDE9" />
            <stop offset="0.713542" stop-color="#E4E8FF" />
            <stop offset="0.864583" stop-color="#F2F4FF" />
            <stop offset="1" stop-color="#E4E8FF" />
        </linearGradient>
    </defs>
</svg>
    