<svg width="16" height="16" viewBox="0 0 16 16" fill="none" xmlns="http://www.w3.org/2000/svg">
<path d="M3.04932 7.10449V12.6668C3.04932 13.4032 3.64627 14.0001 4.38265 14.0001H11.617C12.3534 14.0001 12.9504 13.4032 12.9504 12.6668V7.10449" stroke="#1EA76D" stroke-width="1.06667"/>
<path opacity="0.5" d="M6.6665 7.33334V14M9.33317 7.33334V14" stroke="#1EA76D" stroke-width="1.06667"/>
<mask id="path-3-inside-1" fill="white">
<rect x="1.3335" y="4.66666" width="13.3333" height="2.66667" rx="0.666667"/>
</mask>
<rect x="1.3335" y="4.66666" width="13.3333" height="2.66667" rx="0.666667" stroke="#1EA76D" stroke-width="2.13333" mask="url(#path-3-inside-1)"/>
<path d="M8 4.82058C8.20512 3.95034 8.54922 2.73056 8.93909 2.34069C9.5677 1.71208 10.5869 1.71208 11.2155 2.34069C11.8441 2.96929 11.8441 3.98846 11.2155 4.61707C11.1023 4.73022 10.9193 4.83952 10.6951 4.94268C10.5148 5.0257 8.97445 5.10475 8.75591 5.17864" stroke="#1EA76D" stroke-width="1.06667"/>
<path d="M8 4.82058C7.79488 3.95034 7.45078 2.73056 7.06091 2.34069C6.4323 1.71208 5.41313 1.71208 4.78453 2.34069C4.15592 2.96929 4.15592 3.98846 4.78453 4.61707C4.89768 4.73022 5.08074 4.83952 5.30488 4.94268C5.48525 5.0257 7.02555 5.10475 7.24409 5.17864" stroke="#1EA76D" stroke-width="1.06667"/>
</svg>
