<svg viewBox="0 0 18 18" fill="none" width="20" xmlns="http://www.w3.org/2000/svg">
    <path d="m11.494 2.013 2.873 1.659c2.382 1.375 2.65 5.369.6 8.92-2.05 3.552-5.644 5.316-8.025 3.94l-2.873-1.658" stroke="#8990A5" stroke-width="1.2" stroke-linecap="round" />
    <path opacity=".5" d="m16.26 7.123-2.73-1.576M14.197 13.391l-2.79-1.61M15.997 9.458 13.56 8.05M12.767 15.052l-2.437-1.407M15.274 11.527l-2.79-1.611M10.877 16.447l-2.73-1.576" stroke="#8990A5" stroke-width="1.2" stroke-linecap="round" />
    <path d="M11.957 10.856c-1.058 1.832-2.5 3.18-3.951 3.891-1.455.715-2.85.765-3.911.152-1.062-.613-1.716-1.846-1.824-3.463-.109-1.612.336-3.535 1.394-5.368C4.723 4.236 6.166 2.89 7.617 2.177c1.454-.715 2.849-.765 3.91-.152 1.063.613 1.716 1.846 1.825 3.463.108 1.612-.337 3.536-1.395 5.368Z" stroke="#8990A5" stroke-width="1.2" stroke-linecap="round" />
    <path opacity=".5" d="M10.087 9.774c-.698 1.21-1.61 2.11-2.493 2.6-.895.497-1.656.528-2.174.229-.517-.299-.87-.973-.888-1.997-.016-1.01.306-2.25 1.004-3.459.699-1.21 1.611-2.109 2.494-2.599.895-.497 1.656-.528 2.173-.23.518.3.871.974.888 1.997.017 1.01-.306 2.25-1.004 3.46Z" stroke="#8990A5" stroke-width="1.2" stroke-linecap="round" />
</svg>