<svg width="495" height="188" viewBox="0 0 495 188" fill="none" xmlns="http://www.w3.org/2000/svg">
<g opacity="0.5">
<path d="M108.05 33.0893L10.2673 130.82C7.39468 133.691 5.1635 135.921 3.63903 137.753L0.0606689 138.378L1.35081 143.19C2.08218 145.918 6.47523 147.095 15.2613 149.448L148.835 185.22C157.621 187.573 162.014 188.749 166.741 187.483C171.469 186.217 174.685 183.003 181.117 176.574L278.899 78.8439C285.331 72.4155 288.547 69.2013 287.816 66.4732L286.567 61.8162L282.687 62.7536C280.495 61.9805 277.586 61.2015 273.907 60.2162L140.332 24.4439C131.546 22.0909 127.153 20.9144 122.425 22.1805C117.698 23.4466 114.482 26.6608 108.05 33.0893Z" fill="url(#paint0_diamond)"/>
<path d="M14.0127 144.791C5.22663 142.438 0.833586 141.261 0.102221 138.533C-0.629144 135.805 2.58679 132.591 9.01867 126.163L106.801 28.4322C113.233 22.0038 116.449 18.7896 121.177 17.5235C125.904 16.2574 130.297 17.4339 139.083 19.7868L272.657 55.5587C281.443 57.9116 285.836 59.0881 286.567 61.8162C287.299 64.5442 284.083 67.7584 277.651 74.1869L179.868 171.917C173.436 178.346 170.22 181.56 165.493 182.826C160.765 184.092 156.372 182.916 147.586 180.563L14.0127 144.791Z" fill="url(#paint1_diamond)"/>
<g opacity="0.1">
<path d="M142.343 23.3772L125.501 18.8667C124.057 18.4799 122.029 19.023 120.971 20.0798C119.914 21.1366 120.228 22.3068 121.672 22.6936L138.514 27.2041C139.959 27.5909 141.987 27.0478 143.044 25.991C144.102 24.9342 143.788 23.764 142.343 23.3772Z" fill="url(#paint2_linear)"/>
<path d="M152.223 36.3732L139.399 32.939C137.955 32.5522 135.927 33.0953 134.87 34.1521C133.812 35.2089 134.126 36.3792 135.571 36.766L148.394 40.2001C149.838 40.5869 151.866 40.0438 152.923 38.987C153.981 37.9302 153.667 36.76 152.223 36.3732Z" fill="url(#paint3_linear)"/>
<path d="M174.396 52.6609L150.134 46.1633C148.69 45.7765 146.662 46.3197 145.604 47.3764C144.547 48.4332 144.861 49.6035 146.305 49.9903L170.567 56.4878C172.011 56.8747 174.04 56.3315 175.097 55.2747C176.154 54.218 175.84 53.0477 174.396 52.6609Z" fill="url(#paint4_linear)"/>
<path d="M151.457 56.8679L127.195 50.3704C125.751 49.9836 123.723 50.5267 122.665 51.5835C121.608 52.6402 121.922 53.8105 123.366 54.1973L147.628 60.6948C149.072 61.0816 151.1 60.5385 152.158 59.4818C153.215 58.425 152.901 57.2547 151.457 56.8679Z" fill="url(#paint5_linear)"/>
<path d="M111.33 56.4671L109.946 56.0964C108.502 55.7095 106.474 56.2527 105.416 57.3094C104.359 58.3662 104.673 59.5365 106.117 59.9233L107.501 60.294C108.946 60.6808 110.974 60.1377 112.031 59.0809C113.088 58.0242 112.775 56.8539 111.33 56.4671Z" fill="url(#paint6_linear)"/>
<path d="M123.637 70.1123L99.3745 63.6148C97.9302 63.228 95.9021 63.7711 94.8448 64.8279C93.7875 65.8846 94.1012 67.0549 95.5455 67.4417L119.808 73.9393C121.252 74.3261 123.28 73.7829 124.337 72.7262C125.395 71.6694 125.081 70.4991 123.637 70.1123Z" fill="url(#paint7_linear)"/>
<path d="M82.6739 69.4914L74.1188 67.2003C72.6744 66.8135 70.6464 67.3567 69.5891 68.4134C68.5317 69.4702 68.8455 70.6405 70.2898 71.0273L78.8449 73.3184C80.2892 73.7052 82.3173 73.1621 83.3746 72.1053C84.4319 71.0485 84.1182 69.8783 82.6739 69.4914Z" fill="url(#paint8_linear)"/>
<path d="M69.5511 76.3274L65.0168 75.113C63.5725 74.7262 61.5444 75.2694 60.4871 76.3261C59.4297 77.3829 59.7435 78.5532 61.1878 78.94L65.7221 80.1543C67.1665 80.5411 69.1945 79.998 70.2519 78.9412C71.3092 77.8844 70.9955 76.7142 69.5511 76.3274Z" fill="url(#paint9_linear)"/>
<path d="M76.1838 88.4581L61.711 84.5822C60.268 84.1958 58.2419 84.7384 57.1856 85.7941C56.1293 86.8499 56.4427 88.0191 57.8857 88.4055L72.3584 92.2814C73.8014 92.6678 75.8275 92.1252 76.8839 91.0695C77.9402 90.0137 77.6268 88.8445 76.1838 88.4581Z" fill="url(#paint10_linear)"/>
<path d="M82.7593 100.569L58.4923 94.0701C57.0493 93.6836 55.0232 94.2262 53.9668 95.282C52.9105 96.3378 53.2239 97.5069 54.6669 97.8934L78.9339 104.392C80.3769 104.779 82.403 104.236 83.4594 103.18C84.5157 102.125 84.2023 100.955 82.7593 100.569Z" fill="url(#paint11_linear)"/>
<path d="M93.4652 113.782L69.2031 107.285C67.7588 106.898 65.7307 107.441 64.6734 108.498C63.6161 109.554 63.9298 110.725 65.3742 111.111L89.6362 117.609C91.0806 117.996 93.1086 117.453 94.166 116.396C95.2233 115.339 94.9096 114.169 93.4652 113.782Z" fill="url(#paint12_linear)"/>
<path d="M89.407 123.044L88.125 122.701C86.6806 122.314 84.6526 122.857 83.5952 123.914C82.5379 124.971 82.8516 126.141 84.296 126.528L85.578 126.871C87.0223 127.258 89.0504 126.715 90.1077 125.658C91.1651 124.601 90.8513 123.431 89.407 123.044Z" fill="url(#paint13_linear)"/>
<path d="M101.756 136.701L77.4943 130.204C76.0499 129.817 74.0219 130.36 72.9645 131.417C71.9072 132.474 72.2209 133.644 73.6653 134.031L97.9274 140.528C99.3717 140.915 101.4 140.372 102.457 139.315C103.514 138.258 103.201 137.088 101.756 136.701Z" fill="url(#paint14_linear)"/>
<path d="M73.0767 139.366L48.8146 132.868C47.3703 132.481 45.3422 133.024 44.2849 134.081C43.2276 135.138 43.5413 136.308 44.9857 136.695L69.2477 143.193C70.6921 143.579 72.7201 143.036 73.7775 141.98C74.8348 140.923 74.5211 139.752 73.0767 139.366Z" fill="url(#paint15_linear)"/>
</g>
<path d="M157.631 147.286L154.86 150.056L140.043 146.088L138.766 149.171L135.621 148.328L137.911 142.376L138.203 142.084L157.631 147.286ZM161.915 132.839C164.597 133.558 166.292 134.465 166.998 135.56C167.71 136.65 167.406 137.854 166.085 139.174C164.778 140.48 163.078 141.307 160.986 141.653C158.891 141.991 156.543 141.828 153.941 141.164L150.276 140.182C147.603 139.466 145.914 138.565 145.21 137.478C144.498 136.389 144.805 135.181 146.132 133.855C147.459 132.529 149.179 131.699 151.291 131.366C153.404 131.034 155.768 131.209 158.384 131.893L161.915 132.839ZM155.213 134.556C153.685 134.147 152.429 133.95 151.444 133.967C150.459 133.983 149.732 134.225 149.264 134.693C148.386 135.571 149.329 136.401 152.095 137.183L156.932 138.478C158.495 138.897 159.769 139.098 160.755 139.081C161.746 139.058 162.479 138.81 162.954 138.335C163.403 137.887 163.379 137.46 162.883 137.055C162.385 136.641 161.405 136.23 159.943 135.823L155.213 134.556ZM172.045 122.714C174.727 123.433 176.422 124.34 177.128 125.436C177.84 126.525 177.536 127.729 176.215 129.049C174.908 130.356 173.208 131.182 171.116 131.529C169.021 131.866 166.673 131.703 164.071 131.039L160.406 130.058C157.732 129.342 156.044 128.44 155.34 127.353C154.628 126.264 154.935 125.056 156.262 123.73C157.589 122.404 159.309 121.575 161.421 121.242C163.534 120.909 165.898 121.085 168.514 121.769L172.045 122.714ZM165.343 124.431C163.815 124.022 162.559 123.826 161.574 123.842C160.589 123.859 159.862 124.101 159.394 124.569C158.515 125.446 159.459 126.276 162.225 127.058L167.062 128.353C168.625 128.772 169.899 128.973 170.885 128.957C171.876 128.934 172.609 128.685 173.084 128.211C173.533 127.762 173.509 127.335 173.013 126.93C172.515 126.517 171.535 126.106 170.073 125.698L165.343 124.431ZM186.802 107.965C189.485 108.684 191.179 109.591 191.885 110.686C192.597 111.776 192.293 112.98 190.973 114.3C189.665 115.606 187.965 116.433 185.873 116.779C183.778 117.117 181.43 116.954 178.828 116.29L175.164 115.308C172.49 114.592 170.801 113.691 170.098 112.604C169.385 111.515 169.693 110.307 171.02 108.981C172.346 107.655 174.066 106.825 176.179 106.492C178.291 106.16 180.655 106.335 183.271 107.019L186.802 107.965ZM180.1 109.682C178.573 109.273 177.316 109.076 176.331 109.093C175.346 109.109 174.619 109.351 174.151 109.819C173.273 110.697 174.217 111.527 176.982 112.309L181.819 113.604C183.382 114.023 184.657 114.224 185.642 114.207C186.633 114.184 187.367 113.936 187.841 113.461C188.29 113.013 188.267 112.586 187.771 112.181C187.272 111.767 186.292 111.356 184.831 110.949L180.1 109.682ZM196.932 97.8405C199.615 98.5589 201.309 99.466 202.015 100.562C202.727 101.651 202.423 102.855 201.103 104.175C199.795 105.482 198.095 106.308 196.003 106.655C193.908 106.992 191.56 106.829 188.958 106.165L185.294 105.184C182.62 104.468 180.931 103.566 180.228 102.479C179.515 101.39 179.823 100.182 181.15 98.8563C182.476 97.5301 184.196 96.7006 186.309 96.3679C188.421 96.0352 190.785 96.2108 193.401 96.8949L196.932 97.8405ZM190.23 99.5572C188.702 99.148 187.446 98.9516 186.461 98.9681C185.476 98.9845 184.749 99.2268 184.281 99.6948C183.403 100.572 184.346 101.402 187.112 102.184L191.949 103.479C193.512 103.898 194.787 104.099 195.772 104.083C196.763 104.06 197.497 103.811 197.971 103.337C198.42 102.888 198.397 102.461 197.901 102.056C197.402 101.643 196.422 101.232 194.961 100.824L190.23 99.5572ZM207.062 87.7159C209.745 88.4343 211.439 89.3414 212.145 90.4372C212.857 91.5264 212.553 92.7308 211.233 94.0505C209.925 95.3572 208.225 96.1837 206.133 96.5301C204.038 96.8676 201.69 96.7044 199.088 96.0405L195.423 95.0592C192.75 94.3431 191.061 93.4416 190.358 92.3548C189.645 91.2656 189.953 90.0579 191.279 88.7317C192.606 87.4055 194.326 86.576 196.439 86.2433C198.551 85.9106 200.915 86.0862 203.531 86.7703L207.062 87.7159ZM200.36 89.4326C198.832 89.0234 197.576 88.8271 196.591 88.8435C195.606 88.8599 194.879 89.1022 194.411 89.5703C193.533 90.4479 194.476 91.2776 197.242 92.0595L202.079 93.3548C203.642 93.7735 204.917 93.9747 205.902 93.9582C206.893 93.9353 207.627 93.6865 208.101 93.212C208.55 92.7634 208.527 92.3367 208.031 91.9318C207.532 91.5181 206.552 91.1073 205.091 90.6994L200.36 89.4326ZM221.953 76.5138C221.216 76.3163 220.523 76.271 219.876 76.3779C219.228 76.4847 218.464 76.7417 217.584 77.1489C215.985 77.9817 214.669 78.565 213.637 78.8985C212.603 79.2232 211.613 79.4074 210.668 79.4511C209.714 79.4925 208.745 79.3811 207.759 79.1171C206.284 78.7221 205.366 78.0972 205.005 77.2422C204.635 76.3848 204.853 75.4415 205.657 74.4123L202.806 73.6486L204.279 72.1762L207.184 72.9541C208.417 72.048 209.85 71.4714 211.482 71.2244C213.121 70.971 214.78 71.0691 216.459 71.5187L213.698 74.2783C212.632 73.9928 211.723 73.8937 210.971 73.9809C210.226 74.0615 209.675 74.2806 209.317 74.6382C208.972 74.9827 208.907 75.3072 209.12 75.6117C209.334 75.9162 209.805 76.1659 210.533 76.361C211.164 76.5299 211.789 76.5695 212.408 76.4798C213.027 76.3901 213.846 76.1231 214.865 75.6788C216.581 74.8195 217.946 74.2372 218.961 73.932C219.974 73.618 220.941 73.4444 221.864 73.4113C222.787 73.3782 223.728 73.4901 224.688 73.747C226.189 74.1491 227.118 74.7687 227.474 75.606C227.836 76.4367 227.597 77.3906 226.756 78.4677L229.408 79.1778L227.944 80.6405L225.293 79.9304C223.945 80.9956 222.424 81.6886 220.729 82.0095C219.025 82.328 217.267 82.2445 215.455 81.7592L218.216 78.9996C219.264 79.2803 220.196 79.3733 221.012 79.2785C221.818 79.1813 222.469 78.8857 222.963 78.3917C223.36 77.9951 223.469 77.6328 223.291 77.3047C223.11 76.9677 222.664 76.7041 221.953 76.5138Z" fill="url(#paint16_linear)"/>
<path d="M179.474 149.013L177.935 150.551L169.703 148.347L168.994 150.059L167.247 149.592L168.518 146.285L168.681 146.122L179.474 149.013ZM184.445 138.397C185.935 138.796 186.876 139.3 187.268 139.909C187.664 140.514 187.495 141.183 186.762 141.916C186.035 142.642 185.091 143.102 183.928 143.294C182.765 143.482 181.46 143.391 180.014 143.022L177.979 142.477C176.493 142.079 175.555 141.578 175.164 140.974C174.769 140.369 174.939 139.698 175.676 138.962C176.414 138.225 177.369 137.764 178.543 137.579C179.716 137.394 181.03 137.492 182.483 137.872L184.445 138.397ZM180.721 139.351C179.873 139.124 179.175 139.015 178.627 139.024C178.08 139.033 177.676 139.167 177.416 139.427C176.928 139.915 177.453 140.376 178.989 140.81L181.676 141.53C182.545 141.763 183.253 141.874 183.8 141.865C184.351 141.852 184.758 141.714 185.022 141.451C185.271 141.201 185.258 140.964 184.983 140.739C184.706 140.51 184.161 140.281 183.349 140.055L180.721 139.351ZM190.082 132.763C191.573 133.162 192.514 133.666 192.906 134.274C193.302 134.88 193.133 135.549 192.399 136.282C191.673 137.008 190.728 137.467 189.566 137.659C188.402 137.847 187.098 137.756 185.652 137.387L183.616 136.842C182.131 136.444 181.193 135.944 180.802 135.34C180.406 134.735 180.577 134.064 181.314 133.327C182.051 132.59 183.007 132.129 184.18 131.945C185.354 131.76 186.667 131.857 188.12 132.237L190.082 132.763ZM186.359 133.716C185.51 133.489 184.812 133.38 184.265 133.389C183.718 133.398 183.314 133.533 183.054 133.793C182.566 134.28 183.09 134.741 184.627 135.176L187.314 135.895C188.182 136.128 188.89 136.24 189.438 136.231C189.988 136.218 190.396 136.08 190.66 135.816C190.909 135.567 190.896 135.33 190.62 135.105C190.343 134.875 189.799 134.647 188.987 134.42L186.359 133.716ZM195.72 127.128C197.21 127.527 198.151 128.031 198.544 128.64C198.939 129.245 198.77 129.914 198.037 130.647C197.31 131.373 196.366 131.832 195.204 132.025C194.04 132.212 192.735 132.122 191.29 131.753L189.254 131.208C187.769 130.81 186.83 130.309 186.44 129.705C186.044 129.1 186.215 128.429 186.952 127.692C187.689 126.956 188.644 126.495 189.818 126.31C190.992 126.125 192.305 126.223 193.758 126.603L195.72 127.128ZM191.997 128.082C191.148 127.854 190.45 127.745 189.903 127.754C189.355 127.764 188.952 127.898 188.691 128.158C188.204 128.646 188.728 129.107 190.264 129.541L192.951 130.261C193.82 130.493 194.528 130.605 195.075 130.596C195.626 130.583 196.033 130.445 196.297 130.181C196.547 129.932 196.533 129.695 196.258 129.47C195.981 129.24 195.437 129.012 194.625 128.785L191.997 128.082ZM203.938 118.914C205.428 119.313 206.37 119.817 206.762 120.426C207.157 121.031 206.989 121.7 206.255 122.433C205.529 123.159 204.584 123.618 203.422 123.811C202.258 123.998 200.953 123.908 199.508 123.539L197.472 122.994C195.987 122.596 195.049 122.095 194.658 121.491C194.262 120.886 194.433 120.215 195.17 119.478C195.907 118.742 196.862 118.281 198.036 118.096C199.21 117.911 200.523 118.009 201.976 118.389L203.938 118.914ZM200.215 119.868C199.366 119.641 198.668 119.531 198.121 119.541C197.573 119.55 197.17 119.684 196.91 119.944C196.422 120.432 196.946 120.893 198.483 121.327L201.17 122.047C202.038 122.279 202.746 122.391 203.293 122.382C203.844 122.369 204.252 122.231 204.515 121.968C204.765 121.718 204.752 121.481 204.476 121.256C204.199 121.026 203.655 120.798 202.843 120.572L200.215 119.868ZM209.576 113.28C211.066 113.679 212.007 114.183 212.399 114.791C212.795 115.396 212.626 116.066 211.893 116.799C211.166 117.525 210.222 117.984 209.06 118.176C207.896 118.364 206.591 118.273 205.145 117.904L203.11 117.359C201.624 116.961 200.686 116.46 200.295 115.857C199.9 115.252 200.07 114.581 200.808 113.844C201.545 113.107 202.5 112.646 203.674 112.461C204.847 112.277 206.161 112.374 207.614 112.754L209.576 113.28ZM205.852 114.233C205.004 114.006 204.306 113.897 203.758 113.906C203.211 113.915 202.807 114.05 202.547 114.31C202.059 114.797 202.584 115.258 204.12 115.693L206.807 116.412C207.676 116.645 208.384 116.757 208.931 116.747C209.482 116.735 209.889 116.597 210.153 116.333C210.402 116.084 210.389 115.847 210.114 115.622C209.837 115.392 209.292 115.164 208.48 114.937L205.852 114.233ZM215.213 107.645C216.704 108.044 217.645 108.548 218.037 109.157C218.433 109.762 218.264 110.431 217.53 111.164C216.804 111.89 215.86 112.349 214.697 112.542C213.533 112.729 212.229 112.638 210.783 112.27L208.747 111.724C207.262 111.327 206.324 110.826 205.933 110.222C205.537 109.617 205.708 108.946 206.445 108.209C207.182 107.472 208.138 107.012 209.311 106.827C210.485 106.642 211.798 106.74 213.252 107.12L215.213 107.645ZM211.49 108.599C210.641 108.371 209.943 108.262 209.396 108.271C208.849 108.28 208.445 108.415 208.185 108.675C207.697 109.163 208.221 109.624 209.758 110.058L212.445 110.778C213.313 111.01 214.021 111.122 214.569 111.113C215.12 111.1 215.527 110.962 215.791 110.698C216.04 110.449 216.027 110.212 215.751 109.987C215.474 109.757 214.93 109.529 214.118 109.302L211.49 108.599ZM224.983 100.733L222.809 102.905L224.592 103.918L222.907 105.603L214.595 100.252L216.053 98.7944L229.313 99.1997L227.611 100.901L224.983 100.733ZM221.342 102.073L222.817 100.599L218.238 100.307L221.342 102.073ZM229.865 96.3589L232.662 93.5635L234.469 94.0472L230.078 98.4353L219.3 95.5489L220.894 93.9562L229.865 96.3589ZM226.715 88.1373L236.001 88.7351L229.691 85.1632L231.773 83.0829L242.551 85.9693L240.952 87.5675L238.035 86.7864L233.688 85.4368L239.521 88.9977L238.437 90.0812L229.449 89.6732L234.089 90.7303L237.006 91.5114L235.412 93.1041L224.634 90.2176L226.715 88.1373Z" fill="url(#paint17_linear)"/>
<g opacity="0.3" filter="url(#filter0_f)">
<path d="M197.68 124.446C214.262 104.124 247.744 63.4326 249.024 63.2374L60.7884 91.9548L28.1876 128.071L197.68 124.446Z" fill="white"/>
</g>
<path d="M105.852 101.681L107.242 100.292L114.599 102.262L113.209 103.651L112.341 103.418C112.64 104.027 112.413 104.708 111.658 105.462C110.94 106.18 109.949 106.697 108.687 107.015C107.421 107.322 106.244 107.33 105.156 107.038C104.067 106.747 103.405 106.246 103.169 105.537C102.931 104.818 103.172 104.099 103.89 103.381C104.644 102.627 105.588 102.138 106.72 101.913L105.852 101.681ZM108.467 105.631C109.129 105.453 109.676 105.149 110.107 104.718C110.538 104.288 110.703 103.881 110.6 103.499C110.495 103.106 110.139 102.829 109.531 102.666C108.922 102.503 108.283 102.514 107.614 102.699C106.941 102.874 106.389 103.177 105.958 103.607C105.527 104.038 105.368 104.446 105.48 104.831C105.582 105.214 105.938 105.486 106.546 105.649C107.154 105.812 107.794 105.806 108.467 105.631Z" fill="#6F77BB"/>
<path d="M116.075 100.786L105.334 97.9101L106.724 96.5208L117.465 99.3971L116.075 100.786Z" fill="#6F77BB"/>
<path d="M111.403 95.0143C111.173 95.2441 110.859 95.4149 110.461 95.5268C110.061 95.6289 109.703 95.6379 109.389 95.5539C109.076 95.4698 108.884 95.3137 108.813 95.0855C108.75 94.8502 108.834 94.6176 109.064 94.3878C109.301 94.1509 109.62 93.9814 110.02 93.8793C110.428 93.77 110.789 93.7574 111.103 93.8415C111.417 93.9255 111.605 94.0852 111.668 94.3206C111.728 94.5462 111.64 94.7774 111.403 95.0143ZM118.953 97.9101L111.596 95.94L112.986 94.5507L120.343 96.5208L118.953 97.9101Z" fill="#6F77BB"/>
<path d="M118.03 89.5097L119.42 88.1204L126.776 90.0905L125.386 91.4798L124.562 91.2592C124.911 91.7805 124.72 92.4073 123.987 93.1397C123.398 93.7284 122.64 94.1444 121.712 94.3877C120.792 94.6237 119.856 94.6143 118.905 94.3595L114.388 93.1499L115.778 91.7606L120.059 92.9072C120.55 93.0385 121.024 93.0427 121.483 92.9198C121.932 92.7942 122.318 92.5699 122.641 92.2468C123.001 91.8878 123.136 91.5599 123.047 91.2631C122.959 90.9663 122.611 90.7364 122.002 90.5736L118.03 89.5097Z" fill="#6F77BB"/>
<path d="M126.661 80.6217C127.279 80.0043 128.046 79.586 128.962 79.3669C129.884 79.1407 130.807 79.151 131.729 79.3979L136.26 80.6115L134.87 82.0008L130.471 80.8227C130.03 80.7045 129.608 80.6915 129.204 80.7838C128.801 80.8761 128.456 81.0658 128.168 81.353C127.852 81.6689 127.747 81.9547 127.852 82.2104C127.964 82.4589 128.289 82.6554 128.829 82.7999L132.963 83.9071L131.573 85.2964L127.174 84.1182C126.733 84 126.31 83.9871 125.907 84.0794C125.504 84.1716 125.158 84.3614 124.871 84.6486C124.562 84.9573 124.457 85.2431 124.554 85.506C124.659 85.7616 124.981 85.9617 125.521 86.1062L129.655 87.2134L128.265 88.6027L120.909 86.6326L122.299 85.2433L123.078 85.4521C122.744 84.953 122.915 84.366 123.59 83.6911C124.251 83.0306 125.093 82.6369 126.115 82.5101C125.768 81.962 125.95 81.3325 126.661 80.6217Z" fill="#6F77BB"/>
<g opacity="0.5">
<path d="M119.945 104.873C120.067 104.906 120.214 104.884 120.385 104.806C120.554 104.724 120.735 104.62 120.929 104.495C121.122 104.364 121.325 104.237 121.537 104.111C121.749 103.986 121.987 103.897 122.251 103.845C122.514 103.788 122.77 103.793 123.02 103.86C123.373 103.954 123.55 104.129 123.549 104.384C123.553 104.635 123.404 104.912 123.102 105.213C122.836 105.479 122.532 105.687 122.19 105.836C121.847 105.986 121.498 106.067 121.142 106.081L121.246 105.474C121.693 105.475 122.069 105.323 122.374 105.018C122.679 104.713 122.695 104.524 122.42 104.45C122.302 104.419 122.156 104.443 121.982 104.524C121.812 104.601 121.63 104.705 121.437 104.836C121.243 104.961 121.04 105.087 120.828 105.212C120.615 105.337 120.38 105.429 120.123 105.487C119.864 105.541 119.612 105.535 119.367 105.469C119.028 105.379 118.85 105.212 118.83 104.971C118.815 104.725 118.947 104.462 119.227 104.182C119.45 103.96 119.716 103.781 120.026 103.645C120.334 103.505 120.655 103.42 120.989 103.391L120.874 103.982C120.501 104 120.192 104.131 119.948 104.376C119.837 104.487 119.778 104.589 119.771 104.683C119.759 104.776 119.817 104.839 119.945 104.873Z" fill="#6F77BB"/>
<path d="M126.044 97.4909L126.658 96.877L129.49 98.7075L128.919 99.2783L125.88 99.1744L127.793 100.404L127.222 100.975L122.698 100.835L123.312 100.221L126.373 100.378L124.4 99.1333L124.955 98.5787L128.054 98.6983L126.044 97.4909Z" fill="#6F77BB"/>
<path d="M131.27 92.2676L131.852 91.686L135.53 92.6711L134.948 93.2526L134.418 93.1108C134.616 93.4414 134.51 93.8113 134.101 94.2206C133.731 94.5904 133.228 94.8564 132.593 95.0186C131.954 95.1795 131.364 95.1878 130.824 95.0433C130.28 94.8975 129.953 94.6437 129.842 94.2818C129.732 93.9199 129.861 93.5541 130.231 93.1843C130.641 92.7751 131.161 92.5161 131.792 92.4075L131.27 92.2676ZM132.495 94.446C132.877 94.3435 133.19 94.1703 133.435 93.9261C133.679 93.682 133.771 93.4496 133.712 93.229C133.648 93.007 133.447 92.8507 133.109 92.7601C132.77 92.6695 132.41 92.6754 132.028 92.7778C131.641 92.879 131.325 93.0516 131.081 93.2957C130.836 93.5398 130.746 93.7729 130.81 93.9948C130.869 94.2155 131.068 94.3711 131.406 94.4617C131.745 94.5524 132.108 94.5471 132.495 94.446Z" fill="#6F77BB"/>
<path d="M136.114 87.3047C136.484 86.9349 136.989 86.6695 137.629 86.5086C138.264 86.3464 138.851 86.3375 139.39 86.482C139.935 86.6277 140.262 86.8816 140.373 87.2435C140.483 87.6054 140.354 87.9712 139.984 88.3409C139.574 88.7502 139.054 89.0091 138.423 89.1178L140.416 89.6517L139.834 90.2333L134.685 88.8542L135.267 88.2726L135.796 88.4145C135.599 88.0838 135.705 87.7139 136.114 87.3047ZM138.194 88.7494C138.577 88.647 138.89 88.4737 139.134 88.2296C139.378 87.9854 139.471 87.7531 139.412 87.5324C139.348 87.3104 139.147 87.1542 138.808 87.0635C138.47 86.9729 138.11 86.9788 137.727 87.0813C137.34 87.1824 137.024 87.355 136.78 87.5991C136.536 87.8432 136.446 88.0763 136.51 88.2982C136.569 88.5189 136.768 88.6745 137.106 88.7652C137.444 88.8558 137.807 88.8505 138.194 88.7494Z" fill="#6F77BB"/>
</g>
<path fillRule="evenodd" clipRule="evenodd" d="M77.8624 82.2333C72.735 87.358 74.2634 93.0349 81.2763 94.913C88.2891 96.7911 98.1308 94.1592 103.258 89.0345C105.079 87.2148 106.06 85.3333 106.254 83.5691C106.343 83.0526 106.645 82.5092 107.173 81.9814C108.359 80.796 110.354 80.0383 112.198 79.9651C112.282 79.9618 112.37 79.9275 112.421 79.8766C112.49 79.8075 112.47 79.7311 112.375 79.7058L99.974 76.3902C99.931 76.3783 99.8877 76.3665 99.8443 76.3548C92.8315 74.4768 82.9898 77.1086 77.8624 82.2333ZM86.4004 89.7911C89.5424 90.6325 93.9518 89.4534 96.2491 87.1573C98.5464 84.8613 97.8616 82.3178 94.7196 81.4764C91.5775 80.6349 87.1681 81.8141 84.8709 84.1101C82.5736 86.4062 83.2584 88.9496 86.4004 89.7911Z" fill="url(#paint18_linear)"/>
<path d="M103.257 89.0344C105.078 87.2147 106.059 85.3332 106.254 83.569C106.342 83.0525 106.644 82.5091 107.172 81.9813C108.358 80.7959 110.353 80.0382 112.197 79.965C112.281 79.9617 112.37 79.9274 112.421 79.8765C112.49 79.8074 112.469 79.731 112.375 79.7057L99.9733 76.3901C99.9303 76.3781 99.887 76.3664 99.8436 76.3547C98.4303 75.9762 96.9022 75.7809 95.3209 75.7523L92.4471 81.2051C93.2429 81.2003 94.013 81.2874 94.7192 81.4765C97.8612 82.318 98.546 84.8614 96.2487 87.1574C93.9514 89.4535 89.542 90.6327 86.4 89.7912L86.9914 95.5059C92.9462 95.3073 99.4213 92.8685 103.257 89.0344Z" fill="url(#paint19_linear)"/>
<path fillRule="evenodd" clipRule="evenodd" d="M81.2763 94.913C74.2634 93.0349 72.735 87.358 77.8624 82.2333C82.9898 77.1086 92.8315 74.4768 99.8443 76.3548C99.8877 76.3665 99.931 76.3783 99.974 76.3902L112.375 79.7058C112.47 79.7311 112.49 79.8075 112.421 79.8766C112.37 79.9275 112.282 79.9618 112.198 79.9651C110.354 80.0383 108.359 80.796 107.173 81.9814C106.645 82.5092 106.343 83.0526 106.254 83.5691C106.06 85.3333 105.079 87.2148 103.258 89.0345C98.1308 94.1592 88.2891 96.7911 81.2763 94.913ZM98.0493 86.7529C100.739 84.0648 99.9371 81.087 96.2585 80.1019C95.9455 80.018 95.6218 79.9513 95.2897 79.9011L94.0308 81.3271C90.9608 80.8084 87.0047 81.9775 84.8709 84.1101C82.5736 86.4062 83.2584 88.9496 86.4004 89.7911C86.4432 89.8026 86.4862 89.8136 86.5295 89.8243L86.5188 89.8364C90.1974 90.8215 95.3597 89.441 98.0493 86.7529Z" fill="url(#paint20_linear)"/>
<path d="M112.375 79.7056C112.469 79.7309 112.49 79.8074 112.421 79.8764C112.37 79.9273 112.282 79.9616 112.198 79.9649C110.354 80.0381 108.359 80.7958 107.173 81.9812C106.645 82.509 106.343 83.0524 106.254 83.5689C106.059 85.3331 105.079 87.2146 103.258 89.0343C100.51 91.7806 96.4084 93.811 92.1138 94.8151L92.9215 89.5982C94.9081 89.0267 96.762 88.0396 98.0494 86.7529C99.9982 84.8052 100.114 82.7053 98.6305 81.3216L102.807 77.1475L112.375 79.7056Z" fill="url(#paint21_linear)"/>
<path d="M77.8624 82.2333C72.735 87.358 74.2634 93.0349 81.2763 94.913C88.2891 96.7911 98.1308 94.1592 103.258 89.0345C104.246 88.0471 104.987 87.0415 105.489 86.0463C101.406 90.0955 93.6158 92.1708 88.06 90.6829C86.5016 90.2656 85.2841 89.6121 84.428 88.7981C83.1049 87.6172 83.1832 85.7969 84.8709 84.1101C86.5582 82.4237 89.3851 81.3398 92.0123 81.2165L94.4645 78.7656L93.1147 76.3012C93.8985 76.0758 94.6959 75.8931 95.4953 75.7562C89.1879 75.5926 81.9944 78.1035 77.8624 82.2333Z" fill="#C4C4C4"/>
<path d="M77.8625 82.2333C72.7351 87.358 74.2636 93.0349 81.2764 94.913C88.2893 96.7911 98.1309 94.1592 103.258 89.0345C104.246 88.0471 104.987 87.0415 105.489 86.0463C101.407 90.0955 93.6159 92.1708 88.0602 90.6829C86.5013 90.2655 85.2836 89.6117 84.4274 88.7975C83.1054 87.6165 83.1841 85.7967 84.8713 84.1104C86.5585 82.424 89.3851 81.3402 92.0121 81.2168L94.4647 78.7656L93.1148 76.3012C93.8986 76.0758 94.696 75.8931 95.4954 75.7562C89.188 75.5926 81.9945 78.1035 77.8625 82.2333Z" fill="url(#paint22_linear)"/>
<path d="M100.21 88.1296C101.586 86.7544 101.937 85.2942 101.366 84.1336L104.065 87.1418L102.683 88.7917L96.9561 91.382C95.3827 91.774 92.2028 92.5492 92.0712 92.514C91.9395 92.4787 92.0581 91.5971 92.1339 91.1607C95.0418 91.1897 98.3149 90.0239 100.21 88.1296Z" fill="url(#paint23_linear)"/>
<g opacity="0.7">
<path d="M77.8624 82.2333C72.735 87.358 74.2634 93.0349 81.2763 94.913C88.2891 96.7911 98.1308 94.1592 103.258 89.0345C104.246 88.0471 104.987 87.0415 105.489 86.0463C101.406 90.0955 93.6158 92.1708 88.06 90.6829C86.5012 90.2655 85.2835 89.6117 84.4273 88.7975C83.1053 87.6165 83.1839 85.7967 84.8712 84.1104C86.5584 82.424 89.385 81.3402 92.012 81.2168L94.4645 78.7656L93.1147 76.3012C93.8985 76.0758 94.6959 75.8931 95.4953 75.7562C89.1879 75.5926 81.9944 78.1035 77.8624 82.2333Z" fill="url(#paint24_linear)"/>
<path d="M100.21 88.1296C101.586 86.7544 101.937 85.2942 101.366 84.1336L104.065 87.1418L102.682 88.7917L96.956 91.382C95.3825 91.774 92.2027 92.5492 92.071 92.514C91.9394 92.4787 92.058 91.5971 92.1338 91.1607C95.0416 91.1897 98.3148 90.0239 100.21 88.1296Z" fill="url(#paint25_linear)"/>
</g>
<path d="M83.998 95.407L84.1889 95.4133C83.4653 95.3445 82.7645 95.2226 82.0991 95.0444C77.0453 93.691 75.9438 89.5999 79.6389 85.9068C82.0269 83.5201 85.8337 81.8837 89.5923 81.3899L82.8029 81.5803L77.9996 85.4678L75.1423 90.1939C75.8922 92.3055 77.9774 94.0294 81.2761 94.9128C82.1448 95.1454 83.0569 95.3089 83.998 95.407Z" fill="url(#paint26_linear)"/>
<path d="M75.3092 90.6096C74.204 88.1555 74.9861 85.1075 77.8619 82.2331C82.9893 77.1085 92.831 74.4766 99.8438 76.3547C99.8872 76.3663 99.9305 76.3781 99.9735 76.39L112.375 79.7056C112.469 79.7309 112.49 79.8074 112.421 79.8764C112.37 79.9273 112.282 79.9616 112.197 79.9649C110.354 80.0381 108.359 80.7958 107.173 81.9812C106.645 82.5091 106.342 83.0525 106.254 83.569C106.059 85.3331 105.078 87.2146 103.258 89.0343C102.613 89.6787 101.894 90.2837 101.115 90.8452C103.609 86.9712 101.914 83.1216 96.6838 81.7209C90.6331 80.1005 82.1416 82.3713 77.7177 86.793C76.4545 88.0555 75.6595 89.3568 75.3092 90.6096Z" fill="url(#paint27_linear)"/>
<path d="M97.6714 92.8725C99.4656 92.013 101.108 90.9647 102.484 89.7579C102.752 89.5226 103.01 89.2814 103.258 89.0343C103.346 88.9059 103.439 88.7684 103.532 88.6273L102.078 88.6827C101.916 89.3878 101.485 90.1262 100.77 90.8411C99.9514 91.6587 98.87 92.3371 97.6728 92.8368L97.6714 92.8725Z" fill="url(#paint28_linear)"/>
</g>
<path d="M182.525 57.5491C183.642 54.4571 185.986 51.3707 189.586 48.5913L233.201 42.6221C237.423 44.3309 240.518 46.673 242.435 49.3497L243.71 49.1535L245.216 58.751C246.041 63.551 243.808 68.8019 238.346 73.3992C232.58 78.2414 225.526 81.2138 217.071 82.2947C208.636 83.5255 199.868 82.7184 192.999 79.6055C186.49 76.6466 182.913 72.1909 182.402 67.348L181.243 57.703L182.525 57.5491Z" fill="#FFA100"/>
<path d="M242.577 50.0211C242.143 49.3819 241.643 48.7691 241.074 48.1642L243.317 67.6047C243.74 66.8841 244.067 66.0921 244.351 65.3691L242.577 50.0211Z" fill="#FFB433"/>
<path d="M189.795 48.5255C188.217 49.7574 186.9 51.0722 185.803 52.3984L188.467 76.9127C188.94 77.277 189.428 77.6201 189.934 77.9611L187.098 51.7585L189.64 51.445L192.663 79.4429C192.816 79.5201 192.987 79.5951 193.14 79.6722C193.444 79.8076 193.766 79.9408 194.088 80.074L190.984 51.2793L193.526 50.9658L196.753 80.9972C197.223 81.1506 197.69 81.2851 198.157 81.4196L194.871 50.8191L197.414 50.5056L200.814 82.0339C201.277 82.1304 201.738 82.208 202.199 82.2856L198.757 50.3399L201.3 50.0264L204.79 82.6007C205.247 82.6404 205.705 82.68 206.162 82.7197L202.645 49.8797L205.188 49.5661L208.781 82.8343C209.235 82.836 209.688 82.8377 210.142 82.8394L206.533 49.4195L209.076 49.1059L212.683 82.7432C213.133 82.707 213.582 82.6707 214.032 82.6345L210.419 48.9403L212.962 48.6267L216.625 82.3766C217.073 82.3214 217.519 82.2472 217.965 82.173L214.305 48.4611L216.848 48.1475L220.441 81.6849C220.885 81.5918 221.327 81.4797 221.769 81.3676L218.189 47.9629L220.732 47.6493L224.26 80.7267C224.7 80.5956 225.138 80.4456 225.576 80.2955L222.075 47.4837L224.618 47.1701L228.052 79.4017C228.488 79.2326 228.946 79.0857 229.379 78.8787L225.961 47.0045L228.504 46.6909L231.832 77.6926C232.262 77.4667 232.709 77.2196 233.119 76.9769L229.847 46.5253L232.39 46.2118L235.557 75.5346C235.997 75.2306 236.44 74.9588 236.842 74.6403L233.733 46.0461L236.276 45.7326L239.223 72.6659C239.669 72.2459 240.081 71.8786 240.455 71.4485L237.617 45.548L237.85 45.5193C236.637 44.6508 235.266 43.8402 233.725 43.1275C230.719 41.7502 227.341 40.8221 223.772 40.321L198.88 43.3906C195.553 44.7228 192.446 46.4314 189.795 48.5255Z" fill="#FFB433"/>
<path d="M182.846 55.4762C182.562 56.0504 182.312 56.6207 182.116 57.2033L181.739 57.2474L183.429 71.0138C183.847 71.823 184.32 72.7249 184.939 73.4731L182.846 55.4762Z" fill="#FFB433"/>
<path d="M236.134 64.7893C224.672 73.6264 204.835 76.0077 191.82 70.1088C178.804 64.21 177.542 52.244 189.001 43.3881C200.462 34.551 220.299 32.1696 233.315 38.0685C246.332 43.9862 247.593 55.9333 236.134 64.7893Z" fill="#FFBD4D"/>
<path opacity="0.2" d="M219.798 56.5541C228.235 50.0434 229.764 41.8414 224.809 35.601C212.676 33.4291 198.063 36.3468 188.868 43.464C180.431 49.9746 178.901 58.1767 183.857 64.4171C196.008 66.5868 210.6 63.6524 219.798 56.5541Z" fill="white"/>
<path opacity="0.7" d="M236.176 64.5787C224.702 73.4682 204.806 75.8207 191.733 69.8338C185.409 66.9405 181.865 62.6203 181.159 57.9261C181.483 62.993 185.089 67.7105 191.84 70.823C204.913 76.8099 224.808 74.4574 236.283 65.5679C242.206 60.976 244.717 55.516 243.959 50.5004C244.284 55.2396 241.728 60.2812 236.176 64.5787Z" fill="white"/>
<path d="M230.628 62.2807C221.852 69.0605 206.635 70.8873 196.666 66.3575C186.697 61.8277 185.732 52.6743 194.507 45.8944C203.283 39.1146 218.501 37.2878 228.469 41.8176C238.438 46.3474 239.403 55.5008 230.628 62.2807Z" fill="#FFB433"/>
<path fillRule="evenodd" clipRule="evenodd" d="M223.704 57.4291L224.503 56.8224C225.686 55.9248 226.347 54.8703 227.009 53.8153C227.354 53.2649 227.699 52.7144 228.118 52.1861C228.411 51.8168 228.783 51.4567 229.234 51.1143C229.664 50.7877 230.176 50.4705 230.736 50.1792C232.068 49.4869 233.675 48.941 235.122 48.7633L221.625 43.0958C214.228 40.0465 203.126 41.4695 196.766 46.2963C190.376 51.1459 191.193 57.5953 198.59 60.7014C205.987 63.8075 217.163 62.3941 223.553 57.5445L223.561 57.5381C223.609 57.502 223.657 57.4654 223.704 57.4291ZM221.736 55.1525L221.744 55.1462C221.794 55.1081 221.829 55.082 221.86 55.0576L221.873 55.0473L222.686 54.4304C223.204 54.0371 223.583 53.5746 224.019 52.9147C224.111 52.7767 224.223 52.5976 224.352 52.3924C224.724 51.7989 225.234 50.9871 225.764 50.3196C226.219 49.7452 226.76 49.2265 227.363 48.7629L220.48 45.8724C220.477 45.8712 220.474 45.8701 220.471 45.8689C217.369 44.5924 213.298 44.1933 209.19 44.7214C205.078 45.2501 201.246 46.6672 198.583 48.6883C195.892 50.731 195.341 52.6086 195.489 53.7756C195.637 54.9427 196.638 56.624 199.754 57.9323C202.851 59.2331 206.939 59.6492 211.072 59.1266C215.205 58.6039 219.06 57.1834 221.736 55.1525Z" fill="url(#paint29_linear)"/>
<path d="M224.503 56.8224L223.704 57.4291C223.657 57.4654 223.61 57.5015 223.562 57.5376L223.553 57.5444C217.163 62.394 205.987 63.8074 198.59 60.7013C195.033 59.2079 192.998 56.9415 192.553 54.4516L192.96 57.667C193.166 60.3903 195.232 62.904 199.073 64.5167C206.47 67.6228 217.646 66.2094 224.036 61.3598L224.044 61.3534L224.046 61.3524C224.093 61.3165 224.14 61.2806 224.187 61.2444L224.986 60.6377C226.169 59.7401 226.83 58.6856 227.491 57.6307C227.837 57.0803 228.182 56.5297 228.601 56.0014C228.894 55.6321 229.266 55.272 229.717 54.9296C230.147 54.603 230.659 54.2858 231.219 53.9945C232.551 53.3022 234.158 52.7563 235.605 52.5786L235.122 48.7635L235.117 48.7639C233.671 48.9423 232.066 49.4877 230.736 50.1792C230.176 50.4704 229.664 50.7876 229.234 51.1142C228.783 51.4567 228.411 51.8168 228.118 52.186C228.017 52.313 227.921 52.4412 227.828 52.5704L227.846 52.5782C227.828 52.5923 227.81 52.6063 227.792 52.6205C227.511 53.0131 227.26 53.4142 227.009 53.8153C226.347 54.8702 225.686 55.9248 224.503 56.8224Z" fill="#F89C00"/>
<path d="M224.999 51.3828C225.239 51.0225 225.499 50.653 225.764 50.3196C226.219 49.7452 226.76 49.2265 227.363 48.7629L220.48 45.8724L220.471 45.8688C217.369 44.5924 213.298 44.1933 209.19 44.7214C205.078 45.2501 201.246 46.6671 198.583 48.6883C195.892 50.731 195.341 52.6086 195.489 53.7756C195.556 54.307 195.8 54.9451 196.341 55.6061C196.77 54.6797 197.6 53.6161 199.066 52.5036C201.729 50.4825 205.561 49.0654 209.673 48.5367C213.781 48.0086 217.852 48.4077 220.954 49.6842L220.963 49.6877L224.999 51.3828Z" fill="#F89C00"/>
<path fillRule="evenodd" clipRule="evenodd" d="M210.537 54.903C212.797 54.6173 214.831 53.8459 216.182 52.8204C217.549 51.7831 217.522 51.0768 217.511 50.9906C217.5 50.9045 217.35 50.2136 215.768 49.5492C214.204 48.8924 212.041 48.6518 209.782 48.9375C207.522 49.2233 205.488 49.9946 204.137 51.0202C202.77 52.0575 202.797 52.7638 202.808 52.85C202.819 52.9361 202.968 53.627 204.551 54.2913C206.115 54.9482 208.277 55.1888 210.537 54.903ZM217.999 55.2124C214.259 58.0512 207.717 58.8786 203.387 57.0604C199.057 55.2422 198.579 51.4669 202.319 48.6281C206.06 45.7894 212.602 44.962 216.932 46.7802C221.262 48.5984 221.74 52.3736 217.999 55.2124Z" fill="url(#paint30_linear)"/>
<path d="M220.897 55.7445C221.004 55.3013 221.03 54.86 220.975 54.429L220.442 50.2129L220.419 50.2201C220.819 51.8513 220.032 53.6701 218 55.2125C214.259 58.0513 207.717 58.8786 203.387 57.0605C201.285 56.1779 200.091 54.8341 199.846 53.3602L200.296 56.9097C200.337 57.387 200.477 57.853 200.714 58.2967C203.671 59.3071 207.353 59.5968 211.072 59.1266C214.79 58.6563 218.284 57.4591 220.897 55.7445Z" fill="#F89C00"/>
<path d="M210.265 52.7529C208.261 53.0064 206.434 53.6419 205.103 54.498C204.912 54.4346 204.728 54.3656 204.551 54.2914C202.969 53.6271 202.819 52.9362 202.808 52.85C202.797 52.7639 202.77 52.0575 204.137 51.0202C205.488 49.9947 207.522 49.2234 209.782 48.9376C212.042 48.6519 214.204 48.8925 215.768 49.5493C217.35 50.2137 217.5 50.9045 217.511 50.9907C217.522 51.0769 217.549 51.7832 216.182 52.8205C216.03 52.9364 215.868 53.049 215.699 53.1581C214.197 52.6601 212.269 52.4995 210.265 52.7529Z" fill="#F89C00"/>
<path d="M199.803 52.9537C199.805 53.0004 199.808 53.0469 199.812 53.0933L199.795 52.9574L199.803 52.9537Z" fill="#F89C00"/>
<path d="M194.521 47.3682C203.328 40.5456 218.622 38.7353 228.653 43.3279C233.367 45.4936 236.089 48.6852 236.74 52.1636C236.609 48.1663 233.829 44.4409 228.51 41.9934C218.478 37.4008 203.185 39.2111 194.378 46.0337C189.709 49.6428 187.791 53.9451 188.509 57.8728C188.405 54.309 190.382 50.5611 194.521 47.3682Z" fill="#FFA100"/>
<path d="M376.464 12.6549L222.296 12.6549C217.767 12.6549 214.249 12.6549 211.603 12.8979L208.288 10.5716L205.51 15.3818C203.935 18.1086 206.47 22.4973 211.54 31.2748L288.624 164.717C293.695 173.495 296.23 177.884 300.955 180.611C305.681 183.337 310.751 183.337 320.892 183.337H475.06C485.201 183.337 490.271 183.337 491.847 180.611L494.536 175.956L490.737 173.637C489.619 171.301 487.94 168.394 485.817 164.718L485.816 164.717L408.732 31.2748C403.662 22.4973 401.127 18.1086 396.401 15.3818C391.676 12.6549 386.605 12.6549 376.464 12.6549Z" fill="url(#paint31_diamond)"/>
<path d="M214.228 26.6199C209.158 17.8424 206.623 13.4536 208.198 10.7268C209.773 8 214.844 8 224.984 8L379.153 8.00001C389.293 8.00001 394.364 8.00001 399.089 10.7268C403.815 13.4537 406.35 17.8424 411.42 26.6199L488.504 160.062C493.575 168.84 496.11 173.229 494.535 175.956C492.96 178.682 487.889 178.682 477.749 178.682H323.58C313.44 178.682 308.369 178.682 303.644 175.956C298.918 173.229 296.383 168.84 291.313 160.062L214.228 26.6199Z" fill="url(#paint32_diamond)"/>
<g opacity="0.1">
<path d="M411.159 32.0179L401.44 15.1921C400.606 13.7492 398.579 12.5795 396.912 12.5795C395.245 12.5795 394.569 13.7492 395.403 15.1921L405.122 32.0179C405.956 33.4608 407.983 34.6305 409.65 34.6306C411.317 34.6305 411.993 33.4608 411.159 32.0179Z" fill="url(#paint33_linear)"/>
<path d="M408.697 50.0468L401.296 37.2362C400.463 35.7932 398.436 34.6235 396.769 34.6235C395.102 34.6235 394.426 35.7932 395.259 37.2362L402.66 50.0468C403.493 51.4898 405.52 52.6595 407.187 52.6595C408.854 52.6595 409.53 51.4898 408.697 50.0468Z" fill="url(#paint34_linear)"/>
<path d="M413.33 80.3573L399.328 56.119C398.495 54.676 396.467 53.5063 394.8 53.5063C393.133 53.5063 392.458 54.676 393.291 56.119L407.293 80.3573C408.126 81.8003 410.153 82.97 411.82 82.97C413.487 82.97 414.163 81.8003 413.33 80.3573Z" fill="url(#paint35_linear)"/>
<path d="M391.928 65.6L377.926 41.3617C377.093 39.9187 375.066 38.749 373.399 38.749C371.732 38.749 371.056 39.9187 371.89 41.3617L385.891 65.6C386.725 67.0429 388.752 68.2127 390.419 68.2127C392.086 68.2127 392.761 67.0429 391.928 65.6Z" fill="url(#paint36_linear)"/>
<path d="M360.611 33.6681L359.812 32.2851C358.979 30.8422 356.952 29.6724 355.285 29.6724C353.618 29.6724 352.942 30.8422 353.775 32.2851L354.574 33.6681C355.408 35.1111 357.435 36.2808 359.102 36.2808C360.769 36.2808 361.445 35.1111 360.611 33.6681Z" fill="url(#paint37_linear)"/>
<path d="M359.55 54.1211L345.549 29.8827C344.715 28.4398 342.688 27.2701 341.021 27.2701C339.354 27.2701 338.678 28.4398 339.512 29.8827L353.513 54.1211C354.347 55.564 356.374 56.7338 358.041 56.7338C359.708 56.7338 360.384 55.564 359.55 54.1211Z" fill="url(#paint38_linear)"/>
<path d="M327.748 21.3569L322.811 12.8103C321.977 11.3673 319.95 10.1976 318.283 10.1976C316.616 10.1976 315.94 11.3673 316.774 12.8103L321.711 21.3569C322.544 22.7999 324.572 23.9696 326.239 23.9696C327.906 23.9696 328.581 22.7999 327.748 21.3569Z" fill="url(#paint39_linear)"/>
<path d="M312.011 16.4064L309.394 11.8765C308.561 10.4336 306.534 9.26386 304.867 9.26385C303.2 9.26386 302.524 10.4336 303.358 11.8765L305.974 16.4064C306.808 17.8493 308.835 19.0191 310.502 19.0191C312.169 19.0191 312.845 17.8493 312.011 16.4064Z" fill="url(#paint40_linear)"/>
<path d="M307.672 31.1952L299.32 16.7366C298.487 15.2951 296.462 14.1265 294.796 14.1265C293.131 14.1265 292.456 15.2951 293.289 16.7367L301.641 31.1952C302.473 32.6368 304.499 33.8054 306.164 33.8054C307.829 33.8054 308.505 32.6368 307.672 31.1952Z" fill="url(#paint41_linear)"/>
<path d="M303.303 45.9234L289.299 21.6801C288.466 20.2385 286.441 19.0699 284.775 19.0699C283.11 19.0699 282.435 20.2385 283.268 21.6801L297.272 45.9234C298.105 47.3649 300.13 48.5336 301.795 48.5336C303.461 48.5336 304.136 47.3649 303.303 45.9234Z" fill="url(#paint42_linear)"/>
<path d="M301.321 64.7748L287.32 40.5365C286.486 39.0935 284.459 37.9238 282.792 37.9238C281.125 37.9238 280.449 39.0935 281.283 40.5365L295.284 64.7748C296.118 66.2178 298.145 67.3875 299.812 67.3875C301.479 67.3875 302.155 66.2177 301.321 64.7748Z" fill="url(#paint43_linear)"/>
<path d="M290.816 68.8788L290.077 67.598C289.243 66.1551 287.216 64.9853 285.549 64.9853C283.882 64.9853 283.206 66.1551 284.04 67.598L284.78 68.8787C285.613 70.3217 287.64 71.4914 289.307 71.4914C290.974 71.4914 291.65 70.3217 290.816 68.8788Z" fill="url(#paint44_linear)"/>
<path d="M289.78 89.3751L275.778 65.1368C274.945 63.6938 272.918 62.5241 271.251 62.5241C269.584 62.5241 268.908 63.6938 269.741 65.1368L283.743 89.3751C284.576 90.8181 286.604 91.9878 288.271 91.9878C289.938 91.9878 290.613 90.818 289.78 89.3751Z" fill="url(#paint45_linear)"/>
<path d="M265.069 68.8787L251.068 44.6404C250.235 43.1975 248.207 42.0277 246.54 42.0277C244.873 42.0277 244.198 43.1975 245.031 44.6404L259.033 68.8787C259.866 70.3217 261.893 71.4914 263.56 71.4914C265.227 71.4914 265.903 70.3217 265.069 68.8787Z" fill="url(#paint46_linear)"/>
</g>
<path d="M338.459 141.765L325.264 141.765L323.726 139.102L325.931 132.43C326.167 131.507 326.264 130.699 326.223 130.007C326.187 129.305 325.984 128.635 325.615 127.996C325.117 127.135 324.553 126.46 323.923 125.972C323.302 125.484 322.669 125.239 322.023 125.239C321.316 125.239 320.916 125.523 320.824 126.092C320.742 126.66 320.998 127.459 321.593 128.489L317.226 128.489C316.539 127.299 316.192 126.211 316.187 125.226C316.192 124.241 316.551 123.477 317.263 122.936C317.98 122.385 318.99 122.11 320.292 122.11C322.292 122.11 324.117 122.589 325.767 123.548C327.423 124.498 328.759 125.852 329.774 127.61C330.405 128.702 330.739 129.811 330.775 130.939C330.816 132.057 330.511 133.438 329.861 135.08L329.039 138.636L336.651 138.636L338.459 141.765ZM336.17 132.23L331.584 122.376L342.426 122.376L344.288 125.599L337.014 125.599L339.014 129.754C339.573 129.265 340.298 129.021 341.19 129.021C343.035 129.021 344.783 129.589 346.434 130.726C348.095 131.862 349.526 133.469 350.726 135.546C351.849 137.49 352.16 139.057 351.658 140.247C351.155 141.437 349.91 142.031 347.921 142.031C346.742 142.031 345.512 141.792 344.23 141.312C342.943 140.824 341.759 140.149 340.677 139.288C339.605 138.427 338.749 137.451 338.108 136.359L342.414 136.359C342.953 137.166 343.545 137.792 344.191 138.236C344.837 138.68 345.467 138.902 346.082 138.902C346.8 138.902 347.182 138.605 347.228 138.01C347.269 137.406 346.946 136.509 346.259 135.32C345.612 134.201 344.889 133.358 344.09 132.79C343.3 132.222 342.485 131.938 341.644 131.938C340.824 131.938 340.329 132.182 340.16 132.67L340.076 133.003L336.17 132.23ZM372.871 133.749C374.42 136.43 375.041 138.48 374.734 139.901C374.437 141.321 373.248 142.031 371.166 142.031C369.106 142.031 367.114 141.343 365.191 139.967C363.274 138.582 361.551 136.603 360.023 134.028L357.907 130.366C356.364 127.694 355.743 125.652 356.045 124.241C356.342 122.82 357.536 122.11 359.628 122.11C361.719 122.11 363.729 122.811 365.657 124.214C367.584 125.617 369.31 127.619 370.833 130.22L372.871 133.749ZM366.235 129.82C365.353 128.293 364.517 127.148 363.727 126.385C362.938 125.621 362.174 125.239 361.436 125.239C360.052 125.239 360.142 126.638 361.706 129.434L364.498 134.268C365.401 135.83 366.247 136.993 367.036 137.757C367.836 138.52 368.61 138.902 369.359 138.902C370.066 138.902 370.384 138.547 370.312 137.837C370.245 137.118 369.796 136.021 368.965 134.548L366.235 129.82ZM388.839 133.749C390.387 136.43 391.008 138.48 390.701 139.901C390.404 141.321 389.215 142.031 387.133 142.031C385.073 142.031 383.081 141.343 381.158 139.967C379.241 138.582 377.518 136.603 375.99 134.028L373.875 130.366C372.331 127.694 371.71 125.652 372.012 124.241C372.309 122.82 373.504 122.11 375.595 122.11C377.686 122.11 379.696 122.811 381.624 124.214C383.552 125.617 385.277 127.619 386.8 130.22L388.839 133.749ZM382.202 129.82C381.32 128.293 380.484 127.148 379.694 126.385C378.905 125.621 378.141 125.239 377.403 125.239C376.019 125.239 376.109 126.638 377.673 129.434L380.465 134.268C381.368 135.83 382.214 136.993 383.003 137.757C383.803 138.52 384.577 138.902 385.326 138.902C386.033 138.902 386.351 138.547 386.279 137.837C386.212 137.118 385.763 136.021 384.933 134.548L382.202 129.82ZM404.806 133.749C406.354 136.43 406.975 138.48 406.668 139.901C406.371 141.321 405.182 142.031 403.101 142.031C401.04 142.031 399.048 141.343 397.126 139.967C395.208 138.582 393.485 136.603 391.957 134.028L389.842 130.366C388.298 127.694 387.677 125.652 387.979 124.241C388.276 122.82 389.471 122.11 391.562 122.11C393.654 122.11 395.663 122.811 397.591 124.214C399.519 125.617 401.244 127.619 402.767 130.22L404.806 133.749ZM398.169 129.82C397.287 128.293 396.451 127.148 395.661 126.385C394.872 125.621 394.108 125.239 393.37 125.239C391.986 125.239 392.076 126.638 393.64 129.434L396.432 134.268C397.335 135.83 398.181 136.993 398.97 137.757C399.77 138.52 400.544 138.902 401.293 138.902C402 138.902 402.318 138.547 402.246 137.837C402.179 137.118 401.731 136.021 400.9 134.548L398.169 129.82ZM425.376 136.652C424.95 135.915 424.44 135.333 423.845 134.907C423.251 134.481 422.446 134.081 421.431 133.709C419.513 133.105 418.016 132.528 416.94 131.977C415.868 131.418 414.943 130.783 414.163 130.073C413.379 129.354 412.702 128.502 412.133 127.516C411.282 126.043 411.051 124.827 411.44 123.868C411.824 122.9 412.739 122.328 414.185 122.15L412.539 119.3L414.861 119.3L416.538 122.203C418.224 122.461 419.808 123.135 421.29 124.227C422.782 125.319 424.013 126.704 424.982 128.382L420.63 128.382C420.014 127.317 419.376 126.522 418.715 125.998C418.063 125.475 417.456 125.213 416.892 125.213C416.349 125.213 416.041 125.417 415.969 125.825C415.898 126.234 416.072 126.802 416.493 127.53C416.857 128.16 417.318 128.684 417.877 129.101C418.436 129.518 419.292 129.953 420.446 130.406C422.476 131.081 424.011 131.698 425.052 132.257C426.098 132.808 426.998 133.433 427.751 134.135C428.505 134.836 429.159 135.666 429.713 136.625C430.579 138.125 430.823 139.346 430.444 140.287C430.075 141.228 429.135 141.792 427.622 141.978L429.153 144.628L426.846 144.628L425.316 141.978C423.414 141.756 421.668 141.104 420.079 140.021C418.484 138.929 417.164 137.477 416.118 135.666L420.47 135.666C421.075 136.714 421.737 137.522 422.454 138.09C423.167 138.649 423.913 138.929 424.692 138.929C425.317 138.929 425.689 138.729 425.807 138.329C425.93 137.921 425.786 137.362 425.376 136.652Z" fill="url(#paint47_linear)"/>
<path d="M349.215 160.66L346.789 160.66L342.036 152.433L340.127 153.225L339.119 151.479L342.728 149.873L342.984 149.873L349.215 160.66ZM352.259 149.777L353.285 151.553L353.148 151.553C352.245 151.558 351.661 151.794 351.397 152.263C351.135 152.726 351.189 153.377 351.56 154.216C351.782 153.703 352.283 153.447 353.063 153.447C353.963 153.447 354.873 153.779 355.793 154.445C356.719 155.111 357.502 155.999 358.143 157.109C358.55 157.814 358.764 158.45 358.784 159.017C358.804 159.584 358.626 160.026 358.251 160.341C357.878 160.652 357.341 160.808 356.64 160.808C355.512 160.808 354.38 160.415 353.244 159.631C352.113 158.847 351.164 157.792 350.398 156.465L349.949 155.688C349.263 154.499 348.875 153.459 348.787 152.566C348.704 151.673 348.929 150.988 349.461 150.51C349.997 150.026 350.804 149.782 351.883 149.777L352.259 149.777ZM353.303 155.178C352.995 155.178 352.784 155.261 352.67 155.429C352.562 155.597 352.528 155.804 352.568 156.051L353.004 156.805C353.443 157.565 353.887 158.132 354.337 158.507C354.787 158.882 355.203 159.069 355.585 159.069C355.972 159.069 356.178 158.889 356.204 158.529C356.227 158.164 356.074 157.698 355.747 157.131C355.413 156.554 355.02 156.085 354.567 155.725C354.117 155.36 353.696 155.178 353.303 155.178ZM361.145 149.777L362.171 151.553L362.034 151.553C361.131 151.558 360.548 151.794 360.283 152.263C360.021 152.726 360.075 153.377 360.446 154.216C360.668 153.703 361.169 153.447 361.949 153.447C362.849 153.447 363.759 153.779 364.679 154.445C365.605 155.111 366.388 155.999 367.029 157.109C367.437 157.814 367.65 158.45 367.67 159.017C367.69 159.584 367.513 160.026 367.137 160.341C366.764 160.652 366.227 160.808 365.526 160.808C364.399 160.808 363.267 160.415 362.13 159.631C360.999 158.847 360.051 157.792 359.284 156.465L358.836 155.688C358.149 154.499 357.761 153.459 357.673 152.566C357.59 151.673 357.815 150.988 358.347 150.51C358.883 150.026 359.69 149.782 360.769 149.777L361.145 149.777ZM362.189 155.178C361.881 155.178 361.671 155.261 361.557 155.429C361.448 155.597 361.414 155.804 361.454 156.051L361.89 156.805C362.329 157.565 362.773 158.132 363.223 158.507C363.673 158.882 364.089 159.069 364.471 159.069C364.858 159.069 365.065 158.889 365.09 158.529C365.113 158.164 364.96 157.698 364.633 157.131C364.299 156.554 363.906 156.085 363.453 155.725C363.003 155.36 362.582 155.178 362.189 155.178ZM374.099 149.777L375.125 151.553L374.988 151.553C374.085 151.558 373.501 151.794 373.237 152.263C372.975 152.726 373.029 153.377 373.399 154.216C373.621 153.703 374.123 153.447 374.903 153.447C375.803 153.447 376.713 153.779 377.633 154.445C378.559 155.111 379.342 155.999 379.983 157.109C380.39 157.814 380.604 158.45 380.624 159.017C380.644 159.584 380.466 160.026 380.091 160.341C379.718 160.652 379.181 160.808 378.48 160.808C377.352 160.808 376.22 160.415 375.084 159.631C373.953 158.847 373.004 157.792 372.238 156.465L371.789 155.688C371.103 154.499 370.715 153.459 370.627 152.566C370.544 151.673 370.769 150.988 371.301 150.51C371.836 150.026 372.644 149.782 373.723 149.777L374.099 149.777ZM375.143 155.178C374.835 155.178 374.624 155.261 374.51 155.429C374.402 155.597 374.368 155.804 374.408 156.051L374.844 156.805C375.283 157.565 375.727 158.132 376.177 158.507C376.627 158.882 377.043 159.069 377.425 159.069C377.812 159.069 378.018 158.889 378.044 158.529C378.067 158.164 377.914 157.698 377.586 157.131C377.253 156.554 376.86 156.085 376.407 155.725C375.957 155.36 375.536 155.178 375.143 155.178ZM382.985 149.777L384.011 151.553L383.874 151.553C382.971 151.558 382.388 151.794 382.123 152.263C381.861 152.726 381.915 153.377 382.286 154.216C382.508 153.703 383.009 153.447 383.789 153.447C384.689 153.447 385.599 153.779 386.519 154.445C387.445 155.111 388.228 155.999 388.869 157.109C389.277 157.814 389.49 158.45 389.51 159.017C389.53 159.584 389.353 160.026 388.977 160.341C388.604 160.652 388.067 160.808 387.366 160.808C386.239 160.808 385.106 160.415 383.97 159.631C382.839 158.847 381.891 157.792 381.124 156.465L380.675 155.688C379.989 154.499 379.601 153.459 379.513 152.566C379.43 151.673 379.655 150.988 380.187 150.51C380.723 150.026 381.53 149.782 382.609 149.777L382.985 149.777ZM384.029 155.178C383.721 155.178 383.51 155.261 383.397 155.429C383.288 155.597 383.254 155.804 383.294 156.051L383.73 156.805C384.169 157.565 384.613 158.132 385.063 158.507C385.513 158.882 385.929 159.069 386.311 159.069C386.698 159.069 386.905 158.889 386.93 158.529C386.953 158.164 386.8 157.698 386.473 157.131C386.139 156.554 385.746 156.085 385.293 155.725C384.843 155.36 384.422 155.178 384.029 155.178ZM391.871 149.777L392.897 151.553L392.76 151.553C391.858 151.558 391.274 151.794 391.009 152.263C390.747 152.726 390.801 153.377 391.172 154.216C391.394 153.703 391.895 153.447 392.675 153.447C393.575 153.447 394.485 153.779 395.405 154.445C396.331 155.111 397.114 155.999 397.755 157.109C398.163 157.814 398.376 158.45 398.397 159.017C398.417 159.584 398.239 160.026 397.863 160.341C397.49 160.652 396.953 160.808 396.253 160.808C395.125 160.808 393.993 160.415 392.856 159.631C391.725 158.847 390.777 157.792 390.01 156.465L389.562 155.688C388.875 154.499 388.488 153.459 388.399 152.566C388.316 151.673 388.541 150.988 389.073 150.51C389.609 150.026 390.416 149.782 391.495 149.777L391.871 149.777ZM392.915 155.178C392.607 155.178 392.397 155.261 392.283 155.429C392.175 155.597 392.14 155.804 392.18 156.051L392.616 156.805C393.055 157.565 393.499 158.132 393.949 158.507C394.4 158.882 394.815 159.069 395.197 159.069C395.584 159.069 395.791 158.889 395.816 158.529C395.839 158.164 395.686 157.698 395.359 157.131C395.026 156.554 394.632 156.085 394.18 155.725C393.729 155.36 393.308 155.178 392.915 155.178ZM410.197 158.455L406.771 158.455L407.378 160.66L404.721 160.66L402.386 149.888L404.684 149.888L414.819 160.66L412.137 160.66L410.197 158.455ZM406.271 156.642L408.594 156.642L405.215 152.803L406.271 156.642ZM417.494 158.854L421.902 158.854L422.945 160.66L416.025 160.66L409.803 149.888L412.314 149.888L417.494 158.854ZM421.491 149.888L428.341 157.678L426.182 149.888L429.462 149.888L435.685 160.66L433.164 160.66L431.48 157.745L429.117 153.254L430.909 160.66L429.2 160.66L422.436 153.254L425.261 157.745L426.944 160.66L424.433 160.66L418.21 149.888L421.491 149.888Z" fill="url(#paint48_linear)"/>
<g opacity="0.3" filter="url(#filter1_f)">
<path d="M375.065 155.294C404.165 152.338 462.655 146.641 463.818 147.495L292.777 21.8228L238.591 24.6077L375.065 155.294Z" fill="white"/>
</g>
<path d="M320.837 65.3398H323.028L327.276 72.6943L325.086 72.6943L324.585 71.8265C324.341 72.5423 323.626 72.9003 322.437 72.9003C321.305 72.9003 320.116 72.5276 318.871 71.7824C317.631 71.0273 316.696 70.1055 316.068 69.0171C315.439 67.9286 315.311 67.0117 315.684 66.2665C316.063 65.5114 316.819 65.1339 317.951 65.1339C319.139 65.1339 320.269 65.4918 321.339 66.2076L320.837 65.3398ZM319.787 70.5174C320.449 70.8998 321.12 71.0911 321.799 71.0911C322.479 71.0911 322.929 70.8998 323.149 70.5174C323.375 70.1252 323.313 69.625 322.962 69.0171C322.61 68.4091 322.098 67.9139 321.424 67.5315C320.756 67.1392 320.083 66.9431 319.403 66.9431C318.724 66.9431 318.277 67.1392 318.062 67.5315C317.842 67.9139 317.907 68.4091 318.258 69.0171C318.609 69.625 319.119 70.1252 319.787 70.5174Z" fill="#6F77BB"/>
<path d="M329.602 72.6943L323.4 61.9567L325.59 61.9567L331.793 72.6943H329.602Z" fill="#6F77BB"/>
<path d="M330.466 64.4573C330.103 64.4573 329.721 64.3445 329.319 64.119C328.923 63.8836 328.634 63.609 328.453 63.2953C328.272 62.9815 328.243 62.7069 328.368 62.4715C328.503 62.2362 328.752 62.1185 329.115 62.1185C329.488 62.1185 329.873 62.2362 330.269 62.4715C330.677 62.7069 330.972 62.9815 331.153 63.2953C331.334 63.609 331.357 63.8836 331.221 64.119C331.091 64.3445 330.839 64.4573 330.466 64.4573ZM334.137 72.6943L329.889 65.3398H332.079L336.328 72.6943L334.137 72.6943Z" fill="#6F77BB"/>
<path d="M340.027 65.3398L342.218 65.3398L346.466 72.6943H344.276L343.8 71.8706C343.664 72.5571 343.019 72.9003 341.864 72.9003C340.936 72.9003 340.011 72.6306 339.088 72.0913C338.176 71.5519 337.446 70.8067 336.896 69.8555L334.288 65.3398L336.478 65.3398L338.951 69.6201C339.234 70.1104 339.605 70.488 340.064 70.7527C340.516 71.0077 340.998 71.1352 341.507 71.1352C342.073 71.1352 342.438 70.9832 342.602 70.6792C342.766 70.3752 342.672 69.9192 342.321 69.3113L340.027 65.3398Z" fill="#6F77BB"/>
<path d="M353.834 65.1339C354.808 65.1339 355.742 65.4085 356.637 65.9576C357.542 66.5067 358.262 67.2422 358.794 68.164L361.411 72.6943H359.221L356.68 68.2963C356.425 67.8551 356.102 67.5118 355.712 67.2667C355.321 67.0215 354.899 66.899 354.447 66.899C353.948 66.899 353.64 67.0412 353.521 67.3255C353.414 67.6099 353.516 68.0218 353.828 68.5611L356.215 72.6943H354.025L351.484 68.2963C351.229 67.8551 350.906 67.5118 350.516 67.2667C350.125 67.0215 349.703 66.899 349.251 66.899C348.764 66.899 348.455 67.0412 348.325 67.3255C348.207 67.6099 348.303 68.0218 348.615 68.5611L351.002 72.6943H348.812L344.563 65.3398L346.754 65.3398L347.204 66.1194C347.334 65.4624 347.931 65.1339 348.995 65.1339C350.037 65.1339 351.01 65.4869 351.916 66.1929C352.074 65.4869 352.714 65.1339 353.834 65.1339Z" fill="#6F77BB"/>
<g opacity="0.5">
<path d="M329.33 78.7886C329.401 78.9111 329.534 79.0092 329.729 79.0828C329.927 79.1514 330.152 79.2127 330.404 79.2666C330.659 79.3156 330.919 79.3745 331.185 79.4431C331.451 79.5118 331.709 79.6294 331.958 79.7961C332.21 79.9579 332.408 80.1639 332.553 80.4139C332.756 80.7669 332.758 81.044 332.557 81.245C332.362 81.446 332.027 81.5465 331.551 81.5465C331.132 81.5465 330.729 81.4705 330.341 81.3185C329.953 81.1665 329.614 80.9557 329.322 80.686L329.882 80.2889C330.233 80.6419 330.65 80.8184 331.131 80.8184C331.612 80.8184 331.773 80.6811 331.614 80.4066C331.546 80.2889 331.412 80.1933 331.211 80.1197C331.016 80.0462 330.791 79.9849 330.536 79.9359C330.284 79.8819 330.025 79.8207 329.759 79.752C329.493 79.6834 329.235 79.5706 328.986 79.4137C328.74 79.2519 328.546 79.0484 328.404 78.8033C328.209 78.465 328.199 78.1929 328.374 77.9869C328.555 77.781 328.867 77.678 329.308 77.678C329.659 77.678 330.01 77.7467 330.361 77.884C330.715 78.0163 331.035 78.2027 331.321 78.4429L330.765 78.818C330.456 78.5385 330.109 78.3988 329.724 78.3988C329.549 78.3988 329.422 78.4331 329.342 78.5017C329.26 78.5655 329.256 78.6611 329.33 78.7886Z" fill="#6F77BB"/>
<path d="M339.954 77.7736L340.922 77.7736L341.713 81.4509H340.813L338.498 78.9724L339.039 81.4509H338.139L334.682 77.7736L335.649 77.7736L337.939 80.311L337.364 77.7736L338.239 77.7736L340.588 80.311L339.954 77.7736Z" fill="#6F77BB"/>
<path d="M348.189 77.7736L349.106 77.7736L351.23 81.4509H350.314L350.008 80.9214C349.903 81.3381 349.528 81.5465 348.883 81.5465C348.3 81.5465 347.694 81.3602 347.066 80.9876C346.435 80.61 345.963 80.1516 345.652 79.6123C345.337 79.068 345.279 78.6096 345.477 78.237C345.675 77.8644 346.065 77.678 346.648 77.678C347.294 77.678 347.908 77.884 348.491 78.2958L348.189 77.7736ZM347.439 80.4581C347.821 80.6787 348.205 80.789 348.59 80.789C348.975 80.789 349.231 80.6787 349.358 80.4581C349.482 80.2325 349.447 79.9506 349.251 79.6123C349.056 79.274 348.767 78.9945 348.385 78.7739C348 78.5483 347.615 78.4356 347.23 78.4356C346.845 78.4356 346.591 78.5483 346.466 78.7739C346.339 78.9945 346.373 79.274 346.569 79.6123C346.764 79.9506 347.054 80.2325 347.439 80.4581Z" fill="#6F77BB"/>
<path d="M355.919 77.678C356.502 77.678 357.109 77.8668 357.74 78.2443C358.368 78.617 358.838 79.073 359.15 79.6123C359.464 80.1565 359.523 80.6149 359.325 80.9876C359.127 81.3602 358.736 81.5465 358.153 81.5465C357.508 81.5465 356.894 81.3406 356.311 80.9287L357.462 82.9218L356.545 82.9218L353.571 77.7736L354.488 77.7736L354.794 78.3032C354.898 77.8864 355.273 77.678 355.919 77.678ZM356.421 80.4581C356.803 80.6787 357.186 80.789 357.571 80.789C357.956 80.789 358.212 80.6787 358.34 80.4581C358.464 80.2325 358.428 79.9506 358.233 79.6123C358.038 79.274 357.749 78.9945 357.367 78.7739C356.982 78.5483 356.597 78.4356 356.212 78.4356C355.827 78.4356 355.572 78.5483 355.448 78.7739C355.321 78.9945 355.355 79.274 355.55 79.6123C355.746 79.9506 356.036 80.2325 356.421 80.4581Z" fill="#6F77BB"/>
</g>
<path fillRule="evenodd" clipRule="evenodd" d="M313.905 27.6116C305.821 27.6116 302.549 33.291 306.596 40.297C310.643 47.303 320.477 52.9825 328.561 52.9825C331.432 52.9825 333.689 52.2721 335.234 51.0348C335.711 50.6973 336.378 50.507 337.21 50.507C339.08 50.507 341.251 51.4815 342.762 52.8765C342.831 52.9403 342.927 52.9828 343.008 52.9828C343.117 52.9828 343.161 52.9063 343.106 52.8119L335.945 40.4271C335.921 40.3838 335.896 40.3404 335.871 40.297C331.824 33.291 321.989 27.6116 313.905 27.6116ZM314.675 40.2966C316.488 43.4356 320.894 45.9802 324.516 45.9802C328.138 45.9802 329.604 43.4356 327.791 40.2966C325.978 37.1577 321.572 34.6131 317.95 34.6131C314.328 34.6131 312.861 37.1577 314.675 40.2966Z" fill="url(#paint49_linear)"/>
<path d="M328.56 52.982C331.431 52.982 333.688 52.2716 335.233 51.0343C335.71 50.6968 336.377 50.5065 337.21 50.5065C339.08 50.5065 341.25 51.481 342.761 52.8759C342.83 52.9398 342.927 52.9822 343.007 52.9822C343.116 52.9822 343.16 52.9057 343.106 52.8114L335.945 40.4265C335.92 40.3832 335.895 40.3399 335.87 40.2965C335.055 38.8846 334.004 37.5266 332.78 36.2581L326.214 38.2924C326.845 38.9157 327.383 39.5911 327.791 40.2966C329.604 43.4355 328.138 45.9801 324.516 45.9801C320.894 45.9801 316.488 43.4355 314.674 40.2966L310.633 45.2675C315.484 49.8028 322.512 52.982 328.56 52.982Z" fill="url(#paint50_linear)"/>
<path fillRule="evenodd" clipRule="evenodd" d="M306.595 40.297C302.548 33.291 305.821 27.6116 313.905 27.6116C321.989 27.6116 331.824 33.291 335.871 40.297C335.896 40.3404 335.92 40.3838 335.945 40.4271L343.106 52.8119C343.161 52.9063 343.117 52.9828 343.008 52.9828C342.927 52.9828 342.831 52.9403 342.762 52.8765C341.25 51.4815 339.08 50.507 337.21 50.507C336.378 50.507 335.711 50.6973 335.234 51.0348C333.689 52.2721 331.431 52.9825 328.561 52.9825C320.477 52.9825 310.643 47.303 306.595 40.297ZM326.254 47.0797C330.495 47.0797 332.211 44.1006 330.088 40.4257C329.908 40.113 329.705 39.8053 329.483 39.5041L327.366 39.6363C325.355 36.8085 321.314 34.6131 317.95 34.6131C314.328 34.6131 312.861 37.1577 314.675 40.2966C314.699 40.3394 314.724 40.382 314.75 40.4246L314.732 40.4257C316.855 44.1006 322.014 47.0797 326.254 47.0797Z" fill="url(#paint51_linear)"/>
<path d="M343.106 52.8113C343.16 52.9057 343.116 52.9822 343.007 52.9822C342.927 52.9822 342.83 52.9397 342.761 52.8759C341.25 51.4809 339.08 50.5064 337.21 50.5064C336.377 50.5064 335.71 50.6968 335.233 51.0343C333.688 52.2716 331.431 52.9819 328.561 52.9819C324.228 52.9819 319.393 51.3508 315.216 48.7586L319.967 45.2824C321.984 46.3971 324.224 47.0797 326.254 47.0797C329.327 47.0797 331.074 45.5155 330.996 43.2559L337.581 43.2559L343.106 52.8113Z" fill="url(#paint52_linear)"/>
<path d="M313.905 27.6116C305.821 27.6116 302.548 33.291 306.595 40.297C310.643 47.303 320.477 52.9825 328.561 52.9825C330.118 52.9825 331.496 52.7733 332.676 52.3843C326.264 52.3599 318.486 47.8576 315.28 42.3073C314.382 40.7527 313.937 39.2803 313.903 37.9655C313.788 35.9891 315.286 34.6131 317.95 34.6131C320.61 34.6131 323.693 35.9859 325.862 37.9587L329.728 37.9587L330.608 34.9525C331.403 35.3923 332.176 35.8766 332.914 36.3985C328.071 31.2999 320.42 27.6116 313.905 27.6116Z" fill="#C4C4C4"/>
<path d="M313.905 27.6116C305.821 27.6116 302.548 33.291 306.595 40.297C310.643 47.303 320.477 52.9825 328.561 52.9825C330.118 52.9825 331.496 52.7733 332.676 52.3843C326.264 52.3599 318.486 47.8576 315.28 42.3073C314.38 40.75 313.936 39.2753 313.903 37.9587C313.792 35.9862 315.29 34.6135 317.95 34.6135C320.61 34.6135 323.693 35.9862 325.861 37.9587L329.728 37.9587L330.608 34.9525C331.403 35.3923 332.176 35.8766 332.914 36.3985C328.071 31.2999 320.42 27.6116 313.905 27.6116Z" fill="url(#paint53_linear)"/>
<path d="M326.872 49.8676C329.041 49.8676 330.469 48.9928 330.935 47.6281L330.69 52.1261L328.299 52.3375L321.741 49.8676C320.192 48.9369 317.073 47.0426 316.997 46.911C316.921 46.7795 317.71 46.178 318.114 45.8937C320.384 48.2076 323.883 49.8676 326.872 49.8676Z" fill="url(#paint54_linear)"/>
<g opacity="0.7">
<path d="M313.905 27.6116C305.821 27.6116 302.548 33.291 306.595 40.297C310.643 47.303 320.477 52.9825 328.561 52.9825C330.118 52.9825 331.496 52.7733 332.676 52.3843C326.264 52.3599 318.486 47.8576 315.28 42.3073C314.38 40.75 313.936 39.2753 313.903 37.9587C313.792 35.9862 315.29 34.6135 317.95 34.6135C320.61 34.6135 323.693 35.9862 325.861 37.9587L329.728 37.9587L330.608 34.9525C331.403 35.3923 332.176 35.8766 332.914 36.3985C328.071 31.2999 320.42 27.6116 313.905 27.6116Z" fill="url(#paint55_linear)"/>
<path d="M326.872 49.8676C329.041 49.8676 330.469 48.9928 330.935 47.6281L330.69 52.1261L328.299 52.3375L321.741 49.8676C320.192 48.9369 317.073 47.0426 316.997 46.911C316.921 46.7795 317.71 46.178 318.114 45.8937C320.384 48.2076 323.883 49.8676 326.872 49.8676Z" fill="url(#paint56_linear)"/>
</g>
<path d="M308.348 42.8272L308.497 42.9856C307.981 42.3612 307.524 41.713 307.14 41.0482C304.224 35.9994 306.582 31.9064 312.408 31.9064C316.173 31.9064 320.465 33.6159 323.817 36.188L318.315 30.9887L311.462 30.2687L305.482 31.7431C304.408 33.9986 304.692 37.0008 306.595 40.2966C307.096 41.1632 307.685 42.0094 308.348 42.8272Z" fill="url(#paint57_linear)"/>
<path d="M305.285 32.2031C306.35 29.3978 309.37 27.6111 313.905 27.6111C321.989 27.6111 331.823 33.2906 335.87 40.2965C335.895 40.3399 335.92 40.3833 335.944 40.4266L343.106 52.8114C343.16 52.9058 343.116 52.9823 343.007 52.9823C342.927 52.9823 342.83 52.9398 342.761 52.876C341.25 51.481 339.08 50.5065 337.21 50.5065C336.377 50.5065 335.71 50.6968 335.233 51.0344C333.688 52.2716 331.431 52.982 328.56 52.982C327.544 52.982 326.5 52.8922 325.443 52.7213C330.464 51.6321 332.165 47.2622 329.146 42.0371C325.655 35.9923 317.169 31.092 310.194 31.092C308.203 31.092 306.55 31.4915 305.285 32.2031Z" fill="url(#paint58_linear)"/>
<path d="M321.129 51.6063C323.222 52.3424 325.343 52.8099 327.38 52.9428C327.777 52.9688 328.171 52.982 328.56 52.982C328.731 52.9504 328.913 52.9151 329.097 52.8771L327.908 51.7753C327.224 52.2034 326.301 52.4459 325.174 52.4459C323.884 52.4459 322.496 52.1286 321.158 51.5792L321.129 51.6063Z" fill="url(#paint59_linear)"/>
<path d="M438.548 74.7708C441.037 74.6639 443.875 75.4167 446.86 77.1382L463.596 105.965C463.613 109.413 462.861 112.255 461.536 114.368L462.041 115.204L455.746 119.021C452.618 120.98 448.294 120.927 443.5 118.425C438.445 115.78 434.332 111.695 431.141 106.085C427.851 100.532 425.893 94.1594 426.099 88.4535C426.301 83.0438 428.395 79.2562 431.643 77.5049L438.071 73.9175L438.548 74.7708Z" fill="#FFA100"/>
<path d="M461.107 114.661C461.43 114.173 461.716 113.646 461.976 113.074L448.992 120.239C449.619 120.328 450.269 120.329 450.857 120.32L461.107 114.661Z" fill="#FFB433"/>
<path d="M446.967 77.2662C445.649 76.5152 444.348 75.9719 443.103 75.585L426.683 84.5051C426.564 84.9409 426.464 85.3817 426.37 85.8344L443.924 76.3075L444.875 77.9981L426.117 88.1719C426.107 88.3012 426.103 88.4424 426.093 88.5718C426.086 88.8236 426.085 89.0874 426.084 89.3512L445.378 78.891L446.33 80.5816L426.204 91.4836C426.232 91.8562 426.272 92.222 426.312 92.5879L446.819 81.4814L447.771 83.172L426.646 94.6253C426.711 94.9775 426.79 95.3228 426.868 95.6682L448.274 84.0649L449.225 85.7555L427.393 97.5731C427.496 97.9048 427.6 98.2365 427.704 98.5683L449.715 86.6552L450.667 88.3459L428.377 100.435C428.507 100.753 428.636 101.072 428.765 101.39L451.157 89.2456L452.108 90.9362L429.564 103.142C429.719 103.446 429.874 103.751 430.028 104.055L452.611 91.8291L453.562 93.5197L430.956 105.797C431.123 106.095 431.303 106.386 431.484 106.676L454.065 94.4126L455.017 96.1033L432.539 108.271C432.732 108.555 432.937 108.832 433.143 109.109L455.532 96.9894L456.483 98.68L434.309 110.669C434.528 110.94 434.759 111.203 434.99 111.467L456.986 99.5729L457.938 101.264L436.329 112.943C436.573 113.2 436.808 113.479 437.078 113.722L458.44 102.156L459.392 103.847L438.615 115.099C438.898 115.335 439.199 115.577 439.487 115.794L459.894 104.74L460.846 106.431L441.2 117.086C441.54 117.307 441.858 117.539 442.197 117.729L461.349 107.323L462.3 109.014L444.266 118.828C444.689 119.02 445.065 119.203 445.474 119.341L462.816 109.9L462.903 110.055C463.162 108.955 463.336 107.762 463.392 106.478C463.493 103.976 463.172 101.344 462.496 98.7001L453.181 82.1512C451.289 80.2045 449.197 78.52 446.967 77.2662Z" fill="#FFB433"/>
<path d="M440.094 74.4C439.61 74.3663 439.138 74.3555 438.673 74.3856L438.534 74.1345L429.369 79.2791C428.922 79.8047 428.426 80.3957 428.079 81.0448L440.094 74.4Z" fill="#FFB433"/>
<path d="M448.899 114.398C439.406 108.914 432.028 95.707 432.418 84.8946C432.808 74.0821 440.834 69.7548 450.34 75.2313C459.833 80.7147 467.211 93.9221 466.821 104.735C466.419 115.554 458.405 119.874 448.899 114.398Z" fill="#FFBD4D"/>
<path opacity="0.2" d="M449.972 100.588C456.964 104.623 463.154 103.333 466.103 98.0671C464.135 88.9453 457.884 79.5515 450.248 75.1597C443.256 71.1247 437.066 72.4139 434.117 77.6802C436.092 86.814 442.349 96.1889 449.972 100.588Z" fill="white"/>
<path opacity="0.7" d="M449.059 114.367C439.525 108.889 432.151 95.6331 432.586 84.755C432.794 79.4935 434.803 75.7683 437.891 73.923C434.432 75.6083 432.162 79.4906 431.923 85.1141C431.488 95.9922 438.862 109.248 448.396 114.726C453.32 117.553 457.871 117.741 461.168 115.766C457.94 117.358 453.669 117.018 449.059 114.367Z" fill="white"/>
<path d="M449.073 109.82C441.795 105.625 436.135 95.4937 436.442 87.209C436.749 78.9243 442.889 75.6141 450.167 79.8088C457.446 84.0035 463.105 94.1349 462.798 102.42C462.491 110.704 456.352 114.015 449.073 109.82Z" fill="#FFB433"/>
<path fillRule="evenodd" clipRule="evenodd" d="M450.483 103.574L451.138 103.959C452.108 104.529 453.037 104.689 453.967 104.848C454.452 104.931 454.937 105.015 455.428 105.156C455.772 105.255 456.131 105.412 456.501 105.629C456.854 105.837 457.223 106.104 457.589 106.412C458.457 107.146 459.303 108.114 459.844 109.076L459.933 97.9934C459.942 91.9353 455.75 84.5699 450.536 81.505C445.298 78.4257 441.011 80.8535 440.962 86.9277C440.913 93.0018 445.12 100.422 450.358 103.501L450.365 103.505C450.404 103.528 450.444 103.552 450.483 103.574ZM451.512 101.54L451.519 101.544C451.56 101.569 451.588 101.585 451.615 101.6L451.626 101.606L452.292 101.998C452.717 102.248 453.15 102.38 453.738 102.496C453.861 102.52 454.019 102.547 454.2 102.578C454.723 102.668 455.439 102.791 456.059 102.97C456.593 103.124 457.113 103.354 457.611 103.643L457.657 97.99C457.657 97.9877 457.657 97.9854 457.657 97.983C457.659 95.4431 456.767 92.4772 455.215 89.7525C453.661 87.0249 451.565 84.7495 449.382 83.4661C447.176 82.1691 445.701 82.3239 444.925 82.7632C444.15 83.2025 443.259 84.3874 443.238 86.9459C443.218 89.4897 444.102 92.472 445.658 95.2159C447.213 97.9598 449.319 100.251 451.512 101.54Z" fill="url(#paint60_linear)"/>
<path d="M451.138 103.96L450.483 103.575C450.444 103.553 450.405 103.53 450.366 103.507L450.358 103.503C445.12 100.423 440.913 93.0027 440.962 86.9285C440.985 84.008 441.988 81.9304 443.606 80.9027L441.469 82.1131C439.619 83.0405 438.451 85.2111 438.426 88.3647C438.377 94.4388 442.584 101.859 447.823 104.939L447.83 104.943L447.831 104.943C447.869 104.966 447.908 104.989 447.947 105.011L448.602 105.396C449.572 105.966 450.501 106.126 451.431 106.286C451.917 106.369 452.402 106.452 452.893 106.594C453.236 106.693 453.595 106.849 453.965 107.067C454.318 107.274 454.688 107.541 455.053 107.85C455.922 108.583 456.767 109.552 457.308 110.514L459.844 109.078L459.842 109.074C459.301 108.113 458.457 107.146 457.589 106.413C457.224 106.105 456.854 105.838 456.501 105.63C456.131 105.413 455.772 105.256 455.429 105.157C455.311 105.123 455.193 105.093 455.076 105.065L455.076 105.08C455.06 105.071 455.045 105.063 455.03 105.054C454.674 104.971 454.321 104.91 453.967 104.849C453.037 104.69 452.108 104.53 451.138 103.96Z" fill="#F89C00"/>
<path d="M455.094 102.742C455.416 102.807 455.75 102.882 456.06 102.972C456.594 103.125 457.113 103.355 457.611 103.644L457.657 97.9914L457.657 97.9843C457.659 95.4444 456.767 92.4785 455.215 89.7538C453.661 87.0261 451.565 84.7506 449.382 83.4672C447.175 82.1701 445.7 82.3248 444.925 82.7641C444.572 82.9642 444.195 83.3188 443.887 83.8874C444.66 83.9212 445.644 84.197 446.846 84.9034C449.029 86.1868 451.125 88.4623 452.679 91.19C454.232 93.9147 455.123 96.8806 455.121 99.4205L455.121 99.4275L455.094 102.742Z" fill="#F89C00"/>
<path fillRule="evenodd" clipRule="evenodd" d="M448.465 93.6271C449.315 95.1274 450.441 96.33 451.549 96.9812C452.67 97.6399 453.157 97.4176 453.214 97.3852C453.272 97.3527 453.713 97.0491 453.723 95.7499C453.734 94.4654 453.28 92.8818 452.429 91.3815C451.579 89.8812 450.453 88.6786 449.345 88.0274C448.224 87.3687 447.737 87.591 447.68 87.6234C447.622 87.6558 447.181 87.9595 447.171 89.2587C447.16 90.5432 447.614 92.1267 448.465 93.6271ZM450.395 98.9423C447.329 97.1397 444.866 92.796 444.895 89.2404C444.923 85.6848 447.432 84.2637 450.499 86.0663C453.565 87.8689 456.028 92.2126 455.999 95.7682C455.971 99.3238 453.462 100.745 450.395 98.9423Z" fill="url(#paint61_linear)"/>
<path d="M450.856 101.124C451.198 101.072 451.514 100.963 451.801 100.801L454.329 99.3689C453.315 99.9385 451.925 99.8413 450.395 98.9423C447.329 97.1397 444.866 92.796 444.895 89.2404C444.909 87.5139 445.507 86.2906 446.471 85.6954L444.111 87.032C443.788 87.1988 443.502 87.4308 443.259 87.7241C443.401 90.0859 444.258 92.7479 445.658 95.2169C447.057 97.6858 448.902 99.788 450.856 101.124Z" fill="#F89C00"/>
<path d="M449.894 92.8177C449.139 91.4869 448.168 90.3903 447.185 89.705C447.174 89.5528 447.17 89.4039 447.171 89.2587C447.181 87.9595 447.623 87.6559 447.68 87.6234C447.737 87.591 448.224 87.3687 449.345 88.0274C450.453 88.6786 451.579 89.8812 452.43 91.3815C453.28 92.8818 453.734 94.4654 453.723 95.7499C453.713 97.0491 453.272 97.3528 453.214 97.3852C453.157 97.4176 452.67 97.6399 451.549 96.9812C451.424 96.9076 451.299 96.827 451.173 96.7397C451.09 95.5448 450.648 94.1485 449.894 92.8177Z" fill="#F89C00"/>
<path d="M446.742 85.5487C446.71 85.5639 446.678 85.5796 446.646 85.596L446.738 85.5443L446.742 85.5487Z" fill="#F89C00"/>
<path d="M454.603 99.2137L454.344 99.3602C454.429 99.3116 454.512 99.2582 454.592 99.2002L454.603 99.2137Z" fill="#F89C00"/>
<path d="M449.138 80.2439C456.455 84.4486 462.125 94.6392 461.792 102.987C461.63 106.912 460.176 109.737 457.925 111.194C460.689 109.951 462.501 106.933 462.686 102.502C463.019 94.1548 457.349 83.9642 450.032 79.7596C446.158 77.5276 442.591 77.4223 440.044 79.0561C442.512 77.9572 445.709 78.2637 449.138 80.2439Z" fill="#FFA100"/>
<defs>
<filter id="filter0_f" x="9.35401" y="44.4038" width="258.503" height="102.501" filterUnits="userSpaceOnUse" color-interpolation-filters="sRGB">
<feFlood flood-opacity="0" result="BackgroundImageFix"/>
<feBlend mode="normal" in="SourceGraphic" in2="BackgroundImageFix" result="shape"/>
<feGaussianBlur stdDeviation="9.41681" result="effect1_foregroundBlur"/>
</filter>
<filter id="filter1_f" x="217.594" y="0.826038" width="267.22" height="175.464" filterUnits="userSpaceOnUse" color-interpolation-filters="sRGB">
<feFlood flood-opacity="0" result="BackgroundImageFix"/>
<feBlend mode="normal" in="SourceGraphic" in2="BackgroundImageFix" result="shape"/>
<feGaussianBlur stdDeviation="10.4984" result="effect1_foregroundBlur"/>
</filter>
<radialGradient id="paint0_diamond" cx="0" cy="0" r="1" gradientUnits="userSpaceOnUse" gradientTransform="translate(151.25 191.561) rotate(-62.5164) scale(223.837 286.287)">
<stop stop-color="#99A2D3"/>
<stop offset="0.557292" stop-color="#9EA7D7"/>
<stop offset="1" stop-color="#E4E8FF"/>
</radialGradient>
<radialGradient id="paint1_diamond" cx="0" cy="0" r="1" gradientUnits="userSpaceOnUse" gradientTransform="translate(156.414 172.484) rotate(-103.276) scale(154.703 402.452)">
<stop offset="0.385417" stop-color="#B9BFE6"/>
<stop offset="0.557292" stop-color="#C8CDE9"/>
<stop offset="0.713542" stop-color="#E4E8FF"/>
<stop offset="0.864583" stop-color="#F2F4FF"/>
<stop offset="1" stop-color="#E4E8FF"/>
</radialGradient>
<linearGradient id="paint2_linear" x1="44.2848" y1="134.081" x2="62.9724" y2="152.779" gradientUnits="userSpaceOnUse">
<stop stop-color="#7782C8"/>
<stop offset="1" stop-color="#B9BFE6" stop-opacity="0"/>
</linearGradient>
<linearGradient id="paint3_linear" x1="44.2848" y1="134.081" x2="62.9724" y2="152.779" gradientUnits="userSpaceOnUse">
<stop stop-color="#7782C8"/>
<stop offset="1" stop-color="#B9BFE6" stop-opacity="0"/>
</linearGradient>
<linearGradient id="paint4_linear" x1="44.2848" y1="134.081" x2="62.9724" y2="152.779" gradientUnits="userSpaceOnUse">
<stop stop-color="#7782C8"/>
<stop offset="1" stop-color="#B9BFE6" stop-opacity="0"/>
</linearGradient>
<linearGradient id="paint5_linear" x1="44.2848" y1="134.081" x2="62.9724" y2="152.779" gradientUnits="userSpaceOnUse">
<stop stop-color="#7782C8"/>
<stop offset="1" stop-color="#B9BFE6" stop-opacity="0"/>
</linearGradient>
<linearGradient id="paint6_linear" x1="44.2848" y1="134.081" x2="62.9724" y2="152.779" gradientUnits="userSpaceOnUse">
<stop stop-color="#7782C8"/>
<stop offset="1" stop-color="#B9BFE6" stop-opacity="0"/>
</linearGradient>
<linearGradient id="paint7_linear" x1="44.2848" y1="134.081" x2="62.9724" y2="152.779" gradientUnits="userSpaceOnUse">
<stop stop-color="#7782C8"/>
<stop offset="1" stop-color="#B9BFE6" stop-opacity="0"/>
</linearGradient>
<linearGradient id="paint8_linear" x1="44.2848" y1="134.081" x2="62.9724" y2="152.779" gradientUnits="userSpaceOnUse">
<stop stop-color="#7782C8"/>
<stop offset="1" stop-color="#B9BFE6" stop-opacity="0"/>
</linearGradient>
<linearGradient id="paint9_linear" x1="44.2848" y1="134.081" x2="62.9724" y2="152.779" gradientUnits="userSpaceOnUse">
<stop stop-color="#7782C8"/>
<stop offset="1" stop-color="#B9BFE6" stop-opacity="0"/>
</linearGradient>
<linearGradient id="paint10_linear" x1="44.2848" y1="134.081" x2="62.9724" y2="152.779" gradientUnits="userSpaceOnUse">
<stop stop-color="#7782C8"/>
<stop offset="1" stop-color="#B9BFE6" stop-opacity="0"/>
</linearGradient>
<linearGradient id="paint11_linear" x1="44.2848" y1="134.081" x2="62.9724" y2="152.779" gradientUnits="userSpaceOnUse">
<stop stop-color="#7782C8"/>
<stop offset="1" stop-color="#B9BFE6" stop-opacity="0"/>
</linearGradient>
<linearGradient id="paint12_linear" x1="44.2848" y1="134.081" x2="62.9724" y2="152.779" gradientUnits="userSpaceOnUse">
<stop stop-color="#7782C8"/>
<stop offset="1" stop-color="#B9BFE6" stop-opacity="0"/>
</linearGradient>
<linearGradient id="paint13_linear" x1="44.2848" y1="134.081" x2="62.9724" y2="152.779" gradientUnits="userSpaceOnUse">
<stop stop-color="#7782C8"/>
<stop offset="1" stop-color="#B9BFE6" stop-opacity="0"/>
</linearGradient>
<linearGradient id="paint14_linear" x1="44.2848" y1="134.081" x2="62.9724" y2="152.779" gradientUnits="userSpaceOnUse">
<stop stop-color="#7782C8"/>
<stop offset="1" stop-color="#B9BFE6" stop-opacity="0"/>
</linearGradient>
<linearGradient id="paint15_linear" x1="44.2848" y1="134.081" x2="62.9724" y2="152.779" gradientUnits="userSpaceOnUse">
<stop stop-color="#7782C8"/>
<stop offset="1" stop-color="#B9BFE6" stop-opacity="0"/>
</linearGradient>
<linearGradient id="paint16_linear" x1="211.999" y1="61.0717" x2="206.938" y2="148.029" gradientUnits="userSpaceOnUse">
<stop stop-color="#C4CAFF"/>
<stop offset="0.661458" stop-color="#7A84DC"/>
</linearGradient>
<linearGradient id="paint17_linear" x1="235.141" y1="76.2101" x2="236.714" y2="144.223" gradientUnits="userSpaceOnUse">
<stop stop-color="#C4CAFF"/>
<stop offset="0.661458" stop-color="#7A84DC"/>
</linearGradient>
<linearGradient id="paint18_linear" x1="107.808" y1="84.4878" x2="93.7633" y2="93.746" gradientUnits="userSpaceOnUse">
<stop stop-color="#069F5F"/>
<stop offset="1" stop-color="#007E49"/>
</linearGradient>
<linearGradient id="paint19_linear" x1="99.2741" y1="82.949" x2="100.103" y2="93.2685" gradientUnits="userSpaceOnUse">
<stop stop-color="#005531"/>
<stop offset="1" stop-color="#005531" stop-opacity="0"/>
</linearGradient>
<linearGradient id="paint20_linear" x1="107.808" y1="84.4878" x2="93.7633" y2="93.746" gradientUnits="userSpaceOnUse">
<stop stop-color="#0FA968"/>
<stop offset="1" stop-color="#088E56"/>
</linearGradient>
<linearGradient id="paint21_linear" x1="103.855" y1="84.7915" x2="99.5813" y2="93.2481" gradientUnits="userSpaceOnUse">
<stop stop-color="#005531"/>
<stop offset="1" stop-color="#005531" stop-opacity="0"/>
</linearGradient>
<linearGradient id="paint22_linear" x1="95.0906" y1="92.1812" x2="85.3093" y2="85.0508" gradientUnits="userSpaceOnUse">
<stop stop-color="#0FA968"/>
<stop offset="1" stop-color="#0D995E"/>
</linearGradient>
<linearGradient id="paint23_linear" x1="95.0906" y1="92.1812" x2="85.3093" y2="85.0508" gradientUnits="userSpaceOnUse">
<stop stop-color="#0FA968"/>
<stop offset="1" stop-color="#0D995E"/>
</linearGradient>
<linearGradient id="paint24_linear" x1="91.6574" y1="91.2094" x2="85.9297" y2="83.2353" gradientUnits="userSpaceOnUse">
<stop stop-color="#008C51" stop-opacity="0"/>
<stop offset="1" stop-color="#00643A"/>
</linearGradient>
<linearGradient id="paint25_linear" x1="91.6574" y1="91.2094" x2="85.9297" y2="83.2353" gradientUnits="userSpaceOnUse">
<stop stop-color="#008C51" stop-opacity="0"/>
<stop offset="1" stop-color="#00643A"/>
</linearGradient>
<linearGradient id="paint26_linear" x1="93.4788" y1="84.7603" x2="86.1543" y2="78.6701" gradientUnits="userSpaceOnUse">
<stop stop-color="#13AC6C"/>
<stop offset="1" stop-color="#15BF78"/>
</linearGradient>
<linearGradient id="paint27_linear" x1="107.961" y1="81.6045" x2="92.4258" y2="69.9522" gradientUnits="userSpaceOnUse">
<stop stop-color="#24BA7B"/>
<stop offset="1" stop-color="#33D993"/>
</linearGradient>
<linearGradient id="paint28_linear" x1="107.961" y1="81.6045" x2="92.4258" y2="69.9522" gradientUnits="userSpaceOnUse">
<stop stop-color="#24BA7B"/>
<stop offset="1" stop-color="#33D993"/>
</linearGradient>
<linearGradient id="paint29_linear" x1="195.262" y1="50.6051" x2="253.392" y2="11.7748" gradientUnits="userSpaceOnUse">
<stop stop-color="#FFD387"/>
<stop offset="1" stop-color="#FFD387" stop-opacity="0"/>
</linearGradient>
<linearGradient id="paint30_linear" x1="201.123" y1="51.1905" x2="231.542" y2="33.8518" gradientUnits="userSpaceOnUse">
<stop stop-color="#FFD387"/>
<stop offset="1" stop-color="#FFD387" stop-opacity="0"/>
</linearGradient>
<radialGradient id="paint31_diamond" cx="0" cy="0" r="1" gradientUnits="userSpaceOnUse" gradientTransform="translate(285.526 171.619) rotate(-17.5201) scale(249.639 319.051)">
<stop stop-color="#99A2D3"/>
<stop offset="0.557292" stop-color="#9EA7D7"/>
<stop offset="1" stop-color="#E4E8FF"/>
</radialGradient>
<radialGradient id="paint32_diamond" cx="0" cy="0" r="1" gradientUnits="userSpaceOnUse" gradientTransform="translate(303.428 166.367) rotate(-58.8914) scale(178.005 462.966)">
<stop stop-color="#B9BFE6"/>
<stop offset="0.473883" stop-color="#C8CDE9"/>
<stop offset="0.713542" stop-color="#E4E8FF"/>
<stop offset="0.864583" stop-color="#F2F4FF"/>
<stop offset="1" stop-color="#E4E8FF"/>
</radialGradient>
<linearGradient id="paint33_linear" x1="246.54" y1="42.0277" x2="246.54" y2="71.4915" gradientUnits="userSpaceOnUse">
<stop stop-color="#7782C8"/>
<stop offset="1" stop-color="#B9BFE6" stop-opacity="0"/>
</linearGradient>
<linearGradient id="paint34_linear" x1="246.54" y1="42.0277" x2="246.54" y2="71.4915" gradientUnits="userSpaceOnUse">
<stop stop-color="#7782C8"/>
<stop offset="1" stop-color="#B9BFE6" stop-opacity="0"/>
</linearGradient>
<linearGradient id="paint35_linear" x1="246.54" y1="42.0277" x2="246.54" y2="71.4915" gradientUnits="userSpaceOnUse">
<stop stop-color="#7782C8"/>
<stop offset="1" stop-color="#B9BFE6" stop-opacity="0"/>
</linearGradient>
<linearGradient id="paint36_linear" x1="246.54" y1="42.0277" x2="246.54" y2="71.4915" gradientUnits="userSpaceOnUse">
<stop stop-color="#7782C8"/>
<stop offset="1" stop-color="#B9BFE6" stop-opacity="0"/>
</linearGradient>
<linearGradient id="paint37_linear" x1="246.54" y1="42.0277" x2="246.54" y2="71.4915" gradientUnits="userSpaceOnUse">
<stop stop-color="#7782C8"/>
<stop offset="1" stop-color="#B9BFE6" stop-opacity="0"/>
</linearGradient>
<linearGradient id="paint38_linear" x1="246.54" y1="42.0277" x2="246.54" y2="71.4915" gradientUnits="userSpaceOnUse">
<stop stop-color="#7782C8"/>
<stop offset="1" stop-color="#B9BFE6" stop-opacity="0"/>
</linearGradient>
<linearGradient id="paint39_linear" x1="246.54" y1="42.0277" x2="246.54" y2="71.4915" gradientUnits="userSpaceOnUse">
<stop stop-color="#7782C8"/>
<stop offset="1" stop-color="#B9BFE6" stop-opacity="0"/>
</linearGradient>
<linearGradient id="paint40_linear" x1="246.54" y1="42.0277" x2="246.54" y2="71.4915" gradientUnits="userSpaceOnUse">
<stop stop-color="#7782C8"/>
<stop offset="1" stop-color="#B9BFE6" stop-opacity="0"/>
</linearGradient>
<linearGradient id="paint41_linear" x1="246.54" y1="42.0277" x2="246.54" y2="71.4915" gradientUnits="userSpaceOnUse">
<stop stop-color="#7782C8"/>
<stop offset="1" stop-color="#B9BFE6" stop-opacity="0"/>
</linearGradient>
<linearGradient id="paint42_linear" x1="246.54" y1="42.0277" x2="246.54" y2="71.4915" gradientUnits="userSpaceOnUse">
<stop stop-color="#7782C8"/>
<stop offset="1" stop-color="#B9BFE6" stop-opacity="0"/>
</linearGradient>
<linearGradient id="paint43_linear" x1="246.54" y1="42.0277" x2="246.54" y2="71.4915" gradientUnits="userSpaceOnUse">
<stop stop-color="#7782C8"/>
<stop offset="1" stop-color="#B9BFE6" stop-opacity="0"/>
</linearGradient>
<linearGradient id="paint44_linear" x1="246.54" y1="42.0277" x2="246.54" y2="71.4915" gradientUnits="userSpaceOnUse">
<stop stop-color="#7782C8"/>
<stop offset="1" stop-color="#B9BFE6" stop-opacity="0"/>
</linearGradient>
<linearGradient id="paint45_linear" x1="246.54" y1="42.0277" x2="246.54" y2="71.4915" gradientUnits="userSpaceOnUse">
<stop stop-color="#7782C8"/>
<stop offset="1" stop-color="#B9BFE6" stop-opacity="0"/>
</linearGradient>
<linearGradient id="paint46_linear" x1="246.54" y1="42.0277" x2="246.54" y2="71.4915" gradientUnits="userSpaceOnUse">
<stop stop-color="#7782C8"/>
<stop offset="1" stop-color="#B9BFE6" stop-opacity="0"/>
</linearGradient>
<linearGradient id="paint47_linear" x1="427.221" y1="116.616" x2="361.217" y2="172.813" gradientUnits="userSpaceOnUse">
<stop stop-color="#C4CAFF"/>
<stop offset="0.661458" stop-color="#7A84DC"/>
</linearGradient>
<linearGradient id="paint48_linear" x1="435.113" y1="146.784" x2="386.392" y2="195.061" gradientUnits="userSpaceOnUse">
<stop stop-color="#C4CAFF"/>
<stop offset="0.661458" stop-color="#7A84DC"/>
</linearGradient>
<linearGradient id="paint49_linear" x1="335.733" y1="52.9828" x2="317.362" y2="49.2028" gradientUnits="userSpaceOnUse">
<stop stop-color="#069F5F"/>
<stop offset="1" stop-color="#007E49"/>
</linearGradient>
<linearGradient id="paint50_linear" x1="330.22" y1="45.0462" x2="322.74" y2="53.8394" gradientUnits="userSpaceOnUse">
<stop stop-color="#005531"/>
<stop offset="1" stop-color="#005531" stop-opacity="0"/>
</linearGradient>
<linearGradient id="paint51_linear" x1="335.733" y1="52.9828" x2="317.362" y2="49.2028" gradientUnits="userSpaceOnUse">
<stop stop-color="#0FA968"/>
<stop offset="1" stop-color="#088E56"/>
</linearGradient>
<linearGradient id="paint52_linear" x1="332.378" y1="50.1077" x2="322.338" y2="53.4058" gradientUnits="userSpaceOnUse">
<stop stop-color="#005531"/>
<stop offset="1" stop-color="#005531" stop-opacity="0"/>
</linearGradient>
<linearGradient id="paint53_linear" x1="319.64" y1="49.0278" x2="317.549" y2="35.7007" gradientUnits="userSpaceOnUse">
<stop stop-color="#0FA968"/>
<stop offset="1" stop-color="#0D995E"/>
</linearGradient>
<linearGradient id="paint54_linear" x1="319.64" y1="49.0278" x2="317.549" y2="35.7007" gradientUnits="userSpaceOnUse">
<stop stop-color="#0FA968"/>
<stop offset="1" stop-color="#0D995E"/>
</linearGradient>
<linearGradient id="paint55_linear" x1="317.7" y1="45.5567" x2="319.467" y2="34.7565" gradientUnits="userSpaceOnUse">
<stop stop-color="#008C51" stop-opacity="0"/>
<stop offset="1" stop-color="#00643A"/>
</linearGradient>
<linearGradient id="paint56_linear" x1="317.7" y1="45.5567" x2="319.467" y2="34.7565" gradientUnits="userSpaceOnUse">
<stop stop-color="#008C51" stop-opacity="0"/>
<stop offset="1" stop-color="#00643A"/>
</linearGradient>
<linearGradient id="paint57_linear" x1="324.223" y1="41.9072" x2="323.248" y2="31.3356" gradientUnits="userSpaceOnUse">
<stop stop-color="#13AC6C"/>
<stop offset="1" stop-color="#15BF78"/>
</linearGradient>
<linearGradient id="paint58_linear" x1="338.128" y1="50.8307" x2="335.064" y2="29.4059" gradientUnits="userSpaceOnUse">
<stop stop-color="#24BA7B"/>
<stop offset="1" stop-color="#33D993"/>
</linearGradient>
<linearGradient id="paint59_linear" x1="338.128" y1="50.8307" x2="335.064" y2="29.4059" gradientUnits="userSpaceOnUse">
<stop stop-color="#24BA7B"/>
<stop offset="1" stop-color="#33D993"/>
</linearGradient>
<linearGradient id="paint60_linear" x1="447.083" y1="81.6922" x2="491.003" y2="111.27" gradientUnits="userSpaceOnUse">
<stop stop-color="#FFD387"/>
<stop offset="1" stop-color="#FFD387" stop-opacity="0"/>
</linearGradient>
<linearGradient id="paint61_linear" x1="448.358" y1="85.9656" x2="469.251" y2="102.3" gradientUnits="userSpaceOnUse">
<stop stop-color="#FFD387"/>
<stop offset="1" stop-color="#FFD387" stop-opacity="0"/>
</linearGradient>
</defs>
</svg>
