<svg width="258" height="144" viewBox="0 0 258 144" fill="none" xmlns="http://www.w3.org/2000/svg">
    <mask id="mask0" x="0" y="0" width="258" height="144">
        <rect width="258" height="144" rx="6" fill="#C4C4C4"/>
    </mask>
    <g mask="url(#mask0)">
        <path opacity="0.9"
              d="M150.953 15.8966C158.279 30.798 179.524 30.798 186.85 15.8966L210.311 -31.824C213.674 -38.6657 220.635 -43 228.259 -43H260.603C275.906 -43 285.54 -26.5125 278.026 -13.1803L220.185 89.4474C216.735 95.5703 216.751 103.055 220.228 109.163L279.978 214.104C287.57 227.437 277.941 244 262.598 244H229.58C221.987 244 215.048 239.7 211.669 232.899L186.812 182.871C179.459 168.07 158.344 168.07 150.99 182.871L126.134 232.899C122.755 239.7 115.816 244 108.223 244H75.3612C60.0277 244 50.3976 227.455 57.9707 214.122L117.598 109.145C121.062 103.046 121.078 95.5791 117.641 89.4655L59.9225 -13.1986C52.4271 -26.5306 62.0616 -43 77.3561 -43H109.544C117.168 -43 124.129 -38.6657 127.492 -31.8239L150.953 15.8966Z"
              fill="url(#paint0_linear)"/>
        <path d="M168.737 84.857L170.386 83.8201L208.317 104.035L206.667 105.072L168.737 84.857Z" fill="#ABB2DC"/>
        <path d="M206.667 105.073L208.316 104.036L190.342 124.061L188.692 125.098L206.667 105.073Z" fill="#B1B7DF"/>
        <path d="M168.736 84.8576L206.666 105.073L188.691 125.098L168.736 84.8576Z" fill="#B9BFE6"/>
        <path d="M259.842 84.7767L242.684 75.5701C243.996 76.2738 245.386 76.6596 246.861 76.7335C249.609 76.8706 252.685 75.8754 256.065 73.7639C259.465 71.6392 263.174 68.3855 267.167 64.0148C268.991 62.0186 270.934 59.3165 272.655 56.314C276.201 50.1305 280.156 42.5442 289.967 36.4173C298.446 31.1213 305.291 31.839 310.792 32.4145C314.677 32.8221 318.034 33.1725 320.921 31.3692L338.079 40.5758C335.193 42.3791 331.836 42.0274 327.95 41.6211C322.449 41.0456 315.604 40.3279 307.125 45.6239C297.316 51.752 293.359 59.3383 289.813 65.5206C288.092 68.5231 286.149 71.2252 284.325 73.2214C280.332 77.5921 276.623 80.8458 273.223 82.9705C269.843 85.082 266.767 86.0772 264.019 85.9401C262.544 85.8662 261.154 85.4804 259.842 84.7767Z"
              fill="url(#paint1_linear)"/>
        <path d="M259.009 86.3373L241.852 77.1307C238.362 75.2583 235.426 71.2676 232.955 65.0679C230.027 57.7274 228.242 48.4526 226.808 41.0003C226.391 38.8348 225.996 36.7874 225.608 34.955C223.815 26.4951 220.271 20.7083 215.684 18.2462L232.842 27.4528C237.429 29.9149 240.974 35.7017 242.766 44.1617C243.154 45.994 243.549 48.0414 243.966 50.2069C245.4 57.6593 247.185 66.9328 250.113 74.2745C252.584 80.4743 255.52 84.4649 259.009 86.3373Z"
              fill="#B9BFE5"/>
        <path d="M216.539 16.7009C213.638 15.1439 210.368 14.8594 206.937 15.8891C205.402 16.349 203.872 17.0565 202.353 18.0051C200.424 19.2103 198.513 20.8066 196.64 22.7807C193.142 26.4677 189.959 31.2913 187.18 37.1211C184.051 43.6796 181.669 51.0274 180.098 58.957C178.846 65.2742 178.103 71.9746 177.889 78.876C177.759 83.067 177.844 86.829 178.006 89.939L195.136 98.9289C195.042 96.2883 194.945 91.3492 195.046 88.0827C195.26 81.1825 196.003 74.4821 197.255 68.1636C198.825 60.2341 201.208 52.8875 204.336 46.3278C207.116 40.498 210.299 35.6731 213.796 31.9873C215.67 30.0132 217.58 28.417 219.51 27.2117C221.029 26.2631 222.559 25.5569 224.093 25.0957C227.525 24.066 230.794 24.3506 233.696 25.9076L216.539 16.7009Z"
              fill="url(#paint2_linear)"/>
        <path d="M219.51 27.211C221.029 26.2624 222.559 25.5562 224.094 25.095C228.544 23.7592 232.725 24.636 236.179 27.6307C239.784 30.7529 242.476 36.1194 243.966 43.1495C244.357 44.993 244.751 47.0467 245.17 49.2196C246.596 56.6222 248.369 65.836 251.26 73.0827C254.606 81.4712 258.779 85.6764 264.02 85.9367C266.768 86.0738 269.844 85.0787 273.224 82.9672C276.624 80.8425 280.333 77.5887 284.326 73.218C286.15 71.2218 287.728 68.6397 289.45 65.6372C292.995 59.4537 297.315 51.7474 307.125 45.6206C315.604 40.3246 322.449 41.0422 327.95 41.6177C331.835 42.0253 335.191 42.3758 338.079 40.5725L338.134 42.0158C334.896 44.0386 331.397 43.6717 327.346 43.2485C321.703 42.6578 315.307 41.9875 307.18 47.0639C297.839 52.8983 293.883 59.9716 290.31 66.2024C288.576 69.2252 286.849 72.0677 284.817 74.2912C280.677 78.8208 276.793 82.2318 273.261 84.4386C273.118 84.5285 272.975 84.6172 272.832 84.7021C269.433 86.7479 266.279 87.7132 263.452 87.5725C257.933 87.2966 253.569 82.9478 250.11 74.274C247.182 66.9323 245.397 57.6588 243.963 50.2064C243.546 48.041 243.151 45.9936 242.763 44.1612C239.917 30.7334 232.658 24.0377 223.821 26.6895C222.375 27.1227 220.938 27.7895 219.519 28.6746C214.311 31.9279 209.375 38.1435 205.301 46.6872C198.436 61.0824 196.602 76.7921 196.272 87.4348C196.154 91.2575 196.215 94.7176 196.352 97.6383L195.133 98.9283C194.975 95.8469 194.915 92.2079 195.043 88.0821C195.256 81.182 196 74.4816 197.252 68.1631C198.822 60.2335 201.205 52.8869 204.333 46.3272C207.113 40.4974 210.296 35.6725 213.793 31.9867C215.67 30.0125 217.581 28.4163 219.51 27.211Z"
              fill="#ABB2DC"/>
        <path d="M174.341 23.794C174.575 23.0685 175.093 22.3344 175.904 21.6613L185.957 19.9265C186.949 20.2884 187.685 20.8062 188.15 21.411L188.444 21.3552L188.871 23.5671C189.1 24.6727 188.625 25.9075 187.398 27.0168C186.101 28.1854 184.491 28.9311 182.542 29.2497C180.598 29.6029 178.561 29.4866 176.945 28.8206C175.414 28.1874 174.549 27.1838 174.392 26.0657L174.046 23.84L174.341 23.794Z"
              fill="#FFA100"/>
        <path d="M188.188 21.5647C188.082 21.4201 187.961 21.2821 187.825 21.1466L188.501 25.6334C188.593 25.463 188.663 25.2768 188.723 25.107L188.188 21.5647Z"
              fill="#FFB433"/>
        <path d="M175.951 21.6437C175.596 21.9419 175.302 22.2572 175.058 22.5734L175.873 28.2325C175.985 28.3131 176.101 28.3887 176.221 28.4636L175.353 22.4147L175.939 22.3215L176.865 28.785C176.901 28.8017 176.941 28.8176 176.977 28.8343C177.049 28.8632 177.125 28.8915 177.2 28.9198L176.249 22.2723L176.835 22.1791L177.825 29.1122C177.935 29.144 178.044 29.1714 178.153 29.1988L177.146 22.1343L177.732 22.0411L178.774 29.3197C178.882 29.3383 178.989 29.3526 179.097 29.3668L178.042 21.9919L178.628 21.8988L179.699 29.419C179.805 29.4245 179.912 29.43 180.018 29.4355L178.938 21.8539L179.525 21.7608L180.625 29.4409C180.73 29.4377 180.835 29.4344 180.941 29.4311L179.835 21.7159L180.422 21.6228L181.528 29.3884C181.632 29.3763 181.736 29.3643 181.84 29.3523L180.731 21.5736L181.318 21.4804L182.438 29.2716C182.542 29.2552 182.644 29.2344 182.747 29.2136L181.628 21.4312L182.214 21.338L183.317 29.0806C183.419 29.0554 183.52 29.0259 183.622 28.9963L182.523 21.2844L183.109 21.1913L184.193 28.8277C184.294 28.7938 184.394 28.7555 184.495 28.7172L183.419 21.1421L184.006 21.0489L185.061 28.4901C185.16 28.4474 185.266 28.4097 185.364 28.3582L184.315 20.9997L184.902 20.9065L185.923 28.0636C186.02 28.0078 186.122 27.9469 186.215 27.8874L185.211 20.8573L185.798 20.7641L186.768 27.5335C186.867 27.4595 186.968 27.393 187.058 27.3159L186.108 20.7149L186.694 20.6218L187.594 26.8392C187.694 26.7383 187.786 26.6498 187.869 26.5471L187.003 20.5682L187.057 20.5597C186.769 20.3682 186.445 20.1914 186.082 20.0387C185.375 19.7438 184.585 19.5559 183.754 19.4686L178.014 20.3806C177.254 20.7161 176.548 21.1371 175.951 21.6437Z"
              fill="#FFB433"/>
        <path d="M174.398 23.3104C174.337 23.4458 174.284 23.5799 174.243 23.7165L174.156 23.7298L174.658 26.9062C174.762 27.0904 174.879 27.2955 175.028 27.4639L174.398 23.3104Z"
              fill="#FFB433"/>
        <path d="M186.816 25.0397C184.232 27.1799 179.657 27.8917 176.595 26.6297C173.533 25.3677 173.144 22.6051 175.727 20.4605C178.31 18.3203 182.885 17.6085 185.947 18.8705C189.01 20.1369 189.398 22.8952 186.816 25.0397Z"
              fill="#FFBD4D"/>
        <path opacity="0.2"
              d="M182.966 23.2631C184.867 21.6863 185.155 19.7734 183.957 18.3673C181.13 17.9618 177.769 18.7557 175.697 20.4791C173.795 22.0558 173.507 23.9688 174.705 25.3749C177.537 25.7797 180.893 24.9821 182.966 23.2631Z"
              fill="white"/>
        <path opacity="0.7"
              d="M186.824 24.99C184.238 27.1424 179.649 27.848 176.573 26.5661C175.085 25.9466 174.23 24.9741 174.028 23.892C174.144 25.0635 175.017 26.1276 176.606 26.7944C179.682 28.0763 184.271 27.3708 186.857 25.2183C188.191 24.1065 188.729 22.821 188.513 21.6649C188.627 22.7605 188.075 23.9494 186.824 24.99Z"
              fill="white"/>
        <path d="M185.52 24.5019C183.542 26.1437 180.032 26.6897 177.687 25.7204C175.342 24.7511 175.044 22.6378 177.022 20.996C179 19.3541 182.509 18.8081 184.855 19.7774C187.2 20.7467 187.498 22.86 185.52 24.5019Z"
              fill="#FFB433"/>
        <path d="M177.037 21.3382C179.022 19.6864 182.55 19.1438 184.91 20.1272C186.02 20.591 186.676 21.3086 186.855 22.1093C186.792 21.1842 186.118 20.3434 184.866 19.8191C182.506 18.8357 178.978 19.3783 176.993 21.0301C175.941 21.904 175.531 22.9163 175.73 23.8205C175.677 22.9956 176.104 22.1113 177.037 21.3382Z"
              fill="#FFA100"/>
        <path d="M181.917 47.3346C181.929 47.388 183.182 52.7507 183.439 60.3318C183.591 64.7947 183.374 69.1488 182.796 73.2736C182.069 78.4657 180.762 83.3122 178.913 87.6765C172.017 103.952 166.259 108.435 159.592 113.627C155.103 117.122 150.015 121.084 143.768 129.503C135.827 140.208 134.064 149.375 132.023 159.99C130.698 166.881 129.327 174.008 126.131 182.33C122.032 193.002 116.126 201.219 108.579 206.756C107.742 207.37 106.888 207.949 106.019 208.492C101.648 211.222 96.8904 213.044 91.8349 213.918C90.4794 214.153 88.8919 214.33 87.2121 214.517C81.6089 215.141 74.0968 215.976 67.8275 219.893C67.2919 220.228 66.7658 220.585 66.2506 220.965C57.9517 227.104 40.0616 250.1 39.8811 250.332L39.2487 249.426C39.9908 248.469 57.5356 225.92 66.0781 219.601C66.6311 219.192 67.1937 218.81 67.766 218.453C74.2971 214.373 81.9449 213.522 87.6526 212.885C89.3187 212.701 90.8926 212.525 92.222 212.295C95.8573 211.666 100.783 210.236 105.915 207.03C112.802 202.729 120.06 195.23 125.072 182.184C128.18 174.089 129.529 167.078 130.833 160.299C132.851 149.804 134.758 139.89 143.101 128.646C149.559 119.942 154.778 115.877 159.383 112.292C166.036 107.111 171.29 103.021 177.893 87.4371C181.878 78.0305 182.441 67.9342 182.213 61.1203C181.963 53.6804 180.738 48.4255 180.726 48.3734L181.917 47.3346Z"
              fill="#ABB2DC"/>
        <path d="M39.2457 249.425L22.0878 240.218C22.8299 239.261 40.3747 216.712 48.9172 210.393C49.4701 209.984 50.0328 209.602 50.6051 209.245C57.1362 205.165 64.7839 204.314 70.4917 203.677C72.1578 203.493 73.7316 203.317 75.061 203.087C78.6964 202.458 83.622 201.028 88.7542 197.822C95.6411 193.521 102.899 186.022 107.911 172.975C111.019 164.881 112.368 157.87 113.672 151.09C115.69 140.596 117.597 130.682 125.94 119.438C132.398 110.734 137.617 106.669 142.222 103.084C148.875 97.9032 154.129 93.8126 160.732 78.229C164.717 68.8224 165.281 58.7261 165.052 51.9123C164.803 44.4723 163.577 39.2174 163.565 39.1653L180.723 48.3719C180.735 48.424 181.961 53.6789 182.21 61.1189C182.44 67.9327 181.875 78.029 177.89 87.4356C171.287 103.02 166.033 107.112 159.38 112.291C154.775 115.877 149.555 119.941 143.098 128.646C134.755 139.891 132.848 149.804 130.83 160.298C129.526 167.078 128.179 174.089 125.069 182.183C120.057 195.229 112.798 202.729 105.912 207.03C100.78 210.235 95.8544 211.666 92.219 212.295C90.8896 212.525 89.3157 212.7 87.6497 212.885C81.9419 213.521 74.2941 214.373 67.7631 218.453C67.1908 218.81 66.6281 219.192 66.0752 219.601C57.5326 225.919 39.9879 248.468 39.2457 249.425Z"
              fill="url(#paint3_linear)"/>
        <path d="M170.766 13.6314L172.31 12.6494L192.608 53.0548L191.063 54.0369L170.766 13.6314Z" fill="#ABB2DC"/>
        <path d="M170.768 13.6307L191.064 54.0361L152.777 33.882L170.768 13.6307Z" fill="#E4E8FF"/>
        <path d="M122.766 79.7832C123.446 77.6723 124.953 75.5365 127.314 73.5782L156.563 68.5306C159.448 69.5836 161.589 71.09 162.943 72.8497L163.798 72.6875L165.039 79.1228C165.707 82.3396 164.326 85.9322 160.753 89.1598C156.981 92.5598 152.297 94.7292 146.625 95.6563C140.971 96.6839 135.043 96.3455 130.342 94.4079C125.886 92.5657 123.371 89.6456 122.913 86.3924L121.906 79.917L122.766 79.7832Z"
              fill="#FFA100"/>
        <path d="M163.055 73.2985C162.748 72.8777 162.397 72.4763 161.999 72.0819L163.967 85.1361C164.235 84.6403 164.437 84.0987 164.611 83.6046L163.055 73.2985Z"
              fill="#FFB433"/>
        <path d="M127.454 73.5283C126.419 74.3959 125.563 75.3132 124.854 76.2331L127.225 92.6982C127.552 92.9328 127.889 93.1526 128.238 93.3706L125.712 75.7714L127.418 75.5003L130.112 94.3057C130.217 94.3541 130.334 94.4007 130.439 94.4491C130.647 94.5333 130.867 94.6155 131.087 94.6977L128.319 75.3571L130.025 75.0861L132.905 95.2576C133.224 95.3501 133.542 95.4298 133.86 95.5095L130.928 74.9557L132.634 74.6846L135.665 95.8613C135.979 95.9156 136.292 95.9571 136.605 95.9985L133.535 74.5414L135.242 74.2704L138.358 96.1502C138.667 96.1662 138.976 96.1822 139.285 96.1982L136.144 74.1399L137.851 73.8689L141.052 96.2141C141.358 96.2046 141.664 96.1951 141.969 96.1856L138.753 73.7384L140.46 73.4674L143.68 96.0611C143.982 96.0261 144.284 95.9911 144.586 95.9562L141.361 73.3242L143.067 73.0531L146.328 95.7215C146.628 95.6737 146.927 95.6133 147.225 95.5528L143.968 72.91L145.674 72.6389L148.883 95.1656C149.18 95.0924 149.475 95.0065 149.77 94.9205L146.574 72.483L148.28 72.2119L151.433 94.43C151.727 94.3313 152.018 94.2199 152.31 94.1084L149.181 72.0688L150.887 71.7977L153.957 93.4477C154.247 93.3235 154.553 93.2137 154.839 93.064L151.788 71.6545L153.494 71.3834L156.465 92.2068C156.749 92.0444 157.044 91.8673 157.315 91.694L154.395 71.2403L156.102 70.9692L158.924 90.6645C159.213 90.4492 159.505 90.2556 159.769 90.0313L157.003 70.826L158.709 70.555L161.327 88.6444C161.618 88.3507 161.887 88.0935 162.128 87.7947L159.608 70.3991L159.765 70.3743C158.927 69.8172 157.984 69.3028 156.929 68.8585C154.871 68.0005 152.573 67.4539 150.156 67.1998L133.455 69.8532C131.244 70.8295 129.191 72.0543 127.454 73.5283Z"
              fill="#FFB433"/>
        <path d="M122.934 78.3775C122.756 78.7714 122.601 79.1617 122.483 79.5591L122.23 79.5977L123.691 88.8394C123.992 89.3751 124.332 89.9721 124.767 90.462L122.934 78.3775Z"
              fill="#FFB433"/>
        <path d="M159.06 83.4072C151.544 89.634 138.233 91.7049 129.324 88.0332C120.415 84.3615 119.284 76.3236 126.798 70.0841C134.313 63.8572 147.625 61.7864 156.533 65.4581C165.444 69.1425 166.574 77.1677 159.06 83.4072Z"
              fill="#FFBD4D"/>
        <path opacity="0.2"
              d="M147.859 78.2381C153.391 73.6507 154.229 68.085 150.743 63.9939C142.517 62.8143 132.739 65.1242 126.709 70.1383C121.177 74.7257 120.339 80.2915 123.825 84.3825C132.063 85.5603 141.827 83.2396 147.859 78.2381Z"
              fill="white"/>
        <path opacity="0.7"
              d="M159.084 83.2639C151.56 89.5264 138.209 91.5792 129.259 87.8495C124.93 86.0471 122.44 83.2176 121.854 80.0693C122.192 83.4778 124.732 86.5738 129.354 88.5139C138.304 92.2436 151.655 90.1908 159.178 83.9284C163.062 80.6935 164.626 76.9534 163.997 73.5897C164.328 76.7773 162.724 80.2363 159.084 83.2639Z"
              fill="white"/>
        <path d="M155.291 81.8444C149.536 86.6213 139.325 88.2099 132.502 85.3897C125.678 82.5696 124.812 76.421 130.567 71.6441C136.321 66.8673 146.532 65.2787 153.356 68.0988C160.179 70.9189 161.045 77.0676 155.291 81.8444Z"
              fill="#FFB433"/>
        <path d="M130.612 72.6378C136.386 67.832 146.65 66.2533 153.518 69.1144C156.746 70.4639 158.655 72.5518 159.176 74.8814C158.993 72.1898 157.033 69.7435 153.39 68.2181C146.522 65.357 136.258 66.9358 130.484 71.7415C127.422 74.284 126.23 77.2292 126.807 79.8602C126.653 77.4602 127.897 74.8872 130.612 72.6378Z"
              fill="#FFA100"/>
    </g>
    <defs>
        <linearGradient id="paint0_linear" x1="200" y1="221.5" x2="200" y2="-3.00001" gradientUnits="userSpaceOnUse">
            <stop stop-color="#9586FF" stop-opacity="0"/>
            <stop offset="0.505208" stop-color="#9586FF"/>
            <stop offset="0.984375" stop-color="#9586FF" stop-opacity="0"/>
        </linearGradient>
        <linearGradient id="paint1_linear" x1="244.797" y1="80.9757" x2="255.531" y2="22.7715"
                        gradientUnits="userSpaceOnUse">
            <stop offset="0.328582" stop-color="#B9BFE6"/>
            <stop offset="0.481701" stop-color="#C8CDE9"/>
            <stop offset="0.656294" stop-color="#E4E8FF"/>
            <stop offset="0.802887" stop-color="#F2F4FF"/>
            <stop offset="1" stop-color="#E4E8FF"/>
        </linearGradient>
        <linearGradient id="paint2_linear" x1="179.161" y1="90.5538" x2="218.083" y2="17.5238"
                        gradientUnits="userSpaceOnUse">
            <stop offset="0.5644" stop-color="#B9BFE6"/>
            <stop offset="0.6453" stop-color="#C8CDE9"/>
            <stop offset="0.7729" stop-color="#E4E8FF"/>
            <stop offset="0.9303" stop-color="#F2F4FF"/>
            <stop offset="1" stop-color="#E4E8FF"/>
        </linearGradient>
        <linearGradient id="paint3_linear" x1="24.9504" y1="227.805" x2="105.601" y2="78.8928"
                        gradientUnits="userSpaceOnUse">
            <stop offset="0.385417" stop-color="#B9BFE6"/>
            <stop offset="0.557292" stop-color="#C8CDE9"/>
            <stop offset="0.713542" stop-color="#E4E8FF"/>
            <stop offset="0.864583" stop-color="#F2F4FF"/>
            <stop offset="1" stop-color="#E4E8FF"/>
        </linearGradient>
    </defs>
</svg>
