<svg width="258" height="144" viewBox="0 0 258 144" fill="none" xmlns="http://www.w3.org/2000/svg">
    <mask id="mask0" x="0" y="0" width="258" height="144">
        <rect width="258" height="144" rx="6" fill="#C4C4C4"/>
    </mask>
    <g mask="url(#mask0)">
        <path opacity="0.5"
              d="M213.026 175.944C216.106 181.278 222.927 183.106 228.262 180.026L292.412 142.989C303.973 136.314 318.757 140.275 325.431 151.836C332.106 163.398 328.145 178.181 316.584 184.856L216.789 242.472C201.081 251.541 180.997 246.159 171.928 230.452L73.7116 60.3363C65.0343 45.3068 70.1838 26.0887 85.2133 17.4114C100.243 8.73417 119.461 13.8837 128.138 28.9131L213.026 175.944Z"
              fill="url(#paint0_linear)"/>
        <path opacity="0.5"
              d="M235.78 77.673C244.669 93.0704 264.358 98.3459 279.755 89.4562L308.347 72.949C317.192 67.8422 328.503 70.8728 333.609 79.7181C338.716 88.5635 335.686 99.8739 326.84 104.981L299.379 120.836C260.36 143.363 210.466 129.994 187.938 90.9752L141.021 9.71223C134.382 -1.7867 138.322 -16.4903 149.821 -23.1292C161.32 -29.7681 176.023 -25.8283 182.662 -14.3294L235.78 77.673Z"
              fill="url(#paint1_linear)"/>
        <path d="M197.532 67.7498L239.102 81.4493L249.305 99.1212L248.074 106.901C228.364 89.6688 221.001 84.4948 201.613 74.8185L197.532 67.7498Z"
              fill="url(#paint2_linear)"/>
        <path d="M202.47 70.3685C204.804 74.412 205.444 78.6659 202.47 80.3833C199.495 82.1007 196.35 79.7992 194.016 75.7558C191.681 71.7124 191.239 67.3441 194.016 65.7408C196.54 64.2833 200.135 66.3251 202.47 70.3685Z"
              fill="url(#paint3_linear)"/>
        <path d="M218.483 46.9017L258.876 23.5808L297.341 79.688C299.615 83.005 298.631 87.5517 295.189 89.6318L276.576 100.88L257.529 111.375C254.006 113.316 249.577 111.894 247.841 108.266L218.483 46.9017Z"
              fill="url(#paint4_linear)"/>
        <path d="M252.452 23.9039C254.192 23.2584 255.678 22.8216 256.805 22.6482C257.365 22.5621 257.875 22.5345 258.299 22.5988C258.71 22.6614 259.169 22.8331 259.419 23.2672C259.692 23.7388 259.575 24.2668 259.392 24.681C259.201 25.1147 258.87 25.5879 258.447 26.0836C257.596 27.0812 256.269 28.2905 254.588 29.629C251.219 32.3121 246.338 35.5835 240.742 38.814C235.147 42.0446 229.873 44.636 225.865 46.2124C223.865 46.9989 222.155 47.5431 220.865 47.7815C220.224 47.8999 219.649 47.9505 219.178 47.899C218.728 47.8498 218.212 47.687 217.94 47.2154C217.71 46.8171 217.76 46.3763 217.884 46.0133C218.009 45.6456 218.243 45.2578 218.539 44.8635C219.134 44.0704 220.078 43.126 221.287 42.0819L252.452 23.9039Z"
              fill="url(#paint5_linear)"/>
        <path d="M239.846 37.2611C249.909 31.4512 256.973 25.6781 257.108 24.1562C257.12 24.0147 257.014 23.9038 256.906 23.8121C249.905 17.8958 239.946 17.0069 232.008 21.5897L230.193 22.6378C222.255 27.2206 218.045 36.2903 219.668 45.3112C219.693 45.451 219.737 45.5979 219.866 45.6579C221.251 46.3025 229.783 43.071 239.846 37.2611Z"
              fill="url(#paint6_radial)"/>
        <path d="M202.266 89.3332C202.207 90.0309 201.895 90.7951 201.308 91.5653L192.668 95.1968C191.706 95.0778 190.94 94.7665 190.398 94.3214L190.147 94.432L189.308 92.5403C188.874 91.5982 189.043 90.3947 189.913 89.1479C190.832 87.8338 192.119 86.8335 193.798 86.1453C195.465 85.4273 197.312 85.1101 198.896 85.3722C200.398 85.6223 201.379 86.342 201.751 87.3103L202.521 89.2309L202.266 89.3332Z"
              fill="#FFA100"/>
        <path d="M190.332 94.1907C190.456 94.2983 190.593 94.3968 190.743 94.4899L189.21 90.6136C189.163 90.7851 189.14 90.9661 189.121 91.1306L190.332 94.1907Z"
              fill="#FFB433"/>
        <path d="M201.269 91.59C201.525 91.2496 201.724 90.9065 201.876 90.5732L199.977 85.6761C199.859 85.6272 199.74 85.5835 199.617 85.5413L201.645 90.7762L201.139 90.9808L198.974 85.3867C198.939 85.3793 198.899 85.3733 198.864 85.3658C198.794 85.3547 198.72 85.345 198.647 85.3354L200.872 91.0889L200.367 91.2935L198.047 85.2923C197.943 85.2866 197.839 85.2847 197.736 85.2827L200.098 91.3978L199.593 91.6025L197.155 85.3027C197.055 85.3084 196.956 85.3178 196.857 85.3273L199.326 91.7105L198.82 91.9152L196.306 85.4052C196.21 85.4222 196.114 85.4393 196.018 85.4563L198.551 92.0195L198.046 92.2241L195.473 85.5771C195.379 85.6017 195.286 85.6263 195.193 85.651L197.777 92.3284L197.272 92.533L194.675 85.8108C194.585 85.843 194.495 85.8753 194.404 85.9075L197.005 92.6411L196.499 92.8458L193.885 86.1035C193.796 86.1395 193.708 86.1793 193.621 86.2191L196.232 92.9538L195.726 93.1585L193.138 86.4561C193.052 86.4997 192.967 86.5471 192.883 86.5945L195.461 93.2703L194.955 93.475L192.406 86.8636C192.323 86.9148 192.241 86.9699 192.159 87.0249L194.688 93.5831L194.182 93.7877L191.699 87.3452C191.619 87.404 191.533 87.4595 191.455 87.5259L193.915 93.8958L193.41 94.1004L191.016 87.9051C190.94 87.9753 190.862 88.0508 190.791 88.1233L193.142 94.2085L192.637 94.4131L190.369 88.5544C190.295 88.6412 190.219 88.7215 190.154 88.8092L192.37 94.5212L191.864 94.7259L189.773 89.3466C189.705 89.4577 189.64 89.5559 189.587 89.665L191.599 94.8377L191.552 94.8565C191.85 94.9683 192.176 95.0596 192.532 95.1213C193.227 95.239 193.972 95.2439 194.734 95.1503L199.683 93.1472C200.294 92.6897 200.839 92.167 201.269 91.59Z"
              fill="#FFB433"/>
        <path d="M202.314 89.777C202.341 89.6432 202.361 89.5121 202.369 89.3814L202.444 89.3516L201.338 86.6122C201.207 86.4687 201.06 86.3093 200.892 86.1894L202.314 89.777Z"
              fill="#FFB433"/>
        <path d="M190.843 90.7972C192.713 88.3475 196.661 86.7644 199.662 87.2609C202.664 87.7575 203.583 90.1499 201.715 92.6035C199.846 95.0533 195.897 96.6363 192.896 96.1398C189.892 95.6395 188.975 93.2508 190.843 90.7972Z"
              fill="#FFBD4D"/>
        <path opacity="0.2"
              d="M194.656 91.5914C193.28 93.3959 193.418 95.1678 194.781 96.1787C197.396 95.957 200.24 94.5515 201.739 92.5804C203.115 90.776 202.977 89.0041 201.614 87.9932C198.995 88.2163 196.156 89.6241 194.656 91.5914Z"
              fill="white"/>
        <path opacity="0.7"
              d="M190.846 90.8427C192.715 88.3814 196.677 86.8011 199.695 87.3126C201.155 87.5594 202.122 88.253 202.526 89.18C202.18 88.1553 201.179 87.3833 199.619 87.1149C196.601 86.6035 192.639 88.1837 190.769 90.6451C189.804 91.9162 189.589 93.1781 190.022 94.1682C189.693 93.211 189.941 92.0329 190.846 90.8427Z"
              fill="white"/>
        <path d="M192.114 91.0102C193.544 89.1316 196.573 87.9173 198.873 88.3C201.172 88.6827 201.876 90.5129 200.445 92.3914C199.014 94.2699 195.985 95.4843 193.686 95.1016C191.386 94.7188 190.683 92.8887 192.114 91.0102Z"
              fill="#FFB433"/>
        <path d="M200.36 92.0888C198.925 93.9777 195.88 95.1927 193.563 94.8006C192.475 94.6148 191.739 94.1081 191.413 93.4284C191.661 94.2435 192.438 94.8568 193.667 95.0672C195.983 95.4594 199.028 94.2443 200.463 92.3555C201.225 91.3557 201.382 90.3649 201.018 89.5965C201.236 90.3239 201.036 91.2039 200.36 92.0888Z"
              fill="#FFA100"/>
        <path d="M173.128 82.0056C173.312 81.33 173.756 80.6345 174.473 79.9827L183.626 77.9681C184.551 78.2586 185.248 78.7029 185.701 79.2383L185.968 79.1748L186.452 81.1868C186.709 82.1918 186.325 83.3449 185.245 84.4146C184.104 85.5415 182.659 86.2934 180.883 86.6678C179.114 87.0736 177.24 87.0525 175.729 86.5092C174.297 85.9925 173.461 85.1077 173.27 84.0882L172.858 82.0603L173.128 82.0056Z"
              fill="#FFA100"/>
        <path d="M185.742 79.3781C185.639 79.2498 185.523 79.1282 185.392 79.0096L186.201 83.0987C186.278 82.9385 186.334 82.7647 186.382 82.6064L185.742 79.3781Z"
              fill="#FFB433"/>
        <path d="M174.516 79.9648C174.202 80.2534 173.945 80.5551 173.735 80.8555L174.721 86.0147C174.827 86.084 174.937 86.1484 175.05 86.2122L173.999 80.6974L174.533 80.5873L175.655 86.48C175.688 86.4938 175.726 86.5068 175.76 86.5206C175.827 86.5441 175.897 86.5669 175.968 86.5896L174.815 80.5291L175.35 80.419L176.549 86.74C176.651 86.7645 176.753 86.7851 176.854 86.8056L175.633 80.3648L176.167 80.2547L177.429 86.8905C177.528 86.9031 177.628 86.9117 177.727 86.9202L176.449 80.1965L176.983 80.0863L178.282 86.9427C178.38 86.9433 178.478 86.9439 178.575 86.9445L177.266 80.0322L177.8 79.922L179.133 86.924C179.229 86.9165 179.326 86.9091 179.422 86.9017L178.083 79.8678L178.617 79.7577L179.959 86.8378C180.054 86.8224 180.149 86.807 180.244 86.7916L178.9 79.6995L179.434 79.5894L180.79 86.6924C180.884 86.673 180.977 86.6496 181.07 86.6262L179.716 79.5312L180.25 79.4211L181.588 86.4802C181.68 86.4528 181.772 86.4214 181.864 86.39L180.532 79.3589L181.066 79.2487L182.382 86.2113C182.473 86.1759 182.563 86.1366 182.654 86.0972L181.348 79.1906L181.882 79.0804L183.164 85.865C183.253 85.8216 183.348 85.7826 183.436 85.7312L182.165 79.0222L182.699 78.9121L183.936 85.4374C184.024 85.382 184.114 85.3219 184.197 85.2633L182.981 78.8539L183.515 78.7438L184.69 84.9154C184.778 84.8433 184.867 84.778 184.947 84.7034L183.797 78.6856L184.332 78.5755L185.419 84.2435C185.506 84.1466 185.587 84.0616 185.659 83.9639L184.613 78.5133L184.662 78.5032C184.39 78.3396 184.085 78.191 183.746 78.0661C183.084 77.8252 182.351 77.686 181.585 77.6407L176.356 78.7189C175.673 79.0588 175.043 79.4748 174.516 79.9648Z"
              fill="#FFB433"/>
        <path d="M173.161 81.5596C173.11 81.6864 173.067 81.8118 173.035 81.9388L172.956 81.9546L173.55 84.8486C173.653 85.0132 173.769 85.1966 173.913 85.3449L173.161 81.5596Z"
              fill="#FFB433"/>
        <path d="M184.628 82.6251C182.347 84.6977 178.178 85.5432 175.315 84.5137C172.452 83.4843 171.979 80.9653 174.259 78.8887C176.54 76.816 180.709 75.9705 183.572 77C186.436 78.0334 186.908 80.5484 184.628 82.6251Z"
              fill="#FFBD4D"/>
        <path opacity="0.2"
              d="M181.02 81.1558C182.699 79.6289 182.883 77.8612 181.724 76.6212C179.112 76.3679 176.061 77.2377 174.232 78.9064C172.553 80.4333 172.369 82.2009 173.528 83.441C176.144 83.6935 179.19 82.8205 181.02 81.1558Z"
              fill="white"/>
        <path opacity="0.7"
              d="M184.634 82.579C182.351 84.663 178.169 85.5033 175.292 84.4562C173.901 83.9502 173.075 83.0937 172.844 82.1091C173 83.1793 173.846 84.1192 175.332 84.6644C178.209 85.7116 182.39 84.8712 184.673 82.7872C185.851 81.7108 186.291 80.5085 186.044 79.4566C186.194 80.4572 185.738 81.5714 184.634 82.579Z"
              fill="white"/>
        <path d="M183.416 82.1863C181.67 83.7762 178.473 84.4247 176.279 83.6338C174.086 82.8428 173.725 80.9159 175.471 79.326C177.217 77.7362 180.415 77.0876 182.608 77.8786C184.801 78.6696 185.163 80.5965 183.416 82.1863Z"
              fill="#FFB433"/>
        <path d="M175.499 79.6386C177.251 78.0394 180.466 77.3931 182.673 78.1964C183.711 78.5755 184.344 79.2064 184.541 79.9337C184.445 79.0874 183.791 78.3441 182.62 77.9155C180.412 77.1123 177.198 77.7585 175.446 79.3577C174.517 80.2039 174.183 81.1501 174.403 81.9717C174.32 81.2169 174.675 80.3873 175.499 79.6386Z"
              fill="#FFA100"/>
        <path d="M176.833 117.206C176.72 116.102 176.96 114.764 177.605 113.273L189.317 103.196C190.772 102.879 191.993 102.96 192.921 103.363L193.261 103.062L195.045 105.537C195.958 106.761 196.054 108.701 195.129 111.072C194.151 113.571 192.54 115.779 190.258 117.711C188.004 119.682 185.367 121.13 182.952 121.55C180.662 121.945 179.006 121.348 178.177 120.051L176.486 117.496L176.833 117.206Z"
              fill="#FFA100"/>
        <path d="M193.057 103.529C192.842 103.428 192.612 103.347 192.363 103.282L195.745 108.45C195.765 108.162 195.748 107.871 195.728 107.608L193.057 103.529Z"
              fill="#FFB433"/>
        <path d="M177.656 113.214C177.375 113.871 177.181 114.502 177.052 115.094L181.269 121.643C181.456 121.657 181.645 121.662 181.839 121.663L177.334 114.662L178.022 114.084L182.833 121.567C182.888 121.56 182.947 121.549 183.002 121.542C183.109 121.522 183.22 121.499 183.332 121.476L178.385 113.779L179.073 113.202L184.229 121.231C184.385 121.185 184.539 121.134 184.692 121.083L179.44 112.902L180.127 112.324L185.543 120.751C185.69 120.69 185.834 120.624 185.977 120.558L180.491 112.019L181.178 111.441L186.767 120.152C186.904 120.076 187.042 120 187.179 119.924L181.545 111.141L182.232 110.563L187.949 119.455C188.079 119.368 188.21 119.282 188.341 119.195L182.599 110.263L183.287 109.686L189.059 118.681C189.183 118.584 189.307 118.487 189.432 118.391L183.65 109.381L184.338 108.803L190.142 117.819C190.263 117.718 190.381 117.611 190.499 117.504L184.701 108.498L185.388 107.92L191.143 116.889C191.257 116.777 191.369 116.66 191.48 116.543L185.748 107.61L186.436 107.033L192.107 115.881C192.215 115.759 192.32 115.632 192.425 115.505L186.799 106.727L187.487 106.15L193.012 114.773C193.113 114.641 193.225 114.51 193.32 114.368L187.85 105.845L188.538 105.267L193.859 113.556C193.951 113.409 194.045 113.252 194.129 113.103L188.901 104.962L189.589 104.384L194.627 112.221C194.711 112.049 194.8 111.886 194.871 111.717L189.952 104.079L190.64 103.502L195.279 110.692C195.348 110.486 195.415 110.301 195.462 110.106L191 103.191L191.063 103.138C190.591 103.121 190.083 103.15 189.539 103.24C188.48 103.42 187.377 103.8 186.28 104.34L179.548 109.994C178.778 111.015 178.124 112.103 177.656 113.214Z"
              fill="#FFB433"/>
        <path d="M176.634 116.547C176.633 116.767 176.642 116.979 176.667 117.185L176.565 117.269L178.989 120.91C179.223 121.063 179.486 121.232 179.77 121.328L176.634 116.547Z"
              fill="#FFB433"/>
        <path d="M193.281 109.017C191.226 113.758 185.852 118.246 181.276 119.042C176.7 119.837 174.652 116.634 176.704 111.887C178.758 107.146 184.133 102.659 188.709 101.863C193.288 101.072 195.332 104.271 193.281 109.017Z"
              fill="#FFBD4D"/>
        <path opacity="0.2"
              d="M187.421 109.776C188.932 106.284 188.218 103.629 185.914 102.782C182.116 104.482 178.321 108.122 176.677 111.934C175.165 115.426 175.879 118.081 178.183 118.928C181.986 117.224 185.773 113.582 187.421 109.776Z"
              fill="white"/>
        <path opacity="0.7"
              d="M193.263 108.948C191.212 113.707 185.817 118.197 181.212 118.979C178.985 119.358 177.357 118.793 176.493 117.576C177.3 118.973 179.001 119.641 181.382 119.243C185.987 118.462 191.382 113.971 193.433 109.212C194.492 106.755 194.446 104.701 193.522 103.402C194.282 104.705 194.256 106.646 193.263 108.948Z"
              fill="white"/>
        <path d="M191.343 109.35C189.772 112.984 185.649 116.427 182.143 117.033C178.636 117.639 177.07 115.188 178.641 111.554C180.213 107.92 184.335 104.477 187.842 103.871C191.348 103.265 192.914 105.716 191.343 109.35Z"
              fill="#FFB433"/>
        <path d="M178.853 111.975C180.428 108.323 184.575 104.871 188.109 104.271C189.77 103.991 191.003 104.388 191.68 105.265C191.08 104.139 189.755 103.599 187.88 103.914C184.346 104.514 180.199 107.966 178.624 111.619C177.788 113.553 177.842 115.159 178.601 116.152C178.07 115.146 178.111 113.688 178.853 111.975Z"
              fill="#FFA100"/>
        <path d="M116.852 146.081C116.699 144.593 117.022 142.79 117.891 140.782L133.674 127.202C135.635 126.774 137.28 126.884 138.531 127.427L138.988 127.022L141.393 130.357C142.623 132.006 142.753 134.62 141.506 137.815C140.188 141.183 138.017 144.158 134.942 146.761C131.905 149.417 128.351 151.368 125.097 151.934C122.012 152.467 119.779 151.662 118.663 149.915L116.384 146.472L116.852 146.081Z"
              fill="#FFA100"/>
        <path d="M138.714 127.651C138.424 127.515 138.114 127.406 137.779 127.318L142.335 134.282C142.363 133.894 142.339 133.502 142.313 133.148L138.714 127.651Z"
              fill="#FFB433"/>
        <path d="M117.96 140.702C117.582 141.587 117.321 142.437 117.147 143.235L122.829 152.059C123.081 152.079 123.336 152.086 123.597 152.087L117.527 142.653L118.454 141.874L124.936 151.957C125.01 151.948 125.091 151.933 125.165 151.923C125.308 151.897 125.458 151.866 125.608 151.834L118.944 141.463L119.87 140.685L126.817 151.504C127.028 151.443 127.235 151.374 127.442 151.306L120.364 140.28L121.291 139.502L128.588 150.858C128.786 150.776 128.98 150.687 129.174 150.598L121.78 139.091L122.707 138.313L130.238 150.051C130.423 149.948 130.608 149.845 130.793 149.743L123.201 137.908L124.127 137.13L131.83 149.111C132.006 148.994 132.183 148.878 132.359 148.761L124.621 136.726L125.548 135.947L133.326 148.068C133.494 147.938 133.661 147.807 133.829 147.677L126.037 135.536L126.964 134.758L134.786 146.907C134.949 146.77 135.107 146.626 135.266 146.483L127.454 134.347L128.38 133.568L136.134 145.653C136.289 145.503 136.439 145.345 136.589 145.187L128.865 133.15L129.792 132.372L137.434 144.295C137.579 144.131 137.721 143.96 137.862 143.788L130.281 131.961L131.208 131.182L138.653 142.802C138.79 142.624 138.94 142.448 139.068 142.257L131.698 130.771L132.624 129.993L139.795 141.163C139.919 140.964 140.045 140.753 140.158 140.553L133.114 129.582L134.04 128.803L140.83 139.363C140.943 139.132 141.063 138.912 141.159 138.684L134.53 128.392L135.457 127.614L141.707 137.304C141.801 137.025 141.891 136.776 141.954 136.513L135.942 127.196L136.027 127.125C135.391 127.101 134.706 127.14 133.973 127.262C132.546 127.504 131.06 128.016 129.581 128.743L120.51 136.363C119.472 137.739 118.591 139.204 117.96 140.702Z"
              fill="#FFB433"/>
        <path d="M116.584 145.193C116.582 145.489 116.594 145.775 116.628 146.052L116.49 146.166L119.756 151.072C120.072 151.278 120.427 151.505 120.809 151.636L116.584 145.193Z"
              fill="#FFB433"/>
        <path d="M139.015 135.046C136.246 141.435 129.005 147.482 122.838 148.554C116.672 149.627 113.913 145.31 116.678 138.914C119.446 132.525 126.688 126.478 132.854 125.406C139.025 124.34 141.78 128.65 139.015 135.046Z"
              fill="#FFBD4D"/>
        <path opacity="0.2"
              d="M131.118 136.068C133.156 131.363 132.193 127.786 129.088 126.644C123.971 128.935 118.857 133.841 116.641 138.977C114.603 143.682 115.566 147.26 118.671 148.401C123.795 146.105 128.898 141.198 131.118 136.068Z"
              fill="white"/>
        <path opacity="0.7"
              d="M138.992 134.953C136.228 141.366 128.958 147.417 122.753 148.47C119.752 148.98 117.558 148.219 116.394 146.58C117.48 148.462 119.773 149.362 122.982 148.826C129.187 147.773 136.457 141.722 139.221 135.309C140.647 131.998 140.585 129.231 139.34 127.48C140.365 129.235 140.33 131.852 138.992 134.953Z"
              fill="white"/>
        <path d="M136.404 135.494C134.287 140.391 128.731 145.03 124.006 145.846C119.281 146.663 117.171 143.361 119.288 138.464C121.406 133.567 126.961 128.928 131.686 128.111C136.411 127.294 138.522 130.597 136.404 135.494Z"
              fill="#FFB433"/>
        <path d="M119.574 139.032C121.696 134.11 127.284 129.458 132.046 128.649C134.285 128.272 135.946 128.807 136.858 129.989C136.049 128.472 134.265 127.744 131.737 128.169C126.976 128.978 121.387 133.63 119.265 138.551C118.139 141.157 118.211 143.322 119.235 144.66C118.518 143.304 118.574 141.34 119.574 139.032Z"
              fill="#FFA100"/>
        <path d="M116.433 106.206C116.91 107.317 117.096 108.785 116.91 110.544L108.017 124.828C106.607 125.632 105.312 125.944 104.216 125.827L103.961 126.25L101.302 124.259C99.9546 123.283 99.2233 121.299 99.4133 118.534C99.6166 115.618 100.573 112.799 102.316 110.049C104.017 107.267 106.287 104.904 108.66 103.682C110.911 102.526 112.827 102.608 114.11 103.686L116.699 105.792L116.433 106.206Z"
              fill="#FFA100"/>
        <path d="M104.021 125.699C104.278 125.734 104.543 125.743 104.823 125.73L99.6269 121.459C99.6997 121.765 99.8122 122.062 99.9184 122.328L104.021 125.699Z"
              fill="#FFB433"/>
        <path d="M116.877 110.623C116.955 109.848 116.951 109.13 116.892 108.472L110.379 103.038C110.18 103.085 109.982 103.141 109.78 103.202L116.739 109.013L116.213 109.838L108.779 103.626C108.724 103.651 108.665 103.682 108.611 103.707C108.506 103.762 108.398 103.823 108.29 103.883L115.934 110.273L115.408 111.097L107.437 104.43C107.289 104.528 107.147 104.631 107.004 104.733L115.124 111.528L114.598 112.352L106.227 105.356C106.094 105.467 105.967 105.582 105.839 105.698L114.319 112.787L113.793 113.611L105.15 106.376C105.032 106.5 104.914 106.624 104.796 106.748L113.509 114.042L112.983 114.866L104.149 107.486C104.041 107.618 103.933 107.751 103.826 107.883L112.699 115.298L112.172 116.122L103.247 108.651C103.149 108.792 103.051 108.933 102.954 109.074L111.894 116.557L111.367 117.381L102.402 109.899C102.309 110.044 102.221 110.193 102.133 110.343L111.089 117.816L110.562 118.64L101.664 111.192C101.581 111.345 101.504 111.503 101.426 111.661L110.289 119.08L109.762 119.904L100.99 112.553C100.917 112.715 100.849 112.881 100.782 113.047L109.484 120.339L108.957 121.163L100.41 113.999C100.347 114.169 100.274 114.341 100.222 114.52L108.679 121.599L108.152 122.423L99.9252 115.539C99.8776 115.722 99.8312 115.915 99.7923 116.097L107.874 122.858L107.347 123.682L99.5613 117.177C99.5299 117.383 99.4904 117.581 99.4715 117.78L107.069 124.117L106.542 124.941L99.3817 118.977C99.3767 119.214 99.3673 119.428 99.3822 119.646L106.269 125.381L106.221 125.456C106.716 125.321 107.235 125.125 107.771 124.855C108.814 124.323 109.836 123.57 110.801 122.652L115.958 114.585C116.426 113.273 116.752 111.93 116.877 110.623Z"
              fill="#FFB433"/>
        <path d="M116.854 106.826C116.783 106.598 116.706 106.38 116.612 106.175L116.691 106.053L112.988 103.058C112.695 102.976 112.366 102.886 112.04 102.877L116.854 106.826Z"
              fill="#FFB433"/>
        <path d="M102.003 120.068C102.596 114.472 106.722 108.06 111.218 105.744C115.715 103.428 118.886 106.091 118.298 111.692C117.705 117.288 113.58 123.7 109.083 126.016C104.581 128.328 101.415 125.668 102.003 120.068Z"
              fill="#FFBD4D"/>
        <path opacity="0.2"
              d="M107.847 117.373C107.412 121.494 109.018 124.021 111.688 124.151C115.082 121.149 117.842 116.131 118.311 111.634C118.746 107.513 117.14 104.986 114.469 104.856C111.072 107.864 108.321 112.88 107.847 117.373Z"
              fill="white"/>
        <path opacity="0.7"
              d="M102.044 120.134C102.627 114.521 106.773 108.099 111.305 105.789C113.496 104.67 115.372 104.728 116.666 105.711C115.373 104.521 113.388 104.381 111.042 105.569C106.511 107.88 102.365 114.302 101.781 119.915C101.481 122.813 102.196 124.933 103.579 125.982C102.365 124.876 101.761 122.849 102.044 120.134Z"
              fill="white"/>
        <path d="M103.909 119.092C104.36 114.804 107.524 109.885 110.971 108.114C114.418 106.344 116.843 108.381 116.392 112.669C115.942 116.957 112.777 121.876 109.33 123.647C105.883 125.418 103.458 123.38 103.909 119.092Z"
              fill="#FFB433"/>
        <path d="M116.035 112.3C115.587 116.608 112.4 121.545 108.923 123.319C107.287 124.15 105.876 124.139 104.887 123.448C105.878 124.422 107.43 124.553 109.277 123.615C112.754 121.842 115.941 116.904 116.389 112.596C116.629 110.314 116.051 108.662 114.938 107.877C115.818 108.75 116.249 110.279 116.035 112.3Z"
              fill="#FFA100"/>
        <path d="M130.306 108.023C130.304 107.447 130.497 106.769 130.907 106.033L137.471 101.434C138.239 101.345 138.864 101.45 139.323 101.706L139.514 101.568L140.307 102.937C140.715 103.616 140.665 104.622 140.066 105.798C139.433 107.038 138.487 108.095 137.21 108.975C135.945 109.876 134.509 110.488 133.241 110.58C132.039 110.667 131.215 110.273 130.854 109.561L130.112 108.155L130.306 108.023Z"
              fill="#FFA100"/>
        <path d="M139.384 101.798C139.279 101.735 139.164 101.682 139.039 101.635L140.518 104.477C140.544 104.329 140.55 104.178 140.553 104.041L139.384 101.798Z"
              fill="#FFB433"/>
        <path d="M130.936 106.005C130.757 106.33 130.625 106.646 130.528 106.945L132.368 110.542C132.463 110.559 132.561 110.571 132.661 110.582L130.696 106.736L131.081 106.473L133.179 110.583C133.207 110.582 133.239 110.58 133.267 110.579C133.323 110.574 133.382 110.568 133.441 110.562L131.284 106.334L131.668 106.072L133.916 110.481C134 110.466 134.081 110.448 134.163 110.429L131.873 105.936L132.258 105.673L134.62 110.301C134.699 110.278 134.776 110.251 134.854 110.224L132.461 105.534L132.846 105.271L135.282 110.055C135.357 110.023 135.432 109.991 135.507 109.958L133.05 105.135L133.435 104.872L135.928 109.756C136 109.718 136.072 109.68 136.144 109.642L133.64 104.736L134.024 104.474L136.541 109.414C136.61 109.37 136.679 109.327 136.748 109.283L134.227 104.335L134.612 104.072L137.144 109.025C137.212 108.979 137.278 108.929 137.345 108.88L134.815 103.933L135.2 103.671L137.709 108.596C137.774 108.544 137.837 108.489 137.901 108.435L135.402 103.529L135.787 103.266L138.258 108.125C138.32 108.068 138.381 108.008 138.442 107.947L135.99 103.127L136.374 102.865L138.782 107.6C138.842 107.537 138.906 107.475 138.962 107.407L136.578 102.726L136.962 102.463L139.282 107.015C139.338 106.944 139.394 106.868 139.445 106.796L137.165 102.324L137.55 102.061L139.748 106.366C139.8 106.281 139.854 106.202 139.9 106.118L137.753 101.923L138.138 101.66L140.163 105.61C140.209 105.507 140.253 105.415 140.287 105.317L138.34 101.518L138.375 101.494C138.133 101.461 137.869 101.45 137.583 101.468C137.027 101.507 136.439 101.646 135.844 101.868L132.079 104.44C131.628 104.928 131.235 105.456 130.936 106.005Z"
              fill="#FFB433"/>
        <path d="M130.237 107.673C130.226 107.787 130.219 107.896 130.222 108.004L130.164 108.042L131.228 110.046C131.341 110.137 131.468 110.238 131.61 110.302L130.237 107.673Z"
              fill="#FFB433"/>
        <path d="M139.217 104.642C137.913 106.984 134.908 109.024 132.505 109.199C130.102 109.374 129.21 107.615 130.513 105.271C131.818 102.929 134.822 100.889 137.225 100.714C139.63 100.541 140.52 102.298 139.217 104.642Z"
              fill="#FFBD4D"/>
        <path opacity="0.2"
              d="M136.154 104.733C137.114 103.008 136.881 101.601 135.736 101.045C133.688 101.727 131.542 103.411 130.497 105.294C129.537 107.019 129.769 108.426 130.915 108.982C132.965 108.298 135.107 106.613 136.154 104.733Z"
              fill="white"/>
        <path opacity="0.7"
              d="M139.212 104.606C137.908 106.957 134.893 108.997 132.475 109.164C131.306 109.245 130.495 108.87 130.112 108.197C130.456 108.96 131.3 109.392 132.549 109.309C134.967 109.143 137.982 107.102 139.286 104.751C139.959 103.537 140.041 102.475 139.631 101.757C139.956 102.468 139.843 103.469 139.212 104.606Z"
              fill="white"/>
        <path d="M138.2 104.715C137.202 106.51 134.897 108.074 133.056 108.207C131.215 108.339 130.532 106.994 131.53 105.199C132.529 103.404 134.834 101.839 136.675 101.706C138.516 101.574 139.198 102.92 138.2 104.715Z"
              fill="#FFB433"/>
        <path d="M131.618 105.427C132.619 103.623 134.937 102.054 136.792 101.926C137.664 101.867 138.28 102.136 138.584 102.623C138.332 102.011 137.677 101.664 136.692 101.73C134.837 101.858 132.519 103.427 131.518 105.231C130.987 106.186 130.932 107.018 131.273 107.57C131.051 107.023 131.147 106.273 131.618 105.427Z"
              fill="#FFA100"/>
        <path d="M150.652 88.8456C150.56 89.4153 150.26 90.0545 149.735 90.7158L142.501 94.1991C141.728 94.1625 141.126 93.9575 140.715 93.6302L140.504 93.7356L139.941 92.2533C139.647 91.5161 139.86 90.5294 140.643 89.4639C141.47 88.3408 142.576 87.4494 143.981 86.7866C145.377 86.1005 146.896 85.7283 148.165 85.8423C149.367 85.9518 150.118 86.4745 150.36 87.2368L150.865 88.7467L150.652 88.8456Z"
              fill="#FFA100"/>
        <path d="M140.669 93.529C140.763 93.6086 140.868 93.68 140.984 93.7462L139.982 90.6972C139.933 90.8394 139.902 90.9876 139.877 91.1222L140.669 93.529Z"
              fill="#FFB433"/>
        <path d="M149.702 90.739C149.931 90.4469 150.113 90.1563 150.258 89.8764L149.022 86.0223C148.93 85.9899 148.836 85.9619 148.739 85.9353L150.058 90.0554L149.635 90.2529L148.227 85.85C148.198 85.8461 148.167 85.8437 148.138 85.8399C148.082 85.8352 148.023 85.832 147.964 85.8287L149.412 90.3572L148.989 90.5546L147.481 85.8311C147.396 85.8329 147.312 85.8378 147.228 85.8427L148.764 90.6559L148.341 90.8534L146.757 85.895C146.675 85.9059 146.594 85.9197 146.513 85.9335L148.118 90.9577L147.695 91.1551L146.062 86.031C145.982 86.0508 145.903 86.0706 145.824 86.0904L147.471 91.2564L147.048 91.4539L145.375 86.2222C145.297 86.248 145.22 86.2738 145.143 86.2996L146.824 91.5552L146.401 91.7526L144.713 86.4615C144.638 86.4932 144.563 86.525 144.487 86.5568L146.178 91.8569L145.755 92.0544L144.054 86.748C143.979 86.7828 143.906 86.8205 143.832 86.8583L145.531 92.1587L145.108 92.3561L143.426 87.0805C143.354 87.1212 143.282 87.165 143.21 87.2087L144.886 92.4634L144.463 92.6608L142.807 87.4567C142.736 87.5034 142.666 87.5531 142.597 87.6028L144.24 92.7651L143.817 92.9626L142.204 87.8912C142.135 87.9439 142.061 87.9943 141.994 88.053L143.594 93.0669L143.171 93.2643L141.615 88.388C141.549 88.4496 141.481 88.5157 141.418 88.5789L142.947 93.3686L142.524 93.5661L141.049 88.9549C140.984 89.0299 140.918 89.0997 140.859 89.175L142.301 93.6704L141.878 93.8678L140.517 89.6345C140.454 89.7289 140.396 89.8126 140.346 89.9044L141.656 93.9751L141.617 93.9932C141.851 94.0654 142.11 94.1191 142.396 94.147C142.951 94.1993 143.556 94.1568 144.18 94.0335L148.319 92.1007C148.843 91.6916 149.317 91.2337 149.702 90.739Z"
              fill="#FFB433"/>
        <path d="M150.663 89.2033C150.693 89.0931 150.717 88.9855 150.732 88.879L150.795 88.8501L150.068 86.6969C149.971 86.5887 149.861 86.4685 149.732 86.3818L150.663 89.2033Z"
              fill="#FFB433"/>
        <path d="M141.295 90.7443C142.964 88.6409 146.265 87.1111 148.669 87.3271C151.073 87.5431 151.669 89.4265 150.001 91.533C148.332 93.6365 145.031 95.1662 142.627 94.9502C140.222 94.7313 139.626 92.8508 141.295 90.7443Z"
              fill="#FFBD4D"/>
        <path opacity="0.2"
              d="M144.338 91.1514C143.109 92.7007 143.111 94.1294 144.154 94.8646C146.288 94.5221 148.683 93.205 150.021 91.5129C151.25 89.9636 151.248 88.5349 150.205 87.7998C148.068 88.1436 145.677 89.4623 144.338 91.1514Z"
              fill="white"/>
        <path opacity="0.7"
              d="M141.294 90.7812C142.964 88.6684 146.275 87.1401 148.692 87.3671C149.861 87.4765 150.602 87.9789 150.872 88.7057C150.655 87.8961 149.891 87.3322 148.642 87.2115C146.226 86.9845 142.914 88.5128 141.244 90.6257C140.382 91.7168 140.129 92.7537 140.418 93.53C140.212 92.774 140.486 91.8029 141.294 90.7812Z"
              fill="white"/>
        <path d="M142.312 90.8378C143.589 89.225 146.122 88.0515 147.963 88.2189C149.805 88.3862 150.261 89.827 148.984 91.4398C147.706 93.0526 145.174 94.2261 143.332 94.0587C141.491 93.8914 141.034 92.4506 142.312 90.8378Z"
              fill="#FFB433"/>
        <path d="M148.934 91.1996C147.652 92.821 145.106 93.9961 143.252 93.8222C142.38 93.7392 141.815 93.374 141.593 92.8429C141.743 93.4887 142.335 93.9378 143.319 94.0321C145.173 94.206 147.719 93.0309 149.001 91.4095C149.681 90.5512 149.87 89.7377 149.622 89.137C149.754 89.7135 149.537 90.4398 148.934 91.1996Z"
              fill="#FFA100"/>
        <path d="M165.701 106.286C166.101 107.173 166.245 108.32 166.066 109.671L158.237 120.219C157.011 120.76 155.891 120.927 154.946 120.774L154.721 121.087L152.447 119.393C151.295 118.561 150.686 116.982 150.879 114.853C151.086 112.607 151.942 110.48 153.476 108.451C154.974 106.396 156.959 104.697 159.02 103.887C160.975 103.121 162.628 103.294 163.724 104.202L165.935 105.98L165.701 106.286Z"
              fill="#FFA100"/>
        <path d="M154.779 120.664C155 120.706 155.229 120.728 155.47 120.734L151.032 117.13C151.092 117.371 151.186 117.607 151.274 117.819L154.779 120.664Z"
              fill="#FFB433"/>
        <path d="M166.037 109.73C166.112 109.135 166.117 108.579 166.073 108.066L160.511 103.487C160.338 103.511 160.167 103.543 159.992 103.579L165.936 108.477L165.472 109.084L159.123 103.85C159.076 103.866 159.025 103.887 158.977 103.903C158.887 103.94 158.793 103.98 158.699 104.021L165.227 109.405L164.764 110.013L157.957 104.395C157.828 104.463 157.704 104.534 157.579 104.605L164.515 110.331L164.051 110.938L156.902 105.043C156.787 105.121 156.675 105.203 156.564 105.285L163.806 111.259L163.343 111.867L155.962 105.771C155.859 105.86 155.756 105.949 155.653 106.038L163.093 112.184L162.63 112.792L155.086 106.572C154.991 106.669 154.897 106.765 154.802 106.861L162.381 113.11L161.917 113.717L154.295 107.423C154.209 107.526 154.123 107.63 154.037 107.733L161.672 114.038L161.209 114.646L153.552 108.34C153.47 108.447 153.393 108.558 153.315 108.668L160.964 114.967L160.501 115.575L152.901 109.298C152.828 109.413 152.759 109.53 152.691 109.648L160.26 115.899L159.796 116.507L152.305 110.313C152.24 110.435 152.18 110.56 152.12 110.684L159.552 116.828L159.088 117.436L151.789 111.4C151.733 111.528 151.668 111.657 151.62 111.792L158.843 117.757L158.38 118.364L151.354 112.564C151.311 112.703 151.268 112.85 151.233 112.989L158.135 118.685L157.671 119.293L151.022 113.811C150.993 113.969 150.956 114.12 150.938 114.273L157.427 119.614L156.963 120.222L150.847 115.194C150.841 115.378 150.83 115.543 150.841 115.713L156.722 120.546L156.68 120.602C157.109 120.526 157.559 120.404 158.025 120.225C158.93 119.874 159.82 119.349 160.663 118.693L165.201 112.745C165.619 111.756 165.914 110.735 166.037 109.73Z"
              fill="#FFB433"/>
        <path d="M166.058 106.79C165.999 106.609 165.935 106.436 165.856 106.272L165.926 106.182L162.762 103.652C162.51 103.571 162.227 103.482 161.946 103.457L166.058 106.79Z"
              fill="#FFB433"/>
        <path d="M153.098 116.189C153.67 111.891 157.3 107.164 161.206 105.629C165.112 104.094 167.819 106.337 167.251 110.639C166.679 114.937 163.05 119.664 159.144 121.199C155.233 122.73 152.53 120.49 153.098 116.189Z"
              fill="#FFBD4D"/>
        <path opacity="0.2"
              d="M158.171 114.438C157.751 117.603 159.109 119.651 161.413 119.906C164.374 117.776 166.81 114.05 167.263 110.596C167.683 107.431 166.325 105.383 164.021 105.128C161.056 107.262 158.628 110.988 158.171 114.438Z"
              fill="white"/>
        <path opacity="0.7"
              d="M153.132 116.243C153.697 111.931 157.344 107.197 161.28 105.669C163.183 104.929 164.802 105.08 165.908 105.916C164.805 104.921 163.093 104.699 161.056 105.484C157.12 107.012 153.472 111.746 152.908 116.058C152.618 118.284 153.212 119.966 154.395 120.857C153.359 119.932 152.859 118.328 153.132 116.243Z"
              fill="white"/>
        <path d="M154.753 115.542C155.189 112.249 157.973 108.622 160.967 107.449C163.961 106.276 166.032 107.992 165.597 111.286C165.161 114.58 162.377 118.206 159.383 119.379C156.389 120.552 154.318 118.836 154.753 115.542Z"
              fill="#FFB433"/>
        <path d="M165.292 110.981C164.859 114.29 162.055 117.929 159.035 119.103C157.614 119.652 156.397 119.563 155.551 118.971C156.395 119.782 157.733 119.972 159.337 119.352C162.358 118.179 165.161 114.539 165.595 111.23C165.826 109.477 165.345 108.165 164.393 107.494C165.143 108.22 165.499 109.428 165.292 110.981Z"
              fill="#FFA100"/>
        <path d="M160.048 89.7205C160.42 89.5829 160.907 89.5452 161.485 89.632L166.091 92.7279C166.34 93.1963 166.427 93.6201 166.376 93.973L166.512 94.062L165.823 94.8923C165.485 95.3133 164.822 95.5197 163.912 95.4161C162.952 95.3059 162.034 94.9533 161.147 94.3475C160.25 93.7544 159.497 92.9839 159.123 92.1973C158.768 91.4512 158.818 90.8324 159.189 90.4336L159.915 89.6279L160.048 89.7205Z"
              fill="#FFA100"/>
        <path d="M166.331 94.034C166.346 93.9516 166.352 93.8659 166.351 93.7751L164.88 95.3914C164.982 95.3726 165.081 95.3407 165.17 95.3104L166.331 94.034Z"
              fill="#FFB433"/>
        <path d="M161.511 89.644C161.256 89.6069 161.019 89.5972 160.802 89.6061L158.931 91.631C158.944 91.6962 158.96 91.7612 158.978 91.8274L160.978 89.6639L161.244 89.8469L159.106 92.158C159.114 92.1761 159.123 92.1955 159.131 92.2135C159.148 92.2482 159.166 92.2841 159.185 92.32L161.384 89.9436L161.65 90.1266L159.355 92.6043C159.386 92.6536 159.418 92.7014 159.45 92.7492L161.789 90.2249L162.054 90.4079L159.646 93.01C159.681 93.0547 159.718 93.0978 159.754 93.1409L162.195 90.5046L162.46 90.6876L159.97 93.3742C160.009 93.4142 160.049 93.4542 160.088 93.4943L162.599 90.7859L162.865 90.9689L160.324 93.7151C160.366 93.752 160.409 93.7888 160.451 93.8257L163.003 91.0672L163.269 91.2502L160.698 94.0247C160.743 94.0585 160.788 94.0923 160.834 94.1261L163.409 91.3469L163.675 91.5299L161.099 94.3173C161.146 94.3495 161.194 94.3802 161.242 94.4109L163.815 91.6266L164.081 91.8096L161.517 94.5757C161.567 94.6048 161.618 94.6323 161.669 94.6599L164.222 91.9048L164.488 92.0878L161.958 94.8146C162.01 94.8406 162.065 94.865 162.119 94.8895L164.628 92.1845L164.894 92.3675L162.428 95.0243C162.484 95.0471 162.539 95.0735 162.598 95.0932L165.034 92.4642L165.3 92.6472L162.93 95.2047C162.99 95.2229 163.054 95.2408 163.113 95.2562L165.44 92.7439L165.706 92.9269L163.466 95.3474C163.534 95.3607 163.599 95.3765 163.664 95.3857L165.846 93.0236L166.111 93.2067L164.058 95.433C164.136 95.4382 164.207 95.4445 164.279 95.443L166.253 93.3018L166.278 93.3185C166.239 93.1561 166.18 92.9852 166.098 92.8076C165.935 92.4622 165.698 92.1199 165.407 91.7935L162.807 90.0018C162.38 89.8303 161.941 89.7044 161.511 89.644Z"
              fill="#FFB433"/>
        <path d="M160.258 89.5935C160.182 89.6128 160.109 89.6347 160.04 89.6617L160.001 89.6344L158.969 90.7872C158.938 90.8808 158.904 90.9858 158.898 91.0912L160.258 89.5935Z"
              fill="#FFB433"/>
        <path d="M164.449 94.6013C162.61 94.3241 160.544 92.8914 159.833 91.4008C159.123 89.9102 160.04 88.9249 161.88 89.2005C163.719 89.4777 165.786 90.9105 166.496 92.401C167.205 93.8932 166.29 94.8769 164.449 94.6013Z"
              fill="#FFBD4D"/>
        <path opacity="0.2"
              d="M163.63 92.669C164.984 92.8727 165.837 92.3914 165.912 91.5292C164.962 90.3852 163.34 89.4157 161.862 89.1952C160.507 88.9916 159.655 89.4728 159.58 90.3351C160.531 91.4804 162.154 92.447 163.63 92.669Z"
              fill="white"/>
        <path opacity="0.7"
              d="M164.472 94.5894C162.627 94.315 160.557 92.8755 159.849 91.3737C159.506 90.6475 159.548 90.0413 159.888 89.6377C159.48 90.0379 159.41 90.6783 159.774 91.4553C160.482 92.9571 162.551 94.3966 164.396 94.6711C165.349 94.8125 166.056 94.6132 166.419 94.1816C166.04 94.5577 165.364 94.7225 164.472 94.5894Z"
              fill="white"/>
        <path d="M164.15 93.9698C162.741 93.7586 161.155 92.6595 160.612 91.517C160.069 90.3745 160.771 89.6208 162.18 89.832C163.589 90.0433 165.174 91.1423 165.717 92.2848C166.26 93.4274 165.559 94.1811 164.15 93.9698Z"
              fill="#FFB433"/>
        <path d="M162.054 89.9421C163.47 90.1528 165.061 91.2594 165.604 92.4118C165.859 92.9539 165.839 93.4101 165.599 93.7195C165.932 93.4139 165.994 92.9137 165.706 92.3017C165.163 91.1494 163.572 90.0428 162.156 89.832C161.406 89.7197 160.854 89.8816 160.582 90.2297C160.88 89.9582 161.39 89.8421 162.054 89.9421Z"
              fill="#FFA100"/>
    </g>
    <defs>
        <linearGradient id="paint0_linear" x1="257.838" y1="207.76" x2="166.65" y2="27.7116"
                        gradientUnits="userSpaceOnUse">
            <stop stop-color="white" stop-opacity="0"/>
            <stop offset="0.505208" stop-color="white"/>
            <stop offset="0.984375" stop-color="white" stop-opacity="0"/>
        </linearGradient>
        <linearGradient id="paint1_linear" x1="281.894" y1="122.505" x2="212.127" y2="-15.2487"
                        gradientUnits="userSpaceOnUse">
            <stop stop-color="white" stop-opacity="0"/>
            <stop offset="0.505208" stop-color="white"/>
            <stop offset="0.984375" stop-color="white" stop-opacity="0"/>
        </linearGradient>
        <linearGradient id="paint2_linear" x1="215.267" y1="81.7348" x2="218.09" y2="75.1478"
                        gradientUnits="userSpaceOnUse">
            <stop offset="0.0808289" stop-color="#9DA5D3"/>
            <stop offset="0.786207" stop-color="#E4E8FF"/>
            <stop offset="1" stop-color="#F2F4FF"/>
        </linearGradient>
        <linearGradient id="paint3_linear" x1="198.281" y1="70.8469" x2="194.413" y2="78.879"
                        gradientUnits="userSpaceOnUse">
            <stop stop-color="#363D67"/>
            <stop offset="1" stop-color="#6D77B5"/>
        </linearGradient>
        <linearGradient id="paint4_linear" x1="227.5" y1="67.9332" x2="267.021" y2="40.6444"
                        gradientUnits="userSpaceOnUse">
            <stop offset="0.0808289" stop-color="#B9BFE6"/>
            <stop offset="0.265447" stop-color="#C8CDE9"/>
            <stop offset="0.889842" stop-color="#E4E8FF"/>
            <stop offset="1" stop-color="#F2F4FF"/>
        </linearGradient>
        <linearGradient id="paint5_linear" x1="242.657" y1="35.3537" x2="238.679" y2="27.3749"
                        gradientUnits="userSpaceOnUse">
            <stop offset="0.0808289" stop-color="#9DA5D3"/>
            <stop offset="0.576973" stop-color="#E4E8FF"/>
            <stop offset="1" stop-color="#F2F4FF"/>
        </linearGradient>
        <radialGradient id="paint6_radial" cx="0" cy="0" r="1"
                        gradientTransform="translate(227.186 43.7814) rotate(-70.3014) scale(26.9861 57.7906)">
            <stop offset="0.0808289" stop-color="#B9BFE6"/>
            <stop offset="0.265447" stop-color="#C8CDE9"/>
            <stop offset="0.755133" stop-color="#E4E8FF"/>
            <stop offset="1" stop-color="#F2F4FF"/>
        </radialGradient>
    </defs>
</svg>
