<svg width="40" height="41" viewBox="0 0 40 41" fill="none" xmlns="http://www.w3.org/2000/svg">
<g clipPath="url(#clip0)">
<path d="M19.9989 11.9975C15.0298 11.9975 11 16.043 11 21.0335C11 25.025 13.5785 28.4112 17.156 29.6071C17.606 29.6904 17.7703 29.4114 17.7703 29.1717C17.7703 28.9569 17.7624 28.3887 17.7579 27.635C15.2548 28.1806 14.726 26.4234 14.726 26.4234C14.3176 25.3794 13.727 25.1015 13.727 25.1015C12.9091 24.5412 13.7877 24.5525 13.7877 24.5525C14.6911 24.6166 15.1659 25.484 15.1659 25.484C15.9691 26.8644 17.273 26.4661 17.786 26.2344C17.867 25.6505 18.0999 25.2522 18.3575 25.0261C16.3595 24.7977 14.258 24.0226 14.258 20.561C14.258 19.5744 14.609 18.7677 15.185 18.1355C15.0916 17.9071 14.7834 16.988 15.2728 15.7449C15.2728 15.7449 16.0288 15.5019 17.7478 16.6707C18.4655 16.4705 19.235 16.3704 20.0011 16.367C20.765 16.3715 21.5356 16.4705 22.2545 16.6719C23.9724 15.503 24.7272 15.746 24.7272 15.746C25.2177 16.9902 24.9095 17.9082 24.8172 18.1366C25.3944 18.7689 25.742 19.5755 25.742 20.5621C25.742 24.0327 23.6382 24.7966 21.6335 25.0205C21.9564 25.2995 22.2444 25.8507 22.2444 26.6934C22.2444 27.9016 22.2331 28.8759 22.2331 29.1717C22.2331 29.4136 22.3951 29.6949 22.8519 29.606C26.4237 28.409 29 25.0239 29 21.0335C29 16.043 24.9703 11.9975 19.9989 11.9975Z" fill="#6C5DD3"/>
</g>
<defs>
<clipPath id="clip0">
<rect width="18" height="18" fill="white" transform="translate(11 11.8102)"/>
</clipPath>
</defs>
</svg>
