<svg width="48" height="48" viewBox="0 0 48 48" fill="none" xmlns="http://www.w3.org/2000/svg">
<g clipPath="url(#clip0)">
<path d="M23.8814 30.6075L16.7111 25.3927C16.6222 25.3334 16.5333 25.2149 16.5037 25.0964C16.474 24.9778 16.474 24.8593 16.5037 24.7408L17.3333 22.2223L23.8814 30.6075ZM19.5259 17.1556L21.1555 22.2223H17.3333L18.9629 17.1556C18.9926 17.0371 19.1111 16.9778 19.2296 16.9778C19.4074 16.9482 19.4963 17.0371 19.5259 17.1556ZM21.1555 22.2223H26.6074L23.8814 30.6075L21.1555 22.2223ZM31.2889 24.7704C31.3185 24.889 31.3185 25.0075 31.2889 25.126C31.2592 25.2445 31.1703 25.3334 31.0814 25.4223L23.8814 30.6075L30.4296 22.2223L31.2889 24.7704ZM30.4296 22.2223H26.637L28.2666 17.1556C28.2963 17.0371 28.4148 16.9778 28.5333 16.9778C28.6814 16.9778 28.7703 17.0371 28.8 17.1556L30.4296 22.2223Z" fill="#6C5DD3"/>
</g>
<rect x="0.5" y="0.5" width="47" height="47" rx="5.5" stroke="#D2D6E5"/>
<defs>
<clipPath id="clip0">
<rect width="16" height="16" fill="white" transform="translate(16 16)"/>
</clipPath>
</defs>
</svg>
