<svg width="40" height="24" viewBox="0 0 40 24" fill="none" xmlns="http://www.w3.org/2000/svg">
<rect width="40" height="24" rx="6" fill="#6C5DD3" fill-opacity="0.1"/>
<path d="M10.5488 7.89062L12.375 13.0469L14.1914 7.89062H16.1152V15H14.6455V13.0566L14.792 9.70215L12.873 15H11.8672L9.95312 9.70703L10.0996 13.0566V15H8.63477V7.89062H10.5488ZM22.4961 13.5352H19.9277L19.4395 15H17.8818L20.5283 7.89062H21.8857L24.5469 15H22.9893L22.4961 13.5352ZM20.3232 12.3486H22.1006L21.207 9.6875L20.3232 12.3486ZM28.7549 10.3418L30.0879 7.89062H31.7725L29.7021 11.416L31.8262 15H30.1221L28.7549 12.5098L27.3877 15H25.6836L27.8076 11.416L25.7373 7.89062H27.4219L28.7549 10.3418Z" fill="#6C5DD3"/>
</svg>
