<svg width="40" height="41" viewBox="0 0 40 41" fill="none" xmlns="http://www.w3.org/2000/svg">
<g clipPath="url(#clip0)">
<path d="M27.5637 15.36L29 13.986V13.6853H24.0245L20.4785 22.5113L16.4442 13.6853H11.2273V13.986L12.905 16.0058C13.0685 16.155 13.154 16.3733 13.1322 16.593V24.5303C13.184 24.816 13.091 25.11 12.89 25.3178L11 27.6083V27.9053H16.3587V27.6045L14.4688 25.3178C14.264 25.1093 14.1672 24.8205 14.2085 24.5303V17.6648L18.9125 27.909H19.4593L23.504 17.6648V25.8255C23.504 26.0408 23.504 26.085 23.363 26.226L21.908 27.6338V27.9353H28.967V27.6345L27.5645 26.2613C27.4415 26.1683 27.3777 26.0123 27.404 25.8608V15.7605C27.3777 15.6083 27.4407 15.4523 27.5637 15.36V15.36Z" fill="#6C5DD3"/>
</g>
<defs>
<clipPath id="clip0">
<rect width="18" height="18" fill="white" transform="translate(11 11.8102)"/>
</clipPath>
</defs>
</svg>
