<svg width="40" height="41" viewBox="0 0 40 41" fill="none" xmlns="http://www.w3.org/2000/svg">
<g clipPath="url(#clip0)">
<path d="M29 15.2291C28.3306 15.5227 27.6174 15.7173 26.8737 15.8118C27.6387 15.3551 28.2226 14.6373 28.4971 13.7722C27.7839 14.1974 26.9964 14.4978 26.1571 14.6654C25.4799 13.9443 24.5146 13.4977 23.4616 13.4977C21.4186 13.4977 19.7739 15.1559 19.7739 17.1888C19.7739 17.4813 19.7986 17.7626 19.8594 18.0303C16.7915 17.8807 14.0769 16.4103 12.2532 14.1704C11.9349 14.7228 11.7481 15.3551 11.7481 16.0357C11.7481 17.3137 12.4062 18.4466 13.3872 19.1024C12.7944 19.0912 12.2127 18.9191 11.72 18.6479C11.72 18.6592 11.72 18.6738 11.72 18.6884C11.72 20.4817 12.9991 21.9712 14.6765 22.3143C14.3761 22.3964 14.0487 22.4358 13.709 22.4358C13.4727 22.4358 13.2342 22.4223 13.0104 22.3728C13.4885 23.8342 14.8453 24.9086 16.4585 24.9434C15.203 25.9256 13.6089 26.5173 11.8831 26.5173C11.5805 26.5173 11.2902 26.5038 11 26.4667C12.6346 27.5208 14.5719 28.1227 16.661 28.1227C23.4515 28.1227 27.164 22.4977 27.164 17.6219C27.164 17.4588 27.1584 17.3013 27.1505 17.1449C27.8829 16.6252 28.4982 15.9761 29 15.2291Z" fill="#6C5DD3"/>
</g>
<defs>
<clipPath id="clip0">
<rect width="18" height="18" fill="white" transform="translate(11 11.8102)"/>
</clipPath>
</defs>
</svg>
