<svg width="760" height="645" viewBox="0 0 760 645" fill="none" xmlns="http://www.w3.org/2000/svg">
<path d="M689.176 378.888L658.879 362.49C645.464 355.227 630.24 351.975 615.025 353.124C557.412 357.476 514.699 300.501 534.532 246.289C555.777 188.215 506.019 128.588 445.131 139.677L415.1 145.145C369.886 153.379 325.05 128.967 307.469 86.5427L302.049 73.4556C285.436 33.3689 247.657 6.03344 204.354 2.76843L176.462 0.665435C91.0747 -5.77255 15.6529 55.861 5.04129 140.748L1.5888 168.382C-3.92147 212.48 8.14079 256.974 35.1799 292.262L58.4005 322.568C77.5272 347.533 83.2311 380.256 73.6786 410.21C51.3878 480.077 112.453 548.155 184.405 533.658L242.827 521.892L407.51 569.792C430.834 576.574 452.561 587.97 471.399 603.298C523.458 645.663 594.678 655.847 656.547 629.781L677.356 621.012C710.919 606.871 737.311 579.748 750.507 545.829C775.072 482.692 748.791 411.16 689.176 378.888Z" fill="url(#paint0_linear)" fill-opacity="0.5"/>
<defs>
<linearGradient id="paint0_linear" x1="379.977" y1="0.203918" x2="379.977" y2="644.033" gradientUnits="userSpaceOnUse">
<stop stop-color="#DFE3F4"/>
<stop offset="1" stop-color="#DFE3F4" stop-opacity="0"/>
</linearGradient>
</defs>
</svg>
