<svg width="1140" height="731" viewBox="0 0 1140 731" fill="none" xmlns="http://www.w3.org/2000/svg">
<path d="M997.463 400.03L951.325 411.043C930.894 415.923 909.487 414.822 889.66 407.872C814.585 381.552 737.474 442.106 744.531 521.277C752.091 606.087 664.664 667.659 587.633 631.212L549.641 613.237C492.44 586.172 424.108 602.663 385.606 652.822L373.734 668.296C337.353 715.691 277.364 738.584 218.607 727.494L180.762 720.352C64.9014 698.484 -13.4456 589.633 2.69263 472.95L7.9488 434.967C16.3353 374.353 48.2349 319.474 96.7726 282.177L138.457 250.145C172.792 223.758 192.04 182.268 190.01 139.025C185.262 38.1573 290.74 -30.6255 381.271 14.2979L454.779 50.7673L690.88 45.7491C724.318 45.041 757.276 37.6263 787.793 23.9543C872.129 -13.8392 970.482 -2.00266 1043.48 54.7136L1068.03 73.7921C1107.63 104.56 1133.07 150.04 1138.53 199.855C1148.7 292.582 1088.25 378.354 997.463 400.03Z" fill="url(#paint0_linear)" fill-opacity="0.5"/>
<defs>
<linearGradient id="paint0_linear" x1="-68.9263" y1="457.794" x2="1050.98" y2="141.621" gradientUnits="userSpaceOnUse">
<stop stop-color="#DFE3F4"/>
<stop offset="1" stop-color="#DFE3F4" stop-opacity="0"/>
</linearGradient>
</defs>
</svg>
